<svg width="1354" height="564" viewBox="0 0 1354 564" fill="none" xmlns="http://www.w3.org/2000/svg"><path d="M677 399c-2 0-5-1-7-3l-60-51c-2-2-5-3-8-3l-93-4-6-2-109-66-6-2-54-4c-3 0-7 1-10 4l-8 8c-3 4-8 5-12 4l-131-26-74-7-4-1-18-9-6-1H38l-5 1-37 16c-4 2-4 9 1 10 2 0 4 2 4 4v284c0 7 6 13 13 13h1326c7 0 13-6 13-13V426c0-7-6-13-13-13h-13c-5 0-10-3-12-8l-4-10c-2-5-7-8-12-8h-114l-103 25-4 2-80 55-7 2H879c-4 0-7-1-10-4l-50-51-8-4-134-13z" fill="#1A2530"/><path d="M24 0v3l-1 9v6l-4-4c-4-4-5-4-4-1l3 6c4 4 4 5 5 10l-1 5-1-2-1-1-1-4c0-5-3-8-5-5v2c0 2-2 1-4-1l-3-1c-3 0-2 2 1 6 4 5 4 5 1 6l-1 3c1 2 3 2 5 0 2-1 2-1 2 3 0 3 0 3-4 1-3-2-4-2-4 0l4 5 1 2-3 1c-1 2-2 2-8-2l-8-4c-2 1 0 5 3 6l3 2h-3c-2 0-3 1-3 2-1 1 2 3 3 2h1l2 2c1 0 1 0 0 0-1 1-1 1 1 3l3 1-5 1c-4 1-5 2-3 4l4 1c2-1 5-1 5 1l2 1 2-1 3-1h2l-3 2c-2 1-2 2-1 2 2 1 5 1 6-1v2c0 2 0 3 2 3l2-2c0-1 0-1 0 0 1 1 1 1 2-1l2-2 1 3v3l-8 1c-7 1-8 0-12-2-5-3-8-4-8-1l3 2 3 2-4-1-12-6-3-1c-3 0-3 1-1 3l-5 1-6 1c-3 2 5 6 11 5l4-1-3 2-2 3c0 3 5 2 8-1 1-2 3-2 4-2l-1 1c-4 2-5 3-3 4 1 0 2 1 1 2l1 2h2c0-1 3-3 6-3l3-2 2-1c0 1-2 3-5 4l-2 3c0 1 3 2 5 0s2-2 2 0c-1 3 1 3 3 0 1-2 2-2 3-1h1c1-1 2-2 3-1 4 0 10-4 10-7 0-2 0-2 1 1 0 2 0 3-3 5l-10 7-7 3-5-2-6-3c-2 0-1 2 1 4v1l-3-1-4-1c-3-2-5-2-4 0s0 2-2 2l-4-1c-1-1-5 1-5 3 0 1 1 2 3 1 2 0 2 0 0 2s-2 2 2 2c2-1 2 0 2 1-1 1 0 2 2 1 2 0 2 0 2 2-1 2 0 2 3 1 2-2 5 2 3 4h-2l-4-1h-3l-1 1c-3-1-3 1-1 2s2 2 2 4c-1 3-1 3-5 0l-4-2c-2 0-2 0-1 2s1 2-7 1h-4c0 2 5 5 8 5v1c-1 1-1 2 1 2h2c2 0 3 1 3 2l3 1c2 0 3 0 3 2s0 2 2 0c1-2 2-2 2-1l1 1 2 2 2 3 2 2 2 2 3 1c1 2 1 2 3 0l3-2-2 2-9 4c-9 2-11 2-15 0-3-3-5-2-4 1 0 1 0 2-2 2l-4-1h-3c-2 1-2 1 1 3l3 4v1c3 0 5 1 4 2-1 2 3 4 6 2 1-2 2-2 1 0-2 2 0 4 2 3 4-1 5 1 2 2-5 2-10 2-12 0s-5-2-4 0l-4 1c-6-1-7 1-2 3 3 0 4 1 3 3 0 2 3 3 6 1l1 2c0 2 1 2 3 2 1-1 2-1 1 1 0 1 0 2 1 1l3 1 4-2c4-4 6-5 8-3 3 1 2 2-1 2-4-1-4 1-2 4 2 2 2 3 0 3l-4 1-3 2h-2l-4 1-6 1-4 1c-3-1-4 0-4 2 0 1-1 2-3 2h-4l-2 1h-2c0 2 5 5 8 5 2 0 2 0 1 2-2 1-2 2 0 2s3 0 2 1l3 1 3-1c3 0 4 1 4 2-1 3 1 3 3 0 1-3 1-3 1-1l1 3c7 0 8 0 9-3l1-3 1 3 1 2 2-2c2-3 2-3 2-1 0 3 2 3 3 0l1-2v1h3c3-1 3 0 3 1-1 1-7 5-10 5l-3 1-6 1-4 1c0 2 3 4 6 3l3 1c0 2-6 3-20 3l-23 2-3 1h-2c0 2 3 4 6 4l2 1-1 1-4 2-2 2 3-1 4 1 2 1h2c0 2 2 2 4 0l2-1v1l-2 3h5c1-2 2-2 3 1 0 2 2 2 5-1l3-2v3c-1 4 1 5 5 1 3-2 3-2 2 0-2 3-1 4 1 3l3 1h2l1-1 2 1 3 1c10-1-4 5-16 7-8 1-9 1-12-1l-4-1c-2-1-1 1 1 3h-2l-7-1-8-1-5-1c-1 1 5 5 9 6h4-4c-2 0-3 1-3 2l1 2h6c1 0 1 1-1 2-2 2-1 3 2 2h2c0 1 1 2 3 1l6-1c2-1 2-1 0 1-2 1-2 2 1 2 1-1 2 0 2 1 0 2 1 2 4-1l2-2-2 3-2 3c0 2 5 1 8-1 2-2 2-2 1 1s-2 4-12 6c-8 3-8 3-12 1-5-2-11-2-11-1l1 2h-4l-7-1c-2 0-2 1 0 3l3 2-4-1h-10c-1 2 6 4 10 5h3l-3 2c-3 2-3 5 0 4l1 2c0 2 1 3 2 3l4 1h4l2-2 1 1c2 2 3 5 1 5v1h-5c0 1-2 2-5 2-5 0-6 0-3 3h11l-4 2-3 3 2 1 4-1s1 0 0 0c-3 1-1 3 1 2h2c-3 2-1 3 3 1l3-1-1 2-1 1h6l2 1v1l-16 1-15 1 2 1 3 1v2l-5 1c-4 0-6 1-6 2 2 2 7 2 11 1 5-2 6-2 3 1-4 3-3 6 0 5l5-2 1 1v3l1 2c1 1 7-3 7-4h1v3l-1 4c0 1 5-2 10-7 3-4 4-3 0 1l-1 3c1 2 1 2 4-1l2-2v3c0 2-1 2-9 3l-9 1c-3-2-9-3-9-2l2 2h-3c-4-1-5 0-4 1 2 2 2 2-1 2-3-1-8 0-7 2l3 1c4 0 3 1-2 3-9 4-7 6 2 3 5-2 7-1 3 0l-2 3c0 1 1 2 3 1s3 0 1 1c-2 3 1 3 5 0 2-2 2-2 2 1-1 2-1 2 1 1 1-2 2-2 1 0s0 2 2 0c2-3 4-2 3 0s2 2 6 0c1-2 3-2 3-1h4l-7 2c-7 2-9 3-8 4 1 2 2 1 8 0 2-1 2 0-1 2l-3 4c0 1 5 0 9-2 3-2 4-1 2 2-3 3-2 4 0 3l2 1c0 2 1 2 3 0s2-2 2 0c0 3 5 2 8-1l3-3-1 3c-1 5 2 5 6 1l3-3v2c1 4 2 5 4 3s2-2 4-1c1 2 1 2 2 0l2-2 2-2c0-2 1-2 1-1l3 1c2 0 3-1 4-4 3-5 5-6 4-2-1 2 0 2 3 0l3-4c0-2 0-2 0 0 1 3 3 1 3-3 0-3 0-4 1-2l3 2c2 0 2 0 1 7 0 5-1 10-3 13l-2 4h25c2-1 1-2 0-5-2-4-3-13-1-13l3 2c1 4 4 5 3 2s0-1 2 2c1 2 2 3 4 3l4 1h1c1-1 1-1 3 1s4 2 3-1c0-1 0-2 1-1 1 2 4 3 4 2h9c1 1 1 0 1-1l1-2-1-2c-2-2-1-2 3 0s5 1 3-1v-1l3 1h1l2 3c1 2 2 2 3 1 2-2 2-2 3 1l2 2 1-3c1-2 1-2 2 0 2 2 3 2 5 0v-3l-1-1v-3c-1-2-1-2 2 1 6 6 7 6 9 4l1-3 1 1c5 4 11 5 7 1-2-2-2-2 1-3l3-1-3-2c-4-3-2-3 4 0l5 2c3 0 2-1-1-2-2-1-1-1 2-1l6-2c2-1 2-1-1-1-4-1-20-3-23-5-4-1-5-4-1-2 4 1 5 0 3-2-2-1-1-1 3-1 5 1 6 0 2-2-2-1-1-1 3-1 6 0 7-2 2-3l-3-1h3c4-1 5-2 1-3-2-1-1-1 5-1 6 1 6 0 4-1l-3-1-3-2h2l7-1c0-1-3-2-7-2l-7-1 7-3c6-1 10-3 9-4s-7 0-14 2c-3 1-3 0 1-2 5-5 2-5-6-1-7 4-12 4-20 2-10-4-26-11-27-13-1-3 0-3 2 0l2 1 2 1c1 1 1 0 1-1 0-2 1-1 4 1l3 3-1-3c0-3 0-3 2-2l5 2c4 3 4 3 3-1 0-2 0-3 1-2 2 2 6 2 6 0s2-2 3 0l3 3h3l-2-3-2-3h1l2-1c1-1 3-2 5-1l5-1h4c9 2 10-1 2-4-6-2-7-3-1-1 7 1 16 0 12-2l-6-2h-2l4-2c0-2-2-2-10-1-11 1-11 1-10-1 2-3 1-4-4-2l-9 1c-6-1-26-7-28-9s-2-4 0-3h2c0-1 2-1 7 1l8 1 6 1c3 0 3-1 1-3l1 1c4 3 5 3 5 1h3l3 1 4-2c3-2 3-2 1-3-2-2-2-2 2-1h2c0-1 3-2 7-2l7-3h4c1-1 1-1-1-2-3-1-3-1-3-3 1-1 0-1-1-2-2 0-1-1 4-2 7-2 8-4 2-3h-20 1l1-1-4-1c-7 0-18-2-19-4l2-1 3-1 2-1h3l5 1h3l-3-1-2-2 5-1h5l-4-2-3-1h3c2 0 4-1 5-3l4-2c1 0 2-1 2-3 2-2 0-3-6-1s-8 2-7 0c1-3 0-3-6-1-5 2-5 2-13-1-11-2-14-5-5-5l2-1 3 1c1 1 3 2 6 1 5-1 5-1 2-3-2-2-1-2 3 0 2 1 2 0 2-1-1-1 0-1 1-1 2 0 2-1 2-2v-2-2c-2-1-1-1 1-3 4-4 3-5-3-3-13 4-18 5-21 1-2-2-2-2-1-3l5 1c4 1 5 0 1-3-2-2-3-3-1-2l6-1-2-2c-1 0-1 0 0 0l3-3h-1c-4 2-25 1-30-1-3-1-3-1-1-1 2-1 2-1 2-3-1-1-1-2 1 0s5 3 5 2l2-1h2l3-1c3 0 3-1-1-5l-3-2 5 1c6 0 8 0 7-2-1-1 2-3 5-3s4-2 1-3h1l3-1 1-1v-2l-4-1h-1c2-1 1-3-2-2l-2-1v-1l-4 1-6 1-2 1 3-3c3-2 3-4 1-3-3 2-5 2-4 0 2-2 2-4-1-2l-5 4c-6 3-23-1-23-6l-2-2v-1l2 1 4 1 6 1c2 1 2 0 2-1v-2l3 2h5l-1-2 9 1 3-1c2-1 2-1 1-3-2-1-1-1 1-2 3-1 3-3 1-3l1-1 6-4 3-2-4-1c-2 0-3-1-3-2h-3c-3 1-3 1-2-1 2-2-1-3-4-1l-7 2c-4 0-5 0-3-1s2-2 1-5l-3 1c-2 2-5 2-7 2-7 0-18-4-25-9-2-2-2-2 1 0l2-1c0-2 0-2 1 0l2 1 4 1c3 2 3 2 3-1v-2l7 4 1-3c0-2 0-2 1 1l1 2h2c2 1 3 1 4-1l2-1v-2c0-2 0-2 3-1s4 0 2-2c-1-1-1-1 1-1v-2l-1-3s2 0 3 2l6 1v-2c-2-1-1-2 1-2l5-2 2-2-3-1h-6c-2 1-2 0-1-1 3-3 1-3-3 0s-7 3-5 1v-1c-2 1-2-1-1-2 3-3 0-2-3 0-7 5-7 6-14 3-8-2-13-5-15-7-1-2 0-2 2-2l3 2 3 1c1 0 2 0 1-2 0-2 0-2 2 1 1 1 3 3 5 3s2-1 1-3c0-4 2-5 5-2 1 2 7 3 7 2l-3-4-2-2 3 1 1 1h2c0 1 1 2 3 2s3-1 1-2-2-1 0-2l5-2-2-1c-2-1-2-1 2-1l5-1c2-2 1-3-4-3-3 0-5-1-4-2 1-2-3-2-7 0-5 3-6 3-5 1l-2-1-1-2c1-2 1-2-3-1-2 1-2 1-2-1 1-2-1-2-2 0l-5 3c-3 1-4 2-8 1-3-1-4-2-2-3l1-2c0-1-1-2-4-1-4 0-5-1-7-2-2-2-4-10-3-11s1 2 1 4l2 5c2 2 3 2 4 1l1-3c0-2 0-3 1-1 1 3 3 6 6 6 2 0 2-1 1-2v-3h1l1-1 1 1c0 2 6 7 8 6l1-3 1-1v-2l1 1c1 2 3 2 3 2l3-1 7-4-3-1-3-3-3-1c-3 0-9-3-7-3l2-2c0-2-5-2-7-1-2 2-6 3-6 2l3-2c2 0 2-1 1-2s0-2 1-2c2 0 6-2 5-3l-5-1c-5-1-5-1-4-4h4c2 2 2 1 3 0 0-2 1-2 2-2h1l2-1 2-2c0-1-2-2-6-2-2 0-2-2 0-3l1-1 2-3c4-1 3-3-2-3h-3l2-3c2-3 3-4 2-5s-2 0-5 3-3 3-5 1l-2-1-5 8c0 3-10 11-11 10l-1-6v-5l-1-4c0-3 1-4 3-5 3 0 3 0 2 1 0 3 2 4 4 2l2-2h5l-6-6h-2c-3-1-1-2 2-2h10l-1-1-3-2-2-1h-1l3-3c3-2 4-3 2-3l-9 4v-1l-1-3c-1-1-5 6-5 8 0 1 0 2-1 1l-2 1c-1 2-1 1-1-3l5-10 5-7c0-2-5-1-6 2-2 4-4 3-3-2 0-4 0-6-2-8l-2-2zm-7 35l3 3 3 6-1 4-2-6-2-4-1-3zm-3 15c2 0 7 3 8 5 1 4 0 4-2 2-1-2-2-2-3-2s-4-4-3-5zm28 8h1c2 1 1 1-2 4l-7 4-2 1-1 1-1-3c0-2 1-2 4-2 3 1 4 0 4-1l2-1 1-2 1-1zM30 72l3 2h7l-1 2h-2c-1 0-3 0-4-2l-3-2zm12 3l1 1h1l1-1v2c-3 2-4 2-4-1l1-1zm15 4l1 1h-2l1-1zM33 95l1 5c0 5 0 5-1 4v-9zm-8 13h1l-1 2c-2 0-2-1 0-2zm8 2h1v3c-1 1-1 1-1-1v-2zm-12 1h1l-1 1h-1l1-1zm-5 2h1l-1 1h-1l1-1zm-22 0l2 1c2 2 6 3 8 1s4-2 3 0l1 1 2-1c1-2 2-2 2 0l-2 2-9 1c-5 1-6 0-7-1l-1-3c0-1 0-2 1-1zm94 53l1 1h-1v-1zM3 178l-3 2-6 1 9-3zm88 42l3 1h-7l4-1zm23 6h1c1 0 1 0 0 0h-2 1zm0 25h1l2 1h1-3l-1-1zm-178 40v1l-2 1c-1 0-1-1 1-2h1zm16 9l3 2 2 2 2-2c1-3 1-3 2-1h2l2 1c0 2 2 3 2 2s2-2 3-1h3l-3 1-8 1c-2 0-4 0-3 1 0 1-1 1-4-1h-6c-1-1-1-1 1-3l2-2zm24 1h1l-1 1c-2 0-3 0-2-1h2zm-10 41l-1 2v-2h1zM1188 152l-1-3-1-3v-1h1l1 1 1 1c1 1 2 0 2-1l1-1 1-1-1-1v-2-1l2-4h3l2-2h1v2l1-2 1-1 1-1v4c0 1 0 3 2 4v1l-1 3 1 1v3l1-1 2-2h1l-1 2-1 3v3l-1 2-1 2 1 2h2l2-2 1-2 3-3 1 1-1 4v5l1 1-1 4-1 1v1l1 1 1-1 2-2h1l2 5-1 2v2c1 1 0 2-1 2l-1 1v2l1 1v1l-2 1c-1 1-2 3-4 3v2l5-1c1-2 3-3 3-6l2-3 1-1h1v2l1 2v2l-1 4v2l-2 2v2l-1 2v1h1l1-3 1-1c1 1 2 0 3-1l1 1v3l-1 2-1 2v1 2l1 1 3-2 1-1 2 1 1 2c1 1 0 2-1 2v2l-1 1v6l-3 2c-1 1-2 1-2 3l-1 4-1 3-2 3-1 3 1 1 1 1h2l1-1 6-7 3-5 2-2 1 1-1 6-2 4v2c0 2-1 3-2 3l-1 1-1 2v2l-1 1-4 1h-1v1h1c1 1 2 1 2 3l1 1 1-2c1-1 1-2 2-1l1-1 7-9 1-2h2v6l1 1c1 2 0 2-1 3v4l-1 2v3l-2 3-1 1-2 1-1 3v2l-4 1v1l1 2v1h2l2-1 2-1 3-2 1-1 9-9 3-3 1-1 2 2v5l-5 5-1 3 1 1 1-1 1-3 1 1 1 1c0 4 0 7-2 9l-2 2-1 1-2 2v1h1l2-1 1 1-1 4v2l-1 2v1l3-5 1-2h2v6l-1 2 2 1v2l-1 1v2h1v3l-2 1 2 2v3l-2 2-1 2-2-1-2-1-1 2 1 2 2 2v1l-2 1-3-2-1 1v1l1 1v3 3 1l1 2v2h-1v2l-1 3-2 1-1 2-1 1-2 3-2 1v1h-1l-1 3-1 2-2 1-1 2-1 1-2 1-2 2 2 1 1 1v2h-4v1l-2 2h-3l-1 1 1 1c1 1 3 2 5 1 3-2 5-5 6-8l2-3 1 2v1 2h1c0 2 1 1 2 1l4-3 1-1c2-1 3-2 3-4l2-1 2-2 3-3 5-7a33 33 0 0 0 5-12h1v8l-1 3c1 2 0 3-1 5l-1 3-1 4c-2 1-2 3-3 5l-2 4-1 1-1 3 1 2h-2v2c-1 2-2 2-3 2h-1l-1 1v2l-2 3h-1c-2 0-2 0-3 3l-1 1-1-1c-1-1-2-1-2 1l-1 2-1 1h-1v2h-3v-1l-1 1v2c1 1-1 3-3 3-2-1-2-1-2-3v-1l-1 3 1 3-1 1-2-1-1-1-1 1v3l-2 1-1-1v-5h-1v5h-2-2-1l-3-1v-1h-2l-1-1-1-1-2-1h-1c-2-1-2-2-1-4h1l-2-2c-1 0-2 0-2 2l-1 6v21c0 3 0 4-3 4h-1c-2 0-3-1-2-3v-8l-1-5v-8-2c0-2 0-2-2-2h-1l-1-1h-2l-1 1-1 1-3-1h-1l-1-1h-2v-2l2-6 1-1-2-1c-1 1-3 1-3 3l-2 3-2 3-1 2-2 1h-4-1l-1-2-1-1 2-2h-1l-1 1-1-1-1-1v-2l1-1 2-5-2 2-3 4-2 2c-1 1-2 1-2-1l-1-2v-2l-1-1-1 1h-2l-1-1-1 1-1 2-1 1-1-1v-1l-1-1h-1l-1-2 1-1 2-1 1-2h-1l1-2v-2l-1 2h-4l-1-1 1-1-1-2-1-1v-2c-2-1-2-2-1-4l1-1v-2l-1-2c-1-1-2-1-2-3l1-1 4 4 1 1h1l1-1v-2l-1-1c-1-1-1-2-3-2v-2l1-1h-3l-1-1 2-2 1-1v-2l-3-1-4-7 1-6h1c0 3 2 4 3 5l3 3 2 2v-1c1-1 0-2-1-3-1 0-2-1-2-3v-1l-1-4h1l1 1 2 4 2 1 2 1h1c0 2 1 3 3 4l3 2 4 2 5 2 1-2v-1h-1l-2-1c-1-1-1-2-2-1h-2l-1-2v-3l-1-1c-1 1-1 1-2-1h-4-1v-1l2-3h-1l-1 2-1-1-2-2v-1c1-2 0-3-2-3h-3v-2l1-1c0-1 0-2-2-2h-4l-1-2 2-4v-1l-4-1-1-1v-5-1l-2-5 1-1 4 5 1 2 2 1 2 2v1l4 3 2-1-1-1-1-1-4-4v-1l1-1 1 1-2-2v-1c2-1 4-1 5 1l2 1 2-1 2-1h-2l-1-1-1-2-1-1 1-1h4l3 2v-1l-1-1-5-1c-2 0-2-1-1-3v-2l-1-1-2-2v-1l-1-2h-1l-1-2-1-5-1-3-1-1v-3h1l3 3 3 2 5 1 2 1h5l1-1c-1-1 0-2 1-2 2-1 3-1 3 2v2l1 1 4 2 1-1 1-1c1-1 2-2 1-3l1-1 2 2 3 1 1-1-1-1-1-1h-2l-2-2-2-1h-2l-2-1-2-1v-2l-1-3-1-2-1-3v-3l-1-2-2-1-1-2-1-2-1-1-1-1 1-1-1-2h-1l-1-4v-1-1l1-2 2 1 2 2 1 2 3 3 2 1 5 2 7 3h2l-1-2-2-2-2-1v-2l-1-1v-3l2-2h-3v1l-2-1-2-6c0-1 0-2-1-1l-1-2-1-2v-3-1-4-3-1-1l1-1 2 2 1 3 3 3 4 2 4 3h3l2 1h2v-2h-2l-2-1-2-1-1-1c-2 0-2-1-3-2v-1l-1-2-2-3h-1v-2-2l-3-4-1-2c0-2 0-3 2-2l2 2 3 3 1 2v1l3 2c1-1 2 0 2 1l1 1c0 1 1 1 2-1v-2l-2-3-1-2-2-3-1-1-1-2 1-1v-2l-1-1c-1 0-2-1-1-3l-1-1-2-4v-1h3l2 2v1l2 3 3 3 1 1 3 3 3 2h1v-1l-1-1-3-2-4-5-1-2-2-2-1-3-2-1v-1-1-1l-1-1v-2l1-1 2 1 3 5h1l3 2h1c1 1 2 0 2-1l1-1v-1l-3-2-1-1-1-1-1-2-1-2-2-1v-2h1l1-2v-1-4l-1-1s-1 0 0 0l1-3h1l1 2 1 2 1 1 1 1v1l2 3 1 1 1 1 2 2h2l-1-2-2-2-2-2-1-2v-1l-1-3v-1-2l2-1 2 1v1l3 3v-1-1l-2-2h-1zm-28 143l-1-1-3-1h-1l1 1h1l2 1v1l1-1zm88 30h-1l1 1v-1zM998 360l-1-3-1-2v-2h1l1 2 2 1 1-1 2-1v-1l-1-2v-2h1c-1-3 2-3 2-5h1l2 1 2-2h1v2l1-3v-1h1v3c0 2 0 3 2 4l1 1-1 4c0 1 0 0 0 0l1 2v1l1-1 1-2h1v2l-2 3v3l-1 3v1 3h2l3-3 1-1c0-2 1-3 2-3l1 1-1 4v3l1 1v2l-1 3-1 1v1l1 1 2-1 1-2h1l2 5v2 2c1 2 0 3-2 3h-1v3h1v1l-1 2-4 3-1 1h1c1 1 3 1 4-1l4-5 1-3 1-2 2 1v4l1 2-1 4-1 2-1 1-1 3-1 1 1 1 2-2v-1l3-1h2l-1 4-1 2v1l-1 1v3h1l4-1 1-1h1l1 2v3l-1 1v1 5l-1 2-3 2-2 2-1 4v1l-1 3-2 3v4h3l2-1 5-7 3-4 2-2 1 1-1 5-2 4v3l-1 3-2 1v3l-2 1-4 1-1 1 1 1 3 3v1l1-1 1-1c0-1 0-2 2-2h1l7-10 1-2h1v1c1 1 2 3 1 5v1l1 1-1 3h-1v4l-1 2v3l-1 2-2 2h-1c-2 1-2 1-2 3l1 1-1 2h-3l-1 1 1 3 1 1 2-1h2l1-2 3-1 2-2 8-9 3-3 2-1 1 2 1 3c1 1 0 2-1 3l-4 4-1 4 1-1 2-2h1v2c1 3 0 6-2 9l-1 1-2 2-2 1 1 2h1l1-1h1l-1 5v1l-1 2v1h1l3-4v-2l2-1 1 1v5l-1 3h1l1 1-1 2-1 1v1l1 1v3l-1 1 1 1v3l-2 3-1 1h-2l-2-1v3l2 2v2h-2l-2-2-2 1 1 2v7l2 3-1 1-1 1v1c1 2 0 2-1 3l-2 1-1 3v1c-2 0-2 2-3 3l-1 1h-1l-1 1v2l-1 2-2 2-2 1-1 2c-1-1-1 0-2 1l-2 2 3 1v2c-1 1-2 2-3 1l-1 1-2 2h-3c0-1 0 0 0 0v1c2 1 3 3 5 1 3-2 5-4 7-8l1-2c1 0 2 0 1 1v1l1 2v1h2c2 0 3 0 4-2l2-2 3-3 1-2 2-1 4-4 4-7a33 33 0 0 0 5-11l1-1 1 1v4 2l-1 1v4l-1 4-1 1v3c0 1 0 3-2 3l-2 6-2 4-1 1c-2 0-2 1-2 2h1v2l-1 1-1 1c-1 2-1 2-3 2h-1l-1 2v2l-2 2-1 1c-2 0-2 0-2 2l-2 1c-2-1-2-1-3 1v2l-1 1-1-1-1 2h-2-1l-1 1 1 1c0 2-2 4-3 3h-1l-1-2v-1h-1v5l-1 1-2-1v-1l-1 2v2l-2 2c-1 0-2-1-1-2l-1-4s0-1 0 0h-1v1l1 2-1 1h-4v1l-3-2h-2l-2-1-1-1-1-2h-2l-1-3 1-1-2-1c-1-1-1 0-2 1v27c0 4-1 5-4 5l-1-1c-1 0-2-1-2-3v-8-4l-1-9v-2c0-2 0-2-2-1l-1-1-1-1-2 1v1l-2 1-3-1h-1l-1-1-1-1-1-1 2-6 1-2h-2l-3 3-1 2-2 3-2 2c0 1 0 2-2 1l-3 1h-1l-1-1v-1h-1v-2l1-2-1 1h-1-1l-1-1v-3h1l1-1 1-4-2 2-3 4-2 2-2-1-1-3v-2-1l-1 1c-1 2-2 2-2 0l-1-1-2 2v1l-1 1-2-1-1-2h-1l-1-1 1-2h3v-5-2l-1 2h-1l-2 1h-1v-1-2l-1-2-1-3c-2 0-2-1-1-3l1-2 1-2-2-1-2-4h2l4 4v1h2v-1-2l-1-1-2-3-1-1 1-1-1-1-1 1-1-2 1-1 2-2-1-1-2-2h-1l-3-6v-6h1l3 4 3 3 2 3 1-1-1-3-3-3v-1-4-1h1v1l1 1 2 3 1 1c1 2 1 2 2 1l1 1 3 3 4 3 3 2 5 1c1 1 2 0 2-1l-1-1c-2 0-2 0-3-2l-2-1h-2l-1-2v-3l-3-1-1-1-3 1v-1l2-4-1 1-1 1-1 1v-1c0-2-1-2-2-2v-2l-2-2h-2l-1-1-1-1 1-2c1-1 0-2-1-2h-2l-3 1-1-2 1-1 2-4h-1l-4-2v-1l-1-3v-1-2l-1-5v-1h1l4 5v3l2 1 2 1 1 1c1 1 2 3 4 3h2l-1-2h-2l-4-4v-2h1l2 1v-1l-2-1v-2c2-1 3 0 4 1l2 1 3-1h1l-1-1h-1l-1-1c1-1 0-1-1-2v-1-1l4 1 3 1h1v-1l-1-1-6-1-1-2 1-1-1-2h-1l-1-3v-1l-2-1h-1l-1-2v-1l-1-5-1-3-1-1v-2l2-1 2 3 3 3h5l2 1h5l1-1 1-2c3-1 3 0 3 3l1 1 1 2 3 1 2-1 1-1 1-2v-1l3 1 2 1h1v-2h-2l-2-1-1-1-1-1-1-1h-5l-2-2v-1l-1-3-1-2v-3l-1-4-1-1-1-2-2-2-1-2h-1v-2-1l-1-1-1-1-1-3v-2-1l2-1 1 1c1 0 2 0 3 2l1 2 3 3h1l6 2 6 4h2l-1-3-2-1-2-1v-2l-1-1v-3l2-2-1-1-1 1h-3l-1-6-2-2-1-1v-2l-1-3v-2-2-1-1l1-2v-2l-1-1h2l1 2 2 2 2 3 4 3 4 2h3l2 1 1 1 2-1-1-1-2-1h-2l-1-1-2-2-2-1-1-1-1-2a245 245 0 0 1-3-4v-2-2l-3-4-1-2 2-2 3 2 2 4 1 1 1 1c0 2 1 3 3 2l1 1 1 2 2-1v-2l-1-4-2-2-1-2-2-2-1-1 1-2v-1l-1-1-1-3v-2l-3-3 1-2 2 1 2 2h1c0 2 1 3 2 3l2 3 2 2 3 3 3 2 1-1-1-2-3-2-4-5-2-1-1-3-2-2-1-1-1-2h1v-2l-2-1v-2l2-1 1 2 4 4v1l3 1 1 1 2-1 1-1v-1l-3-2-1-2v-1l-1-2-1-1-2-2v-1-1l1-2 1-1-1-4h-1v-1l1-2 1-1 2 3v2l1 1 2 1 2 3v1l2 1c0 2 1 2 2 2l2 1-2-2-2-2-2-3v-1l-1-1v-3-4h3l1 2 2 2h1l-1-1-1-2-2-1zm-28 143l-4-1h-1 1l1 1 2 1h1v-1zm88 30v1h1l-1-1z" fill="#1A2530"/><path d="M1234 359l-2-1v-1l1-1 4 1 2 1h1v-1h-1l-1-1h-2v-1l1-1h-1v-1h-2l-2-1v-1h6l2-1 2 1v1l1-1 2 1v-1 1h5l-1-1-5-1-2-1h-5-1l-1-1 1-1-3-1h-2v-1-1h2l2-1 2-1h2l3-1h1l-1-1-1-1 2-1h1l-1-2-1-1h-2-1v-1l1-1-4-1v-1l-1-1-3-3 1-1 1 1h4l2 1h2l-1-1h-1v-2h3l1-1 1-1h-1v-1h4l1 1v-1l-3-1h-4c0-1 0-1 0 0h-3l-1-1 1-1 4-2-1-1v-2h4l4-1 1-1h-2v-1l-1-1-1-1-2 1h-2-1v-1l1-1-4-1-1-1v-1h6l1-1 3-1h1v-2l-1-3v-1l2-1h4l-1-1h-1l-4 1h-3l-1 1-1-1c-1 0-1 0 0 0l2-2 1-1 1-1 2-2c1-1 1-1-1-2h-3l-4-1v-1h3l2-1c-1 0-2-1-1-2h4l1 1h1l1 1h2l1 1 1-1-2-1-4-1h-1v-1h1l1-1v-1l2-2h-2-4l-1-1h1l3-1h1l-1-2 2-1 1-1h-1l-5-1v-1l4-1h3v-1h-2-1l-1-1 2-2h3l2-1h2v-1h-1-5v-1l2-1 1-1-2-1h-1l-4-1v-1h4l2-1h-1l-1-1 1-1 5 1v1h2v1h2l1-1 1-1h-1l-2-1h-4l-1-1-2-1-2-1-1-1h2l1-1h4l-1-1v-1h1l1 1 1 1h1l2 1h3l1-1-2-1-3-2-1-1-2-1h-1v-1l1-1-2-1-3-1v-1h5l1-1v-1h1l2 1 3 1 4 2h1l-4-3-2-2v-1-1h-3l1-1 2-1h-1l-1-1-2-1v-1h4l-3-1v-1l-1-1h4l3 1v-1-1l-1-1v-1h4v-1h-1l-1-1-2-2-1-1 1-1 1 1h3l2 1 1-1-1-1v-2l-1-2-1-1-2-1 1-1h1l5 1v-1l-1-1-1-2-2-2-1-1v-1h1l1 1 3 2h2v-1l-1-1 1-1v-1l1-1v-1h1l1 2 1 2 1 1 1 1v-1-1l1-1-2-2v-1l-1-1-2-2-1-1v-1h1l2 1v1h1v0l1 1v-3-2l1-2v-1l1 1v5h1v3l1-1 1-1 1-1 1-1h1v1l-1 3h-1l-1 2-1 1-1 1 1 2 1-1 1-1 1-1 3-2h2l-1 2v2l-1 2h-1c0 1 0 2-1 1v2h1l1-1h1c2-1 2-1 3 1 0-2 1-2 2-3h1v1l-1 2-1 2v1h1v2l-2 1-1 1h1l3-1 1-1s0-1 0 0h1l-2 5-1 1v1h1l3-2 1-1 1 1-1 1 1 1 2-1 2-1h3v1l-3 2h-1l1 1h1l-1 1-3 1h-1-1v4l1-1 1 1h1l-1 1h4l1 1h-1l-1 2-3 3v1l2 1v3l2 1 1-1h4l-1 1 3 1h3l-1 1-3 1v1h-1l-1 1-2 1-1 1-1 1h2l-2 1v1h1l1 2h1s0 1 0 0h6l1 1 1 1h1l1 1h-1l-3 1h-2v1l1 1 4 1h1v1l-1 1h-5l-1 1-1-1-1 1v1l1 1 1 1v1h4l2 1 2 1h1l-1 1-5 1h-3 1l1 1h1l4 2 1 1 1 1 2 1 1 1-3 2h-1l-1 1v1l1 1h1l-1 1h-1v1l1 1h1l1 2h1l3 1 2 1v1h-3-1l-1 1-1 1-2 1h-5l-2 1 2 1 1 1 3-1 2 1h3v1l-2 1s-1 0 0 0l-1 2 4 1v1l-3 1-1 1 4 2 1 1 1 1h4l1 1 1 1-4 2 1 1h1l2 1 1 1 1 1h-4l-3-1-1-1h-1v1l1 1h2l1 1v1l1 1v2l2 2-1 1 1 1-1 1-2-1h-1-1l-2 2-3 2h5l1 1 2-1h2l1-1h3v1l1 1h1l2 1 1 1-4 1h-7-1l4 1v1l1 1v3h1l5 2h1l1 1-1 1h-6-1l1 2v2l-3 1 1 1-2 1h-1-1l-1 1v1l-1 1 2 1h2l1 1 1 1 1 1 1 1h1l1 1-1 1h-2l-1-1h-2v2h-1c0 1 1 2 2 1h2l3 1 1 1 1 1v1 1l4 1h1c0 1 0 1 0 0l1 1 4 1 1 1h-4l-1 1h-6l-1 1h-2l-1-1-1 1c-1 0 0 0 0 0l1 1h1v1h3l2-1h1l1 1-1 1-4 3 2 1h1l3-1 1 1-3 3h7v3h1l1 1-1 1-2 1-2 1v3l1 2h1l1 1h2l2 1 1 1-1 1-3 1 3 2 2 2 1 1h-1l-5-1v-1h-1v1l-1 1-3-2-4-3-1-1h-1c1 2 1 3 3 3l2 2h-1l-2 1h-1l1 1 2 2 2 1v1h-3-3l-1 1-1 1h-1l-1-1h-1v1 1l1 1v1h-3l-6-1v1h-1l-2 1h-2l1 1v1l-1 1-1-1h-1v1l-1 1-3-1v1h-1-1l-1 1h-1l-2-1h-3-3l-1 1-1-1-1-1v-2l-1 1v3h-1l-1-1h-1c-1 4-8-1-11-2v15h-2l-2 1-4-15-2 1-3-2v-2-1l-1 1v1l-2 1-2 1h1-1l-1 1-2-1-1-1h-2l-1 2h-2v-1-1h-1l-2 1-1 1-1-1-2-2-2 1h-4-1v-2h1v-1h-1-1l-1 1h-1l-1-1-9 1h-1v-1l3-2 2-1h1l-1-1-1-1v-1h-1c-1 1 0 2-1 1l-3 4h-1l-1-2h-1l-2 1-3 1h-1v-1l2-2 1-1h-2v-2l3-2h2l1 1 1-1 1-1h-3-1l-3 1h-2l-1 1h-3c-2 1-2 0-2-1h1-2l-2-1-1-1h-2v-1h2l2-1h1l-1-3 1-1h0l-1-1-1-1v-1l2-1 2-1h-1l-4-2-1-1 1-1h4l1 1 1-1-1-1 1-1 3 1h4l-2-3-1-1 1-1h9l-1-1-2-1-3 1-1-1h-1-3v-1l1-1v-1-1h1l1-1v-1h2l1-1h-4l-1-1 2-1 3-1 1-1 1-1h-1-1l-2 1h-1v-1l2-2-4-1-3-1-1-1 1-1h4l1-1h1l1-1h1l1-1v-1h-1l-2-2-1-1v-1h1l3 1 1 1 1 1h1l-2-1zM166 303l1 3v3 3l-1 2h-2l-1-1-1-2-2 1v3l3 2v1l1 3 1 1 8-1 4 1 1-1 2 1 1 1v2c-2 1-3 2-3 4l-2 3v8l-1 1v-1l-4-1-1-1-1-2-2 1h-1l-1 1-1-1v-1c0-2-1-3-2-3h-4-1l1 1 1 1v1l-1 1-1 3 2 4 1 2v2l-1 1c0 2-1 2-2 3h-2l-2-1-3-1c-1 0-2 0-3-2l-1-1-2-1h-1l-1 1h-2l-1-1-3-2-1-1-1-1v3h-1l-2-1-2-2-1-1-1-3-1-2-1-1-1-2h-1v3l6 10 1 2 2 3a481 481 0 0 0 1 2l-4 1-4-1-1-1-1-1-1-2-2-1v1l-1-1-1-1-1-2-1-2-1-2c-1-1-2-2-3-1h-1l-3-2-3-1-1-1v4c0 1 0 2-2 2l-8-1-1 1c0 2-1 2-2 3h-1l-1-2-1-1-1-2h-1c-2 1-2 1-2-1h-1l1 3v1l-1 1h-3l-1-1-1-1-1 2-1 2h-6l-1-1c0-1-1-2-2-1l-1-3v-3l-1-3h-1l-2 2-1 2v1h-4l-1 1 1 2-1 1c-2 0-2 1-3 2v1c0 1-1 2-3 2-1 0-2-1-2-3 1-3 0-4-2-6l-1 3h-1l-1 1v-1l-1-2c-2 1-4 2-5 5h-1l-2-4-1-1h-1l-1-1 1-4-1-1-2-2-1-1-2 2h-2l-1-1 1-2 1-1h-1l-2 1h-2l-3-1v-1-1-1h-2l-1-1v-2l1-1 1-2 1-2 5-1h1c2 0 5 0 8 2s3 1 5-1c2-1 3-2 3-4v-1-1l-1-1-3-1-1 1v1l-3 1c-2-2-2-2-4-1l-2 2h-1v-3l2-2v-2h-4l-1-2c0-2 1-3 2-3h6l3 1h8l1-1c0-2 0-2 2-3l1-1 3-2 1-2v-1-4l-1-1h-1l-1 1h-1l-3-3h-1v1l-1 1h-4l-1-1v-2-3l1-2 1-1 2-1v-1h-1l-2 1h-8v-3l1-2 2-1h6l1-2-2-4c-1-2 0-3 1-4l2-2c0-1 1-2 3-2l3-1-1-1v-1l2-2 1-2 5-4v-1-1c-1 0-3 0-3 2l-4 4-1 1h-1l-1-2 1-1-1-1c-1-1-2 0-2 1l-2 2-1-1-2-4v-1l4-2 8-2h3l2-1 3-1h2l1-1-2-4-1-1-1 1-2 3c-1 2-2 2-3 0l-1-1-1-2-1-1-3-1v-1l1-1 4-3c2-1 3-2 5-1l2 1h2l1-2v-2-2l1-2h2l1-1-1-1v-1l1-2-1-1h-1l-3 1-1-1 1-3v-1l-3 2-2 1h-1l-3-2-1-1 1-2 1-1 5-1 4-1 4-1h2l1-1 1-1h-1-1l-1-2 4-4 2-2v-1-1l-3 1-1 1-2 1-1-3-1-3v-1l-2 1h-3l-1-1c0-2-1-2-2-2l-2-1v-2c0-2 2-2 3-2h3v-3c2-1 3-2 3-4l1-2-1 1h-3l-2-1-3-1-1-1v-1c1-3 2-3 4-3h3l5 1 1-1c1-2 1-4 3-5v-2c1-2 0-4-1-5l-1-3 1-1c2 1 3-1 4-1l1-1 3-2-5-2h-1l-3-2-1-2 1-1 4-2 2 1h1c0-2 1-3 3-3l3-2 2-1 1-2v-4l-2-2-1-1v-2-1c1-2 1-3 3-3s4 0 5 2l2 1 3 1 1 1 2 3 1-1v-1l-2-4-2-3-5-7h-1c-2-2-2-4-1-6 0-2 2-2 2-1l2 2 1 1 5 5v1h1v-1l-2-2v-2l-1-3-1-2-1-5v-3c2 0 3 0 3 2l1 3v-3-5-7l1-4 1-1c2 0 3 1 3 4v12l1 1 2 1 1 2-1 4h1l4-4 1-2 1-2c1-1 2 0 3 1v1l-1 3-3 4v1l-2 2-1 3v1h1l3-4 1-1c1-1 2-1 3 1v4l-3 3-2 1-2 2-1 1h1l3-1h2c1-1 2 0 2 2v3l1 1-1 2h-2l-1 2h9c2 1 3 3 3 5v2l-2 1-2-1h-2l-2 1v1l4 2h1c1 1 3 2 4 1 2 0 3 1 4 3v3l-1 3-2 2h-5v1h5l2-1 2-1 4-1 3 1 1 2-1 2c-1 1-2 2-1 3v1l-1 1h-2l-1 1v2h-1l-1 1 1 1h3l3-1 1-1c1-1 2 0 2 2l1 2v2l-2 1 1 2 2 1v2l-1 2h-3c-1 0-2 1-1 2v1l-1 1-2 2-2 1-1 1c0 2 1 2 2 2h2l3 1 3 2 2-1 3 2v3h-2l-3 3c0 1 0 2-2 1l-1 1-2-1h-1l-1 1 2 4v2l1 1 6 1v6l-2 1h-4v1l1 1v3c-1 1-2 1-1 2l1 7 3 2h9l3 1 1 1h1c1-1 2 0 2 1v1l-2 3-3 1-1 1c0 3 0 3-3 2l-3-1-1 1c-1 2-1 2 1 3h10l1 1c2 0 2 0 1 2l1 2v2c0 2-1 2-2 2h-1v1l1 1c2 0 2 1 2 2v1l1 3h2l1 2c1 1 0 3-1 3l-2 1v1h4c2 1 3 2 3 5v3l1 3-1 1-2 1-2-1h-1l-1 1c0 3 1 6 3 8l2 1 1 1-1 2h-3l-4-2-1-1h-1l1 2v1l-2 2-1 1 1 1 2-1h12l4 1h2c1 0 2 0 2 2l-1 3-2 1h-2l-1 2v1l-1 2-1-2zM497 284h-3l-1-3-2-3-1-2c0-1 1-2 2-1l3-1 1-1 2-2 1-1 2 2h1l1-1h1c0 2 2 2 3 2l3 1h4l2-1-3-2-1-2 1-1 1-2-1-1v-1-1l4 1h8l1-2v-1h-1l-1 1-1-1v-2-2l-1 1h-2-1l-1-1-1-2-2 1h-1v-1-1-1l-1-5h-2l-2 1v-1-4-2l1-1h2c1-1 1 0 2 1l1 1 1 2c1 1 2 1 2 3h6l7 4h1v-1l-4-6-1-1-2-1h-1l-1-2 1-2-1-1-1-1-2-1s-1 0 0 0v-3-1l2-1s0 1 0 0l2-1v-1l-1-1v-4l-1-1v1h-2l-1-1v-1l2-1-1-1c-1 0-2-1-1-2l-1-1v-1-3-3h1l1-1v-1l-1-1h2l1 1 3 3 1 2 2 1 1 2 1 1 2 1 2 1 2 1 3 1h2c0 1 0 1 0 0 1 0 0 0 0 0v-1h-2-1v-1-3l-1-1h-1l-1-3-1-1-3-5v-1c-1 0-2-1-1-2v-1l-1-2-1-1-1-1v-1c0-3 0-3 1-2h1c2-1 2 0 3 1l1 1v-3l-3-5v-2h2c2 0 2 2 3 3l2 2c1 1 1 0 2-1h-1l1-1 3 2c1 2 4 3 6 4h2l1 1v-1-1l-1 1-1-1-2-1-1-1-1-1c0-2-1-2-2-3l-2-1-2-1c-1 1-1 0-1-1v-1c1-1 0-2-1-2v-2-4h1l2 2 2 1 3 2h1v-1c0-1 0-3-2-3l-2-6 1-3h2c1 1 1 0 1-1v-1h1l2 1 2 3v1c2 1 2 2 2 3l1 1v-5l-1-1-1-3v-6-2h-1v-1-3l-1-2h1l2 1h2v-4l-1-1 1-2h1l2 2 1 1c1 2 1 2 3 1l-1-3-2-4 1-1h1v-1l-1-1v-3h1c2 1 2 0 3-2v-1l1 1v3h1v3l1-1 1 2c2 3 0 4-1 7v3h1l1-2 1-2v2l-1 2v1h1v-1l2 1v3l-1 2-3 2h-1v6c-2 1-2 2-2 3l1 1 1-1 1-2 2-1v4 1l1-1 2-1 1 1-1 1-2 3-2 2 4-3 3-4 2 1 1 2v3l-1 1-2-1h-2v2l3 2v2l-2 1-1-1h-1l1 1v2l-2 2h1l3-1 3-1 2-2 2-1h3a202 202 0 0 0 6-3v1l-3 4-3 2v2h1l-1 2-3 1v1l2-1 1-1 1 1v3l-3 2v1c-1 2-2 3-4 3l-1 1h1l7-4 2-1 1 1h1l1 1-1 1v1l3-1v1c-2 3-2 3-5 3l-1 1-1 1-1 1c0 2-1 2-2 2l-3-2 1 4-1 1-3 1-2-1-2-1v1l-1 2-2 2h-1v2c-1 1-2 1-1 2h3c0-2 1-2 2-2l2-1 1-1 4-3h1l2 2v5l-1 1-1 1 1 2 3-1 2-1h1l1 2-1 2-1 1h4v-2-2-1h7l2 3v2l-2 3h-1l1 3c1-2 1-2 3-2l3-1h1l2-1 2-1 1 1c0 3-1 5-3 6-1 1-2 1-2 3h-2l-1 2c0 2 0 2-2 0v1l-1 2h-1l-1-1v-2h-1v7l-1 1v3l1 1c2 2 2 2 3 1l2-3c1-1 2-2 3-1v1l-1 1 1 2h1l3-3h1l2 2 1 2v2l-1 1-1 1c1 1 0 2-1 2l-1 2-1 1-1 2-1 1v-1h-1l-2 1-1-1v-1h-1c-2 3-2 3-4 2v2h-1l-2 2-1 1v1h4c1-3 2-3 4-3h2c1 0 3 0 3-2l3-1 1-1 1-2h1l2 1c1 1 1 1 2-1l1-1h2l2-1h1v3h-1l-1 4v1l-1 1-3 4-1-1-1-1-1 4v1h1l1-1 4-3c2 0 2 0 3 2l-2 1v3l-1 1h-1l-1 1v2l1 1 1-1 1-2 2-1c1 1 2 0 3-2 0-2 0-2 2 0l3 1h1v1l-1 1 2 3v2l-1 3c-1 1-2 2-3 1h-1v1h-1v-2h-1l-1 2v2h-1-1l-1-5-1 6v2h-3v-2l-2-1h-1-1v8h-1l-1-2-1 1-2-1-1-1h-2l-1 1-1 1h-1c-1 1-2 0-2-1l-2-1v1l1 5-1 1-1 2v1l-2 1-2-2v3h1l8-2h1l7-3 3-1h1l3-1 1-1 2-1c2 1 2 2 2 3l-1 3v5l4 1 2 2-1 2-2 1v2h3c1-1 1 0 1 1l1 1-1 2v1l-1 1h2l3-1 2-1h2l3-2h1l2-1 1-1 1 1 1 1-1 1v1c1 2-1 3-1 4h-1c-1-1-2 0-3 1l-1 2v1c-2 0-2 0-1 1l1 3v1h-1c-2-1-2-1-3 1l-2-3-1 1c-1 2-1 2-2 0h-1l-1-2-2 1v2h-1l-1-2-2-1v1h-2v-2h-1v2l-2 1h-2c0 1 0 2 1 1h2l2 1 4 2 1 1-2 2v1l-1 1h1l4-1 6-2 5-2 2-1 1-1 1-1c1-1 2-1 2 1l1 4v2l-1 3c-1 2-1 3-3 3l-1 1-1 2v2c0 2-2 2-3 3l-1 1 1 1-1 1 2 2-1 2-1 1-3 1-3-1v1 1c0 1 0 2-2 3l-2 2-1 1 3 1h1v3l-1 2-2 3v2l-1 1-1-1-1-1-1 3-2 1h-3v1l-2 1h-3l-1-1h-11v1l-2 1-2 2-2 1-1-1v-1l1-1h-3-1c-1 2-2 2-3 2v-1l-2-3v-2h1v-1l-2 1-1 1h-1l-1-1h-7l-1 2h-1l-1-1-1-1-1 2v1l1 2v4a58 58 0 0 0 0 7v13h-10v-4-10-2-4-5-2l-1-1h-2-1l-1 4v1c-1 1-1 2-2 1h-1-2v-1l-1-2h-1l-1 2v1l-1-1-1 1-3 1-1-3v-1-1h-2-1v1l-1 1h-1c-1 1-2 0-2-1l-1-1c-1 0-1-2-2-1l-4-3v-1h-2l-3-2h-2l-2-3 1-1v-1l-2-1h-1l-1-2v-1-1l-1 1h-1c0 1 0 1 0 0l-3-1v-1l2-1 1-2 1-2-2 1h-3l-2-1v-1l-1-1-1-1-1-1-3-3-1-1 1-2 4-2 2-2v-1l2-1 1-1v-1l-3 1c-2 0-2 0-2-2 0 0 0-1 0 0l-4 1-1 2-1 2h-2v-1-3l2-1v-2l-2-2-1 1-1 1v1c-2-1-2 0-2 1l-1 1v-1l-3-2h-1l-1-4h-2l-1 1h-1v-1h-1l-2 1h-1v-1l1-1c2-1 2-2 0-3v-1c1-1 0-1-1-2v-1c-2 0-2-2-2-3-1-1 0-2 1-2l1-1 1-1 1 1 2 2 2 1v-3l-1-1-2-3-1-2-1 1v1h-2l-1-1-1-1 1-1h1l1-2-1-4v-1h1l1 2 1 1c1 1 2 2 3 1l1 1 1 1h1v-1l-2-2-1-1-1-1v-1c-1-2-2-2-3-2h-1l1-1 1-1 1-1h-1v-2h2v-1h-1v-1-1h1l2 1c1 0 2 0 3 2h2c2 0 3-1 5-3v-1h1v3l1 1 2 1 4 1v-1-1l-2-2-1-2-1-2-1-1h-1l-1-2-1-3 1-2 1-1 2 1v1l2 1 1 1 1 1 2-2 1-2h-1l-1-2h-1-1l-2-1v-1l-1-3v-1c0 1 0 0 0 0l1-1v-1h-1v2zm99-51l-3-1c-2-1-3 0-3 1l-1 1h-2l-1 3v1h1l4-2 4-1 1-2zm-2 17v-1h-1l1 1z" fill="#1A2530"/><path d="M592 349h-3l-1-3-2-2-1-3 1-1 4-1 1-1 2-2 1-1 2 2h1l1-1h1c0 2 1 2 2 2l3 1h4l3-1-3-2-1-2 1-1 1-2-2-1v-1h13l1-1v-2h-1l-1 1c-1 1-1 0-1-1v-2-2l-2 1-1 1-1-1-1-1-1-2-3 1v-1-1-1l-1-5h-2l-2 1h-1v-1c2-1 1-2 1-4v-2l1-1h1c1-1 2 0 3 1l1 1 1 2 2 3h6l7 4v-1l-3-6-1-1c-1 1-2 0-3-1l-1-2v-2-1c-1 1-1-1-1-1h-2l-1-1 1-3v-1l1-1 1 1 2-2v-1l-1-1-1-3v-2 1h-2l-1-1h-1l1-1 1-1h1l-2-1-1-2v-1-1-3l-1-1 1-2h1v-1-1-1h2l1 1 2 4 2 1 2 1 1 2 1 1 1 1 3 1 2 2h3l1 1h1v-1l-1-1h-1-1l-1-1 1-3-1-1h-1-1v-2l-1-1v-1l-3-5-1-1v-2l-1-1v-2l-1-1-1-1v-1l1-2h1c1-1 2 0 3 1l1 1v-3c-2-1-2-3-3-5v-2h2l3 3 2 2h1v-1l1-1 2 2 7 4h2l1 1v-1-1l-1 1-2-1-1-1-1-1-1-1-2-3-2-1h-2l-1-2v-1l-1-2-1-1v-2l1-2c0-1 0-2 1-1l2 2 2 1 3 2 1-1-2-3-2-5 1-4h3v-2h1l2 1 2 4 2 3v1h1v-5l-1-1-1-3v-6-2h-1v-1-3l-1-2 3 1h2v-4l-1-1 1-2 1 1c1-1 2 0 2 1l1 1c1 2 1 2 3 1l-1-3-2-3v-1l1-1h1v-1l-1-1v-3h1c2 1 2 0 2-1l1-1v-1l1 1v1 2h1v3h1c1-1 1 0 1 1 1 3 0 5-1 7v1l-1 2h1c0 1 0 0 0 0l2-2 1-2v2l-1 2v1h1v-1l1 1v6l-3 1h-1l-1 1 1 2v1c1 1 1 1-1 2l-1 3 1 1 1-1 1-2 1-1 1 1v2l-1 1v1h1l1-1 2-1 1 1-1 2-2 2-2 2 4-3 3-4 2 1 1 2v1l-1 2v1l-2-1h-2v2l2 2 1 1v1l-2 1-1-1h-1v3l-1 2 4-1 3-1 2-2 2-1h3c2 0 3-1 4-3h1l1 1-3 4-3 2v2h1l-1 2-3 1v1c0 1 0 1 0 0l2-1h2v3l-3 3h-1c0 2-2 3-3 4h-1v1l1-1 7-4 2-1 1 1h1v3h3c0-1 0 0 0 0-2 3-2 3-5 3l-1 1-1 1-1 1-2 2-3-2v5l-3 1c-1 1-2 0-3-1l-1-1v1l-1 2-2 2-1 1-1 1-1 2h4c0-2 1-2 2-2l2-1v-1l5-3 1 1 2 1v4 1l-1 2h-1l1 2 3-1 2-1h1l1 2-1 3h-1 4v-2-3h7l2 4v2l-3 2v3h1c1-2 1-2 3-2 1 1 2 0 3-1h1l2-1 1-1c1-1 2 0 2 1-1 3-1 5-3 6-1 1-2 1-2 3h-2l-1 1v1c0 2 0 2-2 0v1l-1 2h-1l-1-1v-2h-1v7l-1 1v3l1 1c2 2 1 2 3 1l2-3 3-1v2h-1l1 2h1c1-1 2-1 2-3h2l1 2 2 2v2l-1 1-1 1-1 3-1 1-1 1-1 2-1 1-1-1-2 1h-1v-2h-1-1c-1 3-1 3-3 2l-1 2v1l-2 1-1 1v1h4c0-3 2-3 4-3h2l3-1 2-2c1 1 2 0 2-1l1-2h1l1 1h2l2-2h2l2-1h1v3h-1l-1 4v1l-2 1-2 4h-1l-1-2-1 4v1c0 1 0 0 0 0l2-1 4-2v-1c2 0 2 0 3 2l-2 1v3l-1 1h-1l-1 1v2l1 1 1-1 1-2 1-1c2 1 3 0 3-1 1-2 1-3 3-1l3 1h1l-1 2 2 3v2l-2 3c0 1-1 2-2 1h-1l-1 1v-2h-1l-1 2v2l-1 1-1-1-1-5-1 6v2h-3l-1-1-1-2h-1-1v8h-1-1v-2l-2 1-1-1-1-1h-3v1l-1 1h-1c-1 1-2 0-2-1l-2-1v1l1 5-1 1-1 2v1l-2 1-2-2v3h1l8-2h1l7-3 3-1h1c1 1 1 0 2-1l2-1 2-1c1 1 2 2 1 4v7c2 0 3 0 4 2l1 1v2l-2 1v2h3l1 1v3l-1 1v1h1l3-1 2-1h2c2 0 3 0 3-2h2l2-1h2v3l-1 4h-1c-1-1-2 0-3 1l-1 2-1 1v5c-2-1-2-1-4 1l-1-2h-1c-1 2-1 2-2 1l-1-1-1-2-2 2v1h-2v-2h-2-1-1v-2h-1v2l-2 1c-1-1-2 0-2 1h3l2 1 3 2h1l1 1v1c-1 0-2 0-2 2l-1 1h1l4-1 6-2 4-2 3-1h1l1-2c1-1 2-1 2 1l1 4v2l-1 3-3 3-1 1-1 2-1 2c0 2-1 2-2 3l-1 1v2s-1 0 0 0l1 2v2l-1 1-3 1h-3-1v1l-1 3-2 2-2 2h4l1 3-1 2-2 3v2l-1 1h-1l-1-2-2 3-1 1h-3v1l-3 1h-3l-1-1-2 1-3-1-5 1-2 1-2 2-2 1-1-1v-1-1h1-3l-1 1-3 1v-1l-3-3v-2h2v-1l-2 1-1 1h-1l-2-1h-6l-1 2h-1l-1-1h-1l-1 1v3l1 4a58 58 0 0 0 0 7v13h-11v-3l1-10v-3-4-5l-1-2-1-1h-2l-1 4v1c-1 1-1 2-2 1h-3v-1l-1-2h-1l-1 2v1l-1-1-1 1-3 1-1-3v-1-1h-2l-1 1-1 1h-4v-2l-3-1-3-3-2-1-3-1-2-1c-1 0-2-1-2-3l1-1v-1l-2-1h-1l-1-2v-2l-1 1h-1l-1 1-2-2v-1l2-1 1-2v-2l-1 1h-5v-2l-2-1-1-1-1-1-2-3-1-1 1-2 4-2 2-2v-1l2-1 1-1v-1l-3 1h-1l-1-2h-1l-3 1-1 2-2 2h-1v-1-3l2-1v-2l-2-2c-1-1-1 0-1 1l-1 1-1 1c-1-1-1 0-2 1v1l-1-1-2-2h-1l-1-4h-2l-1 1h-1l-1-1h-1l-1 1h-1v-1l1-1v-3-1l-1-2-1-1-1-3v-2l2-1 1-1 1 1 2 2 2 1v-2l-1-2-2-3-1-2-1 1-1 1h-1l-1-1-1-1h1v-1l2-2-1-4v-1h1l1 2 1 1c1 1 1 2 3 1l1 1v1h1v-1l-1-2-1-1-1-1-1-1-2-1-1-1v-1h2v-2-2h2l-1-1v-1-1h1l2 1 3 2h2c2 0 3-1 4-3l1-1h1v4l3 1 4 1v-1-1l-2-2-1-2-2-2c0-1 0-1 0 0l-1-1-1-2-1-3 1-2 1-1 2 1v1l2 1 1 1 1 1 2-1 1-2-1-1-2-2h-1l-2-1v-1c-1 0-2-1-1-3v-1c0 1 0 1 0 0l1-1-1-1v2zm99-51l-4-1c-1-1-2 0-3 1v1h-1l-1 1-1 2v1l5-2 4-1 1-2zm-2 17v-1l-1 1h1z" fill="#1A2530"/></svg>