<svg width="1354" height="1051" viewBox="0 0 1354 1051" fill="none" xmlns="http://www.w3.org/2000/svg">
<mask id="mask0" mask-type="alpha" maskUnits="userSpaceOnUse" x="0" y="0" width="1354" height="1051">
<rect x="0.366699" y="0.205078" width="1352.64" height="1049.87" fill="#324565"/>
</mask>
<g mask="url(#mask0)">
<rect x="0.366699" y="0.205078" width="1352.64" height="1049.87" fill="#1F3966"/>
<ellipse cx="676.687" cy="589.715" rx="964.971" ry="589.51" fill="url(#paint0_radial)" fill-opacity="0.6"/>
<ellipse cx="114.123" cy="69.6157" rx="1.19079" ry="1.35278" fill="white"/>
<ellipse cx="293.904" cy="406.589" rx="2.57902" ry="2.92986" fill="white"/>
<ellipse cx="693.416" cy="36.9394" rx="2.57902" ry="2.92986" fill="white"/>
<g filter="url(#filter0_d)">
<ellipse cx="614.253" cy="236.911" rx="2" ry="2.27207" fill="white"/>
</g>
<ellipse cx="1176.86" cy="130.235" rx="1.78618" ry="2.02917" fill="white"/>
<ellipse cx="1195.46" cy="54.0656" rx="2.57902" ry="2.92986" fill="white"/>
<ellipse cx="991.802" cy="284.91" rx="1.19079" ry="1.35278" fill="white"/>
<ellipse cx="1188.09" cy="411.161" rx="1.78618" ry="2.02917" fill="white"/>
<ellipse cx="194.662" cy="121.145" rx="2.57902" ry="2.92986" fill="white"/>
<ellipse cx="325.494" cy="43.9255" rx="1.19079" ry="1.35278" fill="white"/>
<ellipse cx="33.3189" cy="251.022" rx="2.57902" ry="2.92986" fill="white"/>
<ellipse cx="977.326" cy="41.8221" rx="0.580031" ry="0.676389" fill="white"/>
<ellipse cx="841.643" cy="150.29" rx="0.580031" ry="0.676389" fill="white"/>
<ellipse cx="377.417" cy="239.602" rx="1.19079" ry="1.35278" fill="white"/>
<ellipse cx="484.207" cy="112.088" rx="1.19079" ry="1.35278" fill="white"/>
<ellipse cx="139.404" cy="304.255" rx="2" ry="2.27207" fill="white"/>
<ellipse cx="998.857" cy="175.223" rx="2.57902" ry="2.92986" transform="rotate(-180 998.857 175.223)" fill="white"/>
<ellipse cx="54.854" cy="384.422" rx="0.580031" ry="0.676389" transform="rotate(-180 54.854 384.422)" fill="white"/>
<ellipse cx="190.533" cy="275.954" rx="0.580031" ry="0.676389" transform="rotate(-180 190.533 275.954)" fill="white"/>
<ellipse cx="88.2344" cy="167.133" rx="0.580031" ry="0.676389" transform="rotate(-180 88.2344 167.133)" fill="white"/>
<ellipse cx="149.614" cy="180.868" rx="0.580031" ry="0.676389" transform="rotate(-180 149.614 180.868)" fill="white"/>
<ellipse cx="139.387" cy="77.3297" rx="0.580031" ry="0.676389" transform="rotate(-180 139.387 77.3297)" fill="white"/>
<ellipse cx="277.023" cy="40.3514" rx="0.580031" ry="0.676389" transform="rotate(-180 277.023 40.3514)" fill="white"/>
<ellipse cx="423.964" cy="181.924" rx="0.580031" ry="0.676389" transform="rotate(-180 423.964 181.924)" fill="white"/>
<ellipse cx="286.328" cy="244.259" rx="0.580031" ry="0.676389" transform="rotate(-180 286.328 244.259)" fill="white"/>
<ellipse cx="285.392" cy="137.551" rx="0.580031" ry="0.676389" transform="rotate(-180 285.392 137.551)" fill="white"/>
<ellipse cx="42.6669" cy="59.3693" rx="0.580031" ry="0.676389" transform="rotate(-180 42.6669 59.3693)" fill="white"/>
<ellipse cx="26.8558" cy="423.507" rx="0.580031" ry="0.676389" transform="rotate(-180 26.8558 423.507)" fill="white"/>
<ellipse cx="16.6259" cy="319.969" rx="0.580031" ry="0.676389" transform="rotate(-180 16.6259 319.969)" fill="white"/>
<ellipse cx="154.266" cy="282.992" rx="0.580031" ry="0.676389" transform="rotate(-180 154.266 282.992)" fill="white"/>
<ellipse cx="301.206" cy="424.564" rx="0.580031" ry="0.676389" transform="rotate(-180 301.206 424.564)" fill="white"/>
<ellipse cx="163.563" cy="486.898" rx="0.580031" ry="0.676389" transform="rotate(-180 163.563 486.898)" fill="white"/>
<ellipse cx="162.634" cy="380.191" rx="0.580031" ry="0.676389" transform="rotate(-180 162.634 380.191)" fill="white"/>
<ellipse cx="453.728" cy="186.849" rx="0.580031" ry="0.676389" transform="rotate(-180 453.728 186.849)" fill="white"/>
<ellipse cx="443.495" cy="83.3102" rx="0.580031" ry="0.676389" transform="rotate(-180 443.495 83.3102)" fill="white"/>
<ellipse cx="581.136" cy="46.3324" rx="0.580031" ry="0.676389" transform="rotate(-180 581.136 46.3324)" fill="white"/>
<ellipse cx="728.072" cy="187.905" rx="0.580031" ry="0.676389" transform="rotate(-180 728.072 187.905)" fill="white"/>
<ellipse cx="590.436" cy="250.239" rx="0.580031" ry="0.676389" transform="rotate(-180 590.436 250.239)" fill="white"/>
<ellipse cx="589.506" cy="143.532" rx="0.580031" ry="0.676389" transform="rotate(-180 589.506 143.532)" fill="white"/>
<ellipse cx="346.778" cy="65.3497" rx="0.580031" ry="0.676389" transform="rotate(-180 346.778 65.3497)" fill="white"/>
<ellipse cx="305.858" cy="76.9711" rx="0.580031" ry="0.676389" transform="rotate(-180 305.858 76.9711)" fill="white"/>
<ellipse cx="580.207" cy="78.0277" rx="0.580031" ry="0.676389" transform="rotate(-180 580.207 78.0277)" fill="white"/>
<ellipse cx="442.566" cy="140.362" rx="0.580031" ry="0.676389" transform="rotate(-180 442.566 140.362)" fill="white"/>
<ellipse cx="441.637" cy="33.6539" rx="0.580031" ry="0.676389" transform="rotate(-180 441.637 33.6539)" fill="white"/>
<ellipse cx="83.054" cy="132.561" rx="0.580031" ry="0.676389" transform="rotate(-180 83.054 132.561)" fill="white"/>
<ellipse cx="72.8244" cy="29.0228" rx="0.580031" ry="0.676389" transform="rotate(-180 72.8244 29.0228)" fill="white"/>
<ellipse cx="357.408" cy="133.618" rx="0.580031" ry="0.676389" transform="rotate(-180 357.408 133.618)" fill="white"/>
<ellipse cx="219.765" cy="195.952" rx="0.580031" ry="0.676389" transform="rotate(-180 219.765 195.952)" fill="white"/>
<ellipse cx="218.836" cy="89.244" rx="0.580031" ry="0.676389" transform="rotate(-180 218.836 89.244)" fill="white"/>
<ellipse cx="240.392" cy="350.495" rx="0.580031" ry="0.676389" transform="rotate(-180 240.392 350.495)" fill="white"/>
<ellipse cx="230.16" cy="246.956" rx="0.580031" ry="0.676389" transform="rotate(-180 230.16 246.956)" fill="white"/>
<ellipse cx="367.803" cy="209.978" rx="0.580031" ry="0.676389" transform="rotate(-180 367.803 209.978)" fill="white"/>
<ellipse cx="514.736" cy="351.551" rx="0.580031" ry="0.676389" transform="rotate(-180 514.736 351.551)" fill="white"/>
<ellipse cx="377.1" cy="413.885" rx="0.580031" ry="0.676389" transform="rotate(-180 377.1 413.885)" fill="white"/>
<ellipse cx="376.17" cy="307.178" rx="0.580031" ry="0.676389" transform="rotate(-180 376.17 307.178)" fill="white"/>
<ellipse cx="133.439" cy="228.996" rx="0.580031" ry="0.676389" transform="rotate(-180 133.439 228.996)" fill="white"/>
<ellipse cx="325.388" cy="418.112" rx="0.580031" ry="0.676389" transform="rotate(-180 325.388 418.112)" fill="white"/>
<ellipse cx="315.155" cy="314.573" rx="0.580031" ry="0.676389" transform="rotate(-180 315.155 314.573)" fill="white"/>
<ellipse cx="452.798" cy="277.595" rx="0.580031" ry="0.676389" transform="rotate(-180 452.798 277.595)" fill="white"/>
<ellipse cx="599.737" cy="419.168" rx="0.580031" ry="0.676389" transform="rotate(-180 599.737 419.168)" fill="white"/>
<ellipse cx="462.096" cy="481.502" rx="0.580031" ry="0.676389" transform="rotate(-180 462.096 481.502)" fill="white"/>
<ellipse cx="461.167" cy="374.795" rx="0.580031" ry="0.676389" transform="rotate(-180 461.167 374.795)" fill="white"/>
<ellipse cx="218.432" cy="296.612" rx="0.580031" ry="0.676389" transform="rotate(-180 218.432 296.612)" fill="white"/>
<ellipse cx="386.962" cy="343.188" rx="0.580031" ry="0.676389" transform="rotate(-180 386.962 343.188)" fill="white"/>
<ellipse cx="376.735" cy="239.65" rx="0.580031" ry="0.676389" transform="rotate(-180 376.735 239.65)" fill="white"/>
<ellipse cx="514.372" cy="202.672" rx="0.580031" ry="0.676389" transform="rotate(-180 514.372 202.672)" fill="white"/>
<ellipse cx="661.313" cy="344.245" rx="0.580031" ry="0.676389" transform="rotate(-180 661.313 344.245)" fill="white"/>
<ellipse cx="523.674" cy="406.579" rx="0.580031" ry="0.676389" transform="rotate(-180 523.674 406.579)" fill="white"/>
<ellipse cx="522.747" cy="299.871" rx="0.580031" ry="0.676389" transform="rotate(-180 522.747 299.871)" fill="white"/>
<ellipse cx="280.012" cy="221.689" rx="0.580031" ry="0.676389" transform="rotate(-180 280.012 221.689)" fill="white"/>
<ellipse cx="625.901" cy="261.449" rx="0.580031" ry="0.676389" transform="rotate(-180 625.901 261.449)" fill="white"/>
<ellipse cx="615.668" cy="157.91" rx="0.580031" ry="0.676389" transform="rotate(-180 615.668 157.91)" fill="white"/>
<ellipse cx="753.311" cy="120.932" rx="0.580031" ry="0.676389" transform="rotate(-180 753.311 120.932)" fill="white"/>
<ellipse cx="900.251" cy="262.505" rx="0.580031" ry="0.676389" transform="rotate(-180 900.251 262.505)" fill="white"/>
<ellipse cx="762.609" cy="324.839" rx="0.580031" ry="0.676389" transform="rotate(-180 762.609 324.839)" fill="white"/>
<ellipse cx="761.68" cy="218.132" rx="0.580031" ry="0.676389" transform="rotate(-180 761.68 218.132)" fill="white"/>
<ellipse cx="518.949" cy="139.95" rx="0.580031" ry="0.676389" transform="rotate(-180 518.949 139.95)" fill="white"/>
<ellipse cx="591.761" cy="97.6071" rx="0.580031" ry="0.676389" transform="rotate(-180 591.761 97.6071)" fill="white"/>
<ellipse cx="866.112" cy="98.6637" rx="0.580031" ry="0.676389" transform="rotate(-180 866.112 98.6637)" fill="white"/>
<ellipse cx="728.476" cy="160.998" rx="0.580031" ry="0.676389" transform="rotate(-180 728.476 160.998)" fill="white"/>
<ellipse cx="727.544" cy="54.2902" rx="0.580031" ry="0.676389" transform="rotate(-180 727.544 54.2902)" fill="white"/>
<ellipse cx="980.151" cy="201.591" rx="0.580031" ry="0.676389" transform="rotate(-180 980.151 201.591)" fill="white"/>
<ellipse cx="969.922" cy="98.0524" rx="0.580031" ry="0.676389" transform="rotate(-180 969.922 98.0524)" fill="white"/>
<ellipse cx="1107.56" cy="61.0746" rx="0.580031" ry="0.676389" transform="rotate(-180 1107.56 61.0746)" fill="white"/>
<ellipse cx="1254.5" cy="202.647" rx="0.580031" ry="0.676389" transform="rotate(-180 1254.5 202.647)" fill="white"/>
<ellipse cx="1116.86" cy="264.982" rx="0.580031" ry="0.676389" transform="rotate(-180 1116.86 264.982)" fill="white"/>
<ellipse cx="1115.94" cy="158.274" rx="0.580031" ry="0.676389" transform="rotate(-180 1115.94 158.274)" fill="white"/>
<ellipse cx="873.201" cy="80.0917" rx="0.580031" ry="0.676389" transform="rotate(-180 873.201 80.0917)" fill="white"/>
<ellipse cx="1027.3" cy="110.731" rx="0.580031" ry="0.676389" transform="rotate(-180 1027.3 110.731)" fill="white"/>
<ellipse cx="1017.08" cy="7.19226" rx="0.580031" ry="0.676389" transform="rotate(-180 1017.08 7.19226)" fill="white"/>
<ellipse cx="1301.65" cy="111.787" rx="0.580031" ry="0.676389" transform="rotate(-180 1301.65 111.787)" fill="white"/>
<ellipse cx="1164.02" cy="174.121" rx="0.580031" ry="0.676389" transform="rotate(-180 1164.02 174.121)" fill="white"/>
<ellipse cx="1163.08" cy="67.4137" rx="0.580031" ry="0.676389" transform="rotate(-180 1163.08 67.4137)" fill="white"/>
<ellipse cx="1078.08" cy="295.621" rx="0.580031" ry="0.676389" transform="rotate(-180 1078.08 295.621)" fill="white"/>
<ellipse cx="1067.84" cy="192.082" rx="0.580031" ry="0.676389" transform="rotate(-180 1067.84 192.082)" fill="white"/>
<ellipse cx="1205.49" cy="155.104" rx="0.580031" ry="0.676389" transform="rotate(-180 1205.49 155.104)" fill="white"/>
<ellipse cx="1352.43" cy="296.677" rx="0.580031" ry="0.676389" transform="rotate(-180 1352.43 296.677)" fill="white"/>
<ellipse cx="1214.79" cy="359.011" rx="0.580031" ry="0.676389" transform="rotate(-180 1214.79 359.011)" fill="white"/>
<ellipse cx="1213.86" cy="252.304" rx="0.580031" ry="0.676389" transform="rotate(-180 1213.86 252.304)" fill="white"/>
<ellipse cx="971.128" cy="174.122" rx="0.580031" ry="0.676389" transform="rotate(-180 971.128 174.122)" fill="white"/>
<ellipse cx="920.951" cy="316.751" rx="0.580031" ry="0.676389" transform="rotate(-180 920.951 316.751)" fill="white"/>
<ellipse cx="910.72" cy="213.213" rx="0.580031" ry="0.676389" transform="rotate(-180 910.72 213.213)" fill="white"/>
<ellipse cx="1048.36" cy="176.235" rx="0.580031" ry="0.676389" transform="rotate(-180 1048.36 176.235)" fill="white"/>
<ellipse cx="1195.3" cy="317.807" rx="0.580031" ry="0.676389" transform="rotate(-180 1195.3 317.807)" fill="white"/>
<ellipse cx="1057.66" cy="380.142" rx="0.580031" ry="0.676389" transform="rotate(-180 1057.66 380.142)" fill="white"/>
<ellipse cx="1056.73" cy="273.434" rx="0.580031" ry="0.676389" transform="rotate(-180 1056.73 273.434)" fill="white"/>
<ellipse cx="813.997" cy="195.252" rx="0.580031" ry="0.676389" transform="rotate(-180 813.997 195.252)" fill="white"/>
<ellipse cx="792.915" cy="332.135" rx="0.580031" ry="0.676389" transform="rotate(-180 792.915 332.135)" fill="white"/>
<ellipse cx="782.683" cy="228.597" rx="0.580031" ry="0.676389" transform="rotate(-180 782.683 228.597)" fill="white"/>
<ellipse cx="920.325" cy="191.619" rx="0.580031" ry="0.676389" transform="rotate(-180 920.325 191.619)" fill="white"/>
<ellipse cx="1067.26" cy="333.191" rx="0.580031" ry="0.676389" transform="rotate(-180 1067.26 333.191)" fill="white"/>
<ellipse cx="929.622" cy="395.526" rx="0.580031" ry="0.676389" transform="rotate(-180 929.622 395.526)" fill="white"/>
<ellipse cx="928.695" cy="288.818" rx="0.580031" ry="0.676389" transform="rotate(-180 928.695 288.818)" fill="white"/>
<ellipse cx="685.961" cy="210.636" rx="0.580031" ry="0.676389" transform="rotate(-180 685.961 210.636)" fill="white"/>
<ellipse cx="830.772" cy="441.307" rx="0.580031" ry="0.676389" transform="rotate(-180 830.772 441.307)" fill="white"/>
<ellipse cx="820.543" cy="337.768" rx="0.580031" ry="0.676389" transform="rotate(-180 820.543 337.768)" fill="white"/>
<ellipse cx="958.182" cy="300.79" rx="0.580031" ry="0.676389" transform="rotate(-180 958.182 300.79)" fill="white"/>
<ellipse cx="1105.12" cy="442.363" rx="0.580031" ry="0.676389" transform="rotate(-180 1105.12 442.363)" fill="white"/>
<ellipse cx="967.479" cy="504.697" rx="0.580031" ry="0.676389" transform="rotate(-180 967.479 504.697)" fill="white"/>
<ellipse cx="966.555" cy="397.989" rx="0.580031" ry="0.676389" transform="rotate(-180 966.555 397.989)" fill="white"/>
<ellipse cx="723.822" cy="319.807" rx="0.580031" ry="0.676389" transform="rotate(-180 723.822 319.807)" fill="white"/>
<ellipse cx="1038.13" cy="394.933" rx="0.580031" ry="0.676389" transform="rotate(-180 1038.13 394.933)" fill="white"/>
<ellipse cx="1027.9" cy="291.395" rx="0.580031" ry="0.676389" transform="rotate(-180 1027.9 291.395)" fill="white"/>
<ellipse cx="1165.54" cy="254.417" rx="0.580031" ry="0.676389" transform="rotate(-180 1165.54 254.417)" fill="white"/>
<ellipse cx="1312.48" cy="395.99" rx="0.580031" ry="0.676389" transform="rotate(-180 1312.48 395.99)" fill="white"/>
<ellipse cx="1174.84" cy="458.324" rx="0.580031" ry="0.676389" transform="rotate(-180 1174.84 458.324)" fill="white"/>
<ellipse cx="1173.91" cy="351.616" rx="0.580031" ry="0.676389" transform="rotate(-180 1173.91 351.616)" fill="white"/>
<ellipse cx="931.18" cy="273.434" rx="0.580031" ry="0.676389" transform="rotate(-180 931.18 273.434)" fill="white"/>
<ellipse cx="102.184" cy="41.4083" rx="0.580031" ry="0.676389" transform="rotate(-180 102.184 41.4083)" fill="white"/>
<ellipse cx="654.76" cy="186.643" rx="1.19079" ry="1.35278" transform="rotate(-180 654.76 186.643)" fill="white"/>
<ellipse cx="547.973" cy="314.156" rx="1.19079" ry="1.35278" transform="rotate(-180 547.973 314.156)" fill="white"/>
<ellipse cx="892.772" cy="121.99" rx="2" ry="2.27207" transform="rotate(-180 892.772 121.99)" fill="white"/>
</g>
<defs>
<filter id="filter0_d" x="608.253" y="234.639" width="12" height="12.5441" filterUnits="userSpaceOnUse" color-interpolation-filters="sRGB">
<feFlood flood-opacity="0" result="BackgroundImageFix"/>
<feColorMatrix in="SourceAlpha" type="matrix" values="0 0 0 0 0 0 0 0 0 0 0 0 0 0 0 0 0 0 127 0"/>
<feOffset dy="4"/>
<feGaussianBlur stdDeviation="2"/>
<feColorMatrix type="matrix" values="0 0 0 0 0 0 0 0 0 0 0 0 0 0 0 0 0 0 0.25 0"/>
<feBlend mode="normal" in2="BackgroundImageFix" result="effect1_dropShadow"/>
<feBlend mode="normal" in="SourceGraphic" in2="effect1_dropShadow" result="shape"/>
</filter>
<radialGradient id="paint0_radial" cx="0" cy="0" r="1" gradientUnits="userSpaceOnUse" gradientTransform="translate(676.687 976.5) rotate(-90) scale(917.66 1502.12)">
<stop offset="0.5" stop-color="#9CA9CE" stop-opacity="0.94"/>
<stop offset="0.755208" stop-color="#5F76A0" stop-opacity="0.78"/>
<stop offset="1" stop-color="#324565" stop-opacity="0"/>
</radialGradient>
</defs>
</svg>
