<svg width="79" height="70" viewBox="0 0 79 70" fill="none" xmlns="http://www.w3.org/2000/svg">
<path d="M75.9109 69.286H2.21592C0.43675 69.286 -0.61458 66.9153 0.390653 65.1714L24.1798 23.8328L37.2365 1.14424C38.1148 -0.381412 40.0112 -0.381412 40.8903 1.14424L56.6134 28.4646L77.7362 65.1714C78.7406 66.9153 77.6893 69.286 75.9109 69.286V69.286Z" fill="#CBD359"/>
<path d="M75.9109 69.285H69.9377C71.7185 69.285 72.7699 66.9153 71.7654 65.1714L36.0776 3.15824L37.2365 1.14424C38.1148 -0.381412 40.0112 -0.381412 40.8895 1.14424L77.7362 65.1714C78.7406 66.9153 77.6901 69.285 75.9109 69.285V69.285Z" fill="#BEC121"/>
<path d="M56.6133 28.4655C54.9894 30.2699 53.5394 31.0438 52.1832 31.1447C46.4502 31.5764 42.443 20.0451 34.5872 24.3202C29.3621 27.1619 26.1329 25.9323 24.1798 23.8337L36.076 3.16011V3.15818L37.2365 1.14514C38.1148 -0.381469 40.0112 -0.381469 40.8903 1.14514L56.6133 28.4655Z" fill="#FFEC9C"/>
<path d="M56.6133 28.4655C54.9894 30.2699 53.5393 31.0438 52.1831 31.1447L36.0759 3.16011V3.15819L37.2364 1.14514C38.1147 -0.381469 40.0111 -0.381469 40.8902 1.14514L56.6133 28.4655Z" fill="#FFDF4A"/>
<path d="M20.29 58.9533C19.6713 58.9533 19.0818 58.5246 18.8206 57.8064L18.3984 56.6461C18.0483 55.6819 18.4211 54.5619 19.2314 54.1456C20.0442 53.7284 20.9847 54.1726 21.3349 55.1358L21.757 56.2962C22.108 57.2604 21.7344 58.3794 20.924 58.7966C20.717 58.9024 20.5019 58.9533 20.29 58.9533Z" fill="#E6F073"/>
<path d="M25.012 58.9448C24.7968 58.9448 24.5777 58.8929 24.3674 58.7833C23.5595 58.3593 23.1932 57.2365 23.549 56.2761L23.98 55.1139C24.3367 54.1535 25.2804 53.718 26.0892 54.1419C26.8971 54.5649 27.2634 55.6878 26.9076 56.6491L26.4765 57.8104C26.2121 58.5218 25.6266 58.9448 25.012 58.9448Z" fill="#E6F073"/>
</svg>
