<svg width="1351" height="1051" viewBox="0 0 1351 1051" fill="none" xmlns="http://www.w3.org/2000/svg">
<rect x="0.0548096" y="0.2146" width="1352.64" height="1049.87" fill="#1F3966"/>
<ellipse cx="676.376" cy="589.725" rx="964.971" ry="589.51" fill="url(#paint0_radial)" fill-opacity="0.6"/>
<ellipse cx="113.811" cy="69.6252" rx="1.19079" ry="1.35278" fill="white"/>
<ellipse cx="991.49" cy="284.92" rx="1.19079" ry="1.35278" fill="white"/>
<ellipse cx="325.182" cy="43.9351" rx="1.19079" ry="1.35278" fill="white"/>
<ellipse cx="977.014" cy="41.8317" rx="0.580031" ry="0.676389" fill="white"/>
<ellipse cx="841.331" cy="150.3" rx="0.580031" ry="0.676389" fill="white"/>
<ellipse cx="377.105" cy="239.612" rx="1.19079" ry="1.35278" fill="white"/>
<ellipse cx="483.895" cy="112.098" rx="1.19079" ry="1.35278" fill="white"/>
<ellipse cx="54.542" cy="384.432" rx="0.580031" ry="0.676389" transform="rotate(-180 54.542 384.432)" fill="white"/>
<ellipse cx="190.221" cy="275.964" rx="0.580031" ry="0.676389" transform="rotate(-180 190.221 275.964)" fill="white"/>
<ellipse cx="87.9224" cy="167.143" rx="0.580031" ry="0.676389" transform="rotate(-180 87.9224 167.143)" fill="white"/>
<ellipse cx="149.302" cy="180.878" rx="0.580031" ry="0.676389" transform="rotate(-180 149.302 180.878)" fill="white"/>
<ellipse cx="139.075" cy="77.3392" rx="0.580031" ry="0.676389" transform="rotate(-180 139.075 77.3392)" fill="white"/>
<ellipse cx="276.711" cy="40.361" rx="0.580031" ry="0.676389" transform="rotate(-180 276.711 40.361)" fill="white"/>
<ellipse cx="423.652" cy="181.934" rx="0.580031" ry="0.676389" transform="rotate(-180 423.652 181.934)" fill="white"/>
<ellipse cx="286.016" cy="244.268" rx="0.580031" ry="0.676389" transform="rotate(-180 286.016 244.268)" fill="white"/>
<ellipse cx="285.08" cy="137.56" rx="0.580031" ry="0.676389" transform="rotate(-180 285.08 137.56)" fill="white"/>
<ellipse cx="42.355" cy="59.3788" rx="0.580031" ry="0.676389" transform="rotate(-180 42.355 59.3788)" fill="white"/>
<ellipse cx="26.5437" cy="423.517" rx="0.580031" ry="0.676389" transform="rotate(-180 26.5437 423.517)" fill="white"/>
<ellipse cx="16.314" cy="319.978" rx="0.580031" ry="0.676389" transform="rotate(-180 16.314 319.978)" fill="white"/>
<ellipse cx="153.954" cy="283.001" rx="0.580031" ry="0.676389" transform="rotate(-180 153.954 283.001)" fill="white"/>
<ellipse cx="300.894" cy="424.574" rx="0.580031" ry="0.676389" transform="rotate(-180 300.894 424.574)" fill="white"/>
<ellipse cx="163.251" cy="486.908" rx="0.580031" ry="0.676389" transform="rotate(-180 163.251 486.908)" fill="white"/>
<ellipse cx="162.322" cy="380.2" rx="0.580031" ry="0.676389" transform="rotate(-180 162.322 380.2)" fill="white"/>
<ellipse cx="453.416" cy="186.858" rx="0.580031" ry="0.676389" transform="rotate(-180 453.416 186.858)" fill="white"/>
<ellipse cx="443.183" cy="83.3197" rx="0.580031" ry="0.676389" transform="rotate(-180 443.183 83.3197)" fill="white"/>
<ellipse cx="580.824" cy="46.3419" rx="0.580031" ry="0.676389" transform="rotate(-180 580.824 46.3419)" fill="white"/>
<ellipse cx="727.76" cy="187.915" rx="0.580031" ry="0.676389" transform="rotate(-180 727.76 187.915)" fill="white"/>
<ellipse cx="590.124" cy="250.249" rx="0.580031" ry="0.676389" transform="rotate(-180 590.124 250.249)" fill="white"/>
<ellipse cx="589.194" cy="143.541" rx="0.580031" ry="0.676389" transform="rotate(-180 589.194 143.541)" fill="white"/>
<ellipse cx="346.466" cy="65.3593" rx="0.580031" ry="0.676389" transform="rotate(-180 346.466 65.3593)" fill="white"/>
<ellipse cx="305.546" cy="76.9806" rx="0.580031" ry="0.676389" transform="rotate(-180 305.546 76.9806)" fill="white"/>
<ellipse cx="579.895" cy="78.0372" rx="0.580031" ry="0.676389" transform="rotate(-180 579.895 78.0372)" fill="white"/>
<ellipse cx="442.254" cy="140.371" rx="0.580031" ry="0.676389" transform="rotate(-180 442.254 140.371)" fill="white"/>
<ellipse cx="441.325" cy="33.6635" rx="0.580031" ry="0.676389" transform="rotate(-180 441.325 33.6635)" fill="white"/>
<ellipse cx="82.742" cy="132.571" rx="0.580031" ry="0.676389" transform="rotate(-180 82.742 132.571)" fill="white"/>
<ellipse cx="72.5125" cy="29.0324" rx="0.580031" ry="0.676389" transform="rotate(-180 72.5125 29.0324)" fill="white"/>
<ellipse cx="357.096" cy="133.627" rx="0.580031" ry="0.676389" transform="rotate(-180 357.096 133.627)" fill="white"/>
<ellipse cx="219.453" cy="195.961" rx="0.580031" ry="0.676389" transform="rotate(-180 219.453 195.961)" fill="white"/>
<ellipse cx="218.524" cy="89.2535" rx="0.580031" ry="0.676389" transform="rotate(-180 218.524 89.2535)" fill="white"/>
<ellipse cx="240.08" cy="350.504" rx="0.580031" ry="0.676389" transform="rotate(-180 240.08 350.504)" fill="white"/>
<ellipse cx="229.848" cy="246.966" rx="0.580031" ry="0.676389" transform="rotate(-180 229.848 246.966)" fill="white"/>
<ellipse cx="367.491" cy="209.988" rx="0.580031" ry="0.676389" transform="rotate(-180 367.491 209.988)" fill="white"/>
<ellipse cx="514.424" cy="351.561" rx="0.580031" ry="0.676389" transform="rotate(-180 514.424 351.561)" fill="white"/>
<ellipse cx="376.788" cy="413.895" rx="0.580031" ry="0.676389" transform="rotate(-180 376.788 413.895)" fill="white"/>
<ellipse cx="375.858" cy="307.187" rx="0.580031" ry="0.676389" transform="rotate(-180 375.858 307.187)" fill="white"/>
<ellipse cx="133.127" cy="229.005" rx="0.580031" ry="0.676389" transform="rotate(-180 133.127 229.005)" fill="white"/>
<ellipse cx="325.076" cy="418.121" rx="0.580031" ry="0.676389" transform="rotate(-180 325.076 418.121)" fill="white"/>
<ellipse cx="314.843" cy="314.583" rx="0.580031" ry="0.676389" transform="rotate(-180 314.843 314.583)" fill="white"/>
<ellipse cx="452.486" cy="277.605" rx="0.580031" ry="0.676389" transform="rotate(-180 452.486 277.605)" fill="white"/>
<ellipse cx="599.425" cy="419.178" rx="0.580031" ry="0.676389" transform="rotate(-180 599.425 419.178)" fill="white"/>
<ellipse cx="461.784" cy="481.512" rx="0.580031" ry="0.676389" transform="rotate(-180 461.784 481.512)" fill="white"/>
<ellipse cx="460.855" cy="374.804" rx="0.580031" ry="0.676389" transform="rotate(-180 460.855 374.804)" fill="white"/>
<ellipse cx="218.12" cy="296.622" rx="0.580031" ry="0.676389" transform="rotate(-180 218.12 296.622)" fill="white"/>
<ellipse cx="386.65" cy="343.198" rx="0.580031" ry="0.676389" transform="rotate(-180 386.65 343.198)" fill="white"/>
<ellipse cx="376.423" cy="239.659" rx="0.580031" ry="0.676389" transform="rotate(-180 376.423 239.659)" fill="white"/>
<ellipse cx="514.06" cy="202.681" rx="0.580031" ry="0.676389" transform="rotate(-180 514.06 202.681)" fill="white"/>
<ellipse cx="661.001" cy="344.254" rx="0.580031" ry="0.676389" transform="rotate(-180 661.001 344.254)" fill="white"/>
<ellipse cx="523.362" cy="406.588" rx="0.580031" ry="0.676389" transform="rotate(-180 523.362 406.588)" fill="white"/>
<ellipse cx="522.435" cy="299.88" rx="0.580031" ry="0.676389" transform="rotate(-180 522.435 299.88)" fill="white"/>
<ellipse cx="279.7" cy="221.699" rx="0.580031" ry="0.676389" transform="rotate(-180 279.7 221.699)" fill="white"/>
<ellipse cx="625.589" cy="261.458" rx="0.580031" ry="0.676389" transform="rotate(-180 625.589 261.458)" fill="white"/>
<ellipse cx="615.356" cy="157.92" rx="0.580031" ry="0.676389" transform="rotate(-180 615.356 157.92)" fill="white"/>
<ellipse cx="752.999" cy="120.942" rx="0.580031" ry="0.676389" transform="rotate(-180 752.999 120.942)" fill="white"/>
<ellipse cx="899.939" cy="262.515" rx="0.580031" ry="0.676389" transform="rotate(-180 899.939 262.515)" fill="white"/>
<ellipse cx="762.297" cy="324.849" rx="0.580031" ry="0.676389" transform="rotate(-180 762.297 324.849)" fill="white"/>
<ellipse cx="761.367" cy="218.141" rx="0.580031" ry="0.676389" transform="rotate(-180 761.367 218.141)" fill="white"/>
<ellipse cx="518.637" cy="139.959" rx="0.580031" ry="0.676389" transform="rotate(-180 518.637 139.959)" fill="white"/>
<ellipse cx="591.449" cy="97.6166" rx="0.580031" ry="0.676389" transform="rotate(-180 591.449 97.6166)" fill="white"/>
<ellipse cx="865.8" cy="98.6732" rx="0.580031" ry="0.676389" transform="rotate(-180 865.8 98.6732)" fill="white"/>
<ellipse cx="728.164" cy="161.007" rx="0.580031" ry="0.676389" transform="rotate(-180 728.164 161.007)" fill="white"/>
<ellipse cx="727.232" cy="54.2997" rx="0.580031" ry="0.676389" transform="rotate(-180 727.232 54.2997)" fill="white"/>
<ellipse cx="979.839" cy="201.6" rx="0.580031" ry="0.676389" transform="rotate(-180 979.839 201.6)" fill="white"/>
<ellipse cx="969.61" cy="98.0619" rx="0.580031" ry="0.676389" transform="rotate(-180 969.61 98.0619)" fill="white"/>
<ellipse cx="1107.25" cy="61.0841" rx="0.580031" ry="0.676389" transform="rotate(-180 1107.25 61.0841)" fill="white"/>
<ellipse cx="1254.19" cy="202.657" rx="0.580031" ry="0.676389" transform="rotate(-180 1254.19 202.657)" fill="white"/>
<ellipse cx="1116.55" cy="264.991" rx="0.580031" ry="0.676389" transform="rotate(-180 1116.55 264.991)" fill="white"/>
<ellipse cx="1115.62" cy="158.284" rx="0.580031" ry="0.676389" transform="rotate(-180 1115.62 158.284)" fill="white"/>
<ellipse cx="872.889" cy="80.1012" rx="0.580031" ry="0.676389" transform="rotate(-180 872.889 80.1012)" fill="white"/>
<ellipse cx="1026.99" cy="110.74" rx="0.580031" ry="0.676389" transform="rotate(-180 1026.99 110.74)" fill="white"/>
<ellipse cx="1016.76" cy="7.20178" rx="0.580031" ry="0.676389" transform="rotate(-180 1016.76 7.20178)" fill="white"/>
<ellipse cx="1301.34" cy="111.797" rx="0.580031" ry="0.676389" transform="rotate(-180 1301.34 111.797)" fill="white"/>
<ellipse cx="1163.71" cy="174.131" rx="0.580031" ry="0.676389" transform="rotate(-180 1163.71 174.131)" fill="white"/>
<ellipse cx="1162.77" cy="67.4232" rx="0.580031" ry="0.676389" transform="rotate(-180 1162.77 67.4232)" fill="white"/>
<ellipse cx="1077.77" cy="295.63" rx="0.580031" ry="0.676389" transform="rotate(-180 1077.77 295.63)" fill="white"/>
<ellipse cx="1067.53" cy="192.092" rx="0.580031" ry="0.676389" transform="rotate(-180 1067.53 192.092)" fill="white"/>
<ellipse cx="1205.18" cy="155.114" rx="0.580031" ry="0.676389" transform="rotate(-180 1205.18 155.114)" fill="white"/>
<ellipse cx="1214.47" cy="359.021" rx="0.580031" ry="0.676389" transform="rotate(-180 1214.47 359.021)" fill="white"/>
<ellipse cx="1213.54" cy="252.313" rx="0.580031" ry="0.676389" transform="rotate(-180 1213.54 252.313)" fill="white"/>
<ellipse cx="970.816" cy="174.131" rx="0.580031" ry="0.676389" transform="rotate(-180 970.816 174.131)" fill="white"/>
<ellipse cx="920.639" cy="316.76" rx="0.580031" ry="0.676389" transform="rotate(-180 920.639 316.76)" fill="white"/>
<ellipse cx="910.408" cy="213.222" rx="0.580031" ry="0.676389" transform="rotate(-180 910.408 213.222)" fill="white"/>
<ellipse cx="1048.05" cy="176.244" rx="0.580031" ry="0.676389" transform="rotate(-180 1048.05 176.244)" fill="white"/>
<ellipse cx="1194.99" cy="317.817" rx="0.580031" ry="0.676389" transform="rotate(-180 1194.99 317.817)" fill="white"/>
<ellipse cx="1057.35" cy="380.151" rx="0.580031" ry="0.676389" transform="rotate(-180 1057.35 380.151)" fill="white"/>
<ellipse cx="1056.42" cy="273.444" rx="0.580031" ry="0.676389" transform="rotate(-180 1056.42 273.444)" fill="white"/>
<ellipse cx="813.685" cy="195.262" rx="0.580031" ry="0.676389" transform="rotate(-180 813.685 195.262)" fill="white"/>
<ellipse cx="792.603" cy="332.144" rx="0.580031" ry="0.676389" transform="rotate(-180 792.603 332.144)" fill="white"/>
<ellipse cx="782.371" cy="228.606" rx="0.580031" ry="0.676389" transform="rotate(-180 782.371 228.606)" fill="white"/>
<ellipse cx="920.013" cy="191.628" rx="0.580031" ry="0.676389" transform="rotate(-180 920.013 191.628)" fill="white"/>
<ellipse cx="1066.95" cy="333.201" rx="0.580031" ry="0.676389" transform="rotate(-180 1066.95 333.201)" fill="white"/>
<ellipse cx="929.31" cy="395.535" rx="0.580031" ry="0.676389" transform="rotate(-180 929.31 395.535)" fill="white"/>
<ellipse cx="928.383" cy="288.827" rx="0.580031" ry="0.676389" transform="rotate(-180 928.383 288.827)" fill="white"/>
<ellipse cx="685.648" cy="210.645" rx="0.580031" ry="0.676389" transform="rotate(-180 685.648 210.645)" fill="white"/>
<ellipse cx="830.46" cy="441.316" rx="0.580031" ry="0.676389" transform="rotate(-180 830.46 441.316)" fill="white"/>
<ellipse cx="820.231" cy="337.777" rx="0.580031" ry="0.676389" transform="rotate(-180 820.231 337.777)" fill="white"/>
<ellipse cx="957.87" cy="300.8" rx="0.580031" ry="0.676389" transform="rotate(-180 957.87 300.8)" fill="white"/>
<ellipse cx="1104.81" cy="442.372" rx="0.580031" ry="0.676389" transform="rotate(-180 1104.81 442.372)" fill="white"/>
<ellipse cx="967.167" cy="504.706" rx="0.580031" ry="0.676389" transform="rotate(-180 967.167 504.706)" fill="white"/>
<ellipse cx="966.243" cy="397.999" rx="0.580031" ry="0.676389" transform="rotate(-180 966.243 397.999)" fill="white"/>
<ellipse cx="723.51" cy="319.817" rx="0.580031" ry="0.676389" transform="rotate(-180 723.51 319.817)" fill="white"/>
<ellipse cx="1037.82" cy="394.943" rx="0.580031" ry="0.676389" transform="rotate(-180 1037.82 394.943)" fill="white"/>
<ellipse cx="1027.58" cy="291.404" rx="0.580031" ry="0.676389" transform="rotate(-180 1027.58 291.404)" fill="white"/>
<ellipse cx="1165.23" cy="254.426" rx="0.580031" ry="0.676389" transform="rotate(-180 1165.23 254.426)" fill="white"/>
<ellipse cx="1312.17" cy="395.999" rx="0.580031" ry="0.676389" transform="rotate(-180 1312.17 395.999)" fill="white"/>
<ellipse cx="1174.53" cy="458.333" rx="0.580031" ry="0.676389" transform="rotate(-180 1174.53 458.333)" fill="white"/>
<ellipse cx="1173.6" cy="351.626" rx="0.580031" ry="0.676389" transform="rotate(-180 1173.6 351.626)" fill="white"/>
<ellipse cx="930.868" cy="273.444" rx="0.580031" ry="0.676389" transform="rotate(-180 930.868 273.444)" fill="white"/>
<ellipse cx="101.872" cy="41.4179" rx="0.580031" ry="0.676389" transform="rotate(-180 101.872 41.4179)" fill="white"/>
<ellipse cx="654.448" cy="186.652" rx="1.19079" ry="1.35278" transform="rotate(-180 654.448 186.652)" fill="white"/>
<ellipse cx="547.661" cy="314.166" rx="1.19079" ry="1.35278" transform="rotate(-180 547.661 314.166)" fill="white"/>
<defs>
<radialGradient id="paint0_radial" cx="0" cy="0" r="1" gradientUnits="userSpaceOnUse" gradientTransform="translate(676.376 976.51) rotate(-90) scale(917.66 1502.12)">
<stop offset="0.5" stop-color="#9CA9CE" stop-opacity="0.94"/>
<stop offset="0.755208" stop-color="#5F76A0" stop-opacity="0.78"/>
<stop offset="1" stop-color="#324565" stop-opacity="0"/>
</radialGradient>
</defs>
</svg>
