<svg width="1355" height="637" viewBox="0 0 1355 637" fill="none" xmlns="http://www.w3.org/2000/svg"><path d="M0 384c0-154 0-252 1-251l4-1 5-1c1 1 5-2 10-6l3-2 4-1h12l2-2 1-2v-1c0-2 3-6 6-7l3-3c1-1 1-1 0 0v-2c1-2 5-4 7-3l3-2c2-1 3 0 3 1l2 2c2 0 4-1 4-3h1l1-1 5-2c4-2 9-5 7-5l1-1h6l7-2c3 0 4 0 4 2l3 2v1l4-1c1-1 2 0 6 8 1 3 2 5 3 4s5 1 5 3l1 3 1 2c0 2 1 2 3 1 3-1 7 0 6 1 0 1 4 2 5 1l3 2 2 1 2 1 2 3h2l1-1 3-1 4-2h5c1-1 2 0 2 1l3 4h1c-1-2 0-2 3 0l4 1 5-1 6 2 8 2c7 0 11 1 10 3 0 1 3 2 7 2l5-1 1-1 5-1c3-2 5-2 6 0l2 1h3c1 2 12-2 17-5l5-2v-1l6-3 3-1 5-1 2-1c1 1 1 0 0 0l7-5 5-1 4-2c2-1 3-2 9-1l8-1 3-1 5-2c3-2 4-2 5 0h3c3-1 5 0 5 3 1 4 1 4 4 4l4-2 5-3c3-1 4-2 5-5l2-4 2-2 2-3 2-3 2-3c0-3 2-5 7-6l5-3 1-1 1 1v1l1-2c-1-1 16-7 18-6 0 0 1 0 0 0-1-2 22-8 24-6v-1h5c4 1 10 0 13-3l7-3 5-3 1-2 2-1 3-2c2 0 4-2 5-4l4-3 4-2 12-6 8-4 7-3 12-6 3-2 3-1 17-7 6-3c1-2 7-4 11-4l9-1 19-2h15l5 1 12 1 8 1a154 154 0 0 0 24 10c7 4 13 6 15 4l7-2a88 88 0 0 0 11-4l4-2 5-1 8 1 9 1 14 1 17 1c5 2 7 2 12 1a30 30 0 0 1 12 0h2l16-1 5-1 7-3 6-2c3 0 11 2 12 4l4 1 4 1 2 1 4 2 5 3 13 5 4 2 7 5c3 2 5 3 8 3l14 3 6 3 3 2 12 5 11 4a109 109 0 0 1 16 7c0 1 4 3 9 4 3 1 7 5 6 7h1l1 1 2 2 9 4 2 1 2 1 2 1 4 2c1 1 2 3 4 3l2 2 2 3 2 3c0 3 0 3 3 4 5 0 8 2 8 4l1 2 7 5 1 1 3 1 5 1c3 0 4 1 4 2v1c1-1 2 1 3 4 0 1 1 2 5 3l4 3 1 1 6 6 5 4c4 2 15 4 16 3l7-1c4 0 6 0 11 2l9 3c3 0 6 2 9 4l9 4 7 5 8 3 4 2h1l4 2c7 3 23 7 34 8 6 1 9 1 19 7 3 2 7 3 12 3 6 1 8 2 10 4 3 3 4 3 6 0l8-1 8 2 9 6 6 4h11c11 0 11 0 15 2 3 3 9 5 10 4h1l5 2 4 1h24a136 136 0 0 0 41 1l3 1 21-2 4 2 5 2h3v429H0V384z" fill="#354E66"/><path d="M142 556l-3-3c-3-1-4-2-3-3 0-2 0-2-3-3l-4-1-1-2c0-3-3-4-3-1v1l-1-1c1-2 0-2-4-4-4-1-5-2-8-7l-4-6h7l7 1c0 2 1 3 7 5l4 3 5 2c4 0 6 1 8 3l4 3 1 2c1 0 2 1 2 4l1 2v3c-2 2-12 3-12 2zM94 517c-2-1-5-6-4-7l3 1c2 1 3 2 3 4 1 3 0 3-2 2zM87 506c-1-1-1-2 1-3h2c2 1 2 1 0 3h-3zM150 493c-4-1-7-4-8-6l-7-7-5-6c0-3 5 1 8 4l3 3 2 1h3c3 0 5 1 9 4l6 3 2 2c0 2-1 2-4 3l-9-1zM1033 425c-1 0-1-1 0 0h3l1 1c0 1-1 1-4-1z" fill="#5A7894"/><path d="M1043 424c-1-1-1-1 0 0l2-1h-1c-2 0-2-1-2-2 1-2-2-3-5-2l-2-1 1-1c2 1 3-1 2-2-2-2-3-2-3 1l-1 2-2-1h-1l-1-1-2-1 1-1v-2c-1-2-3-3-2-1 1 1 0 2-2 2-3 0-3 0-1 1v3h-2l1-1v-1l-2-2c0-2-3-2-4 0s-1 2-1 0-1-2-2-2l-3-1v-1l-1 1-2 2h-3c1-2-3-5-4-3l1 1v2c-2 0-2 0-1 1 1 0 1 1 0 0l-2-2-1-2-1-1v-2c-2 0-2 2 0 4v1h-1l-1-1-1-1v-2l-1-1-3-1h-2l-1 1-1-1-1-1-1 1-1 1-1-1-1-1-1 1c0 1-2 3-4 3l-3 1-2-1 1-1c1 1 2 1 2-1s-2-2-3-1c-1 2-5 2-5 1s-1-2-3-2l-2-1c1-1 0-1-2-1h-3 2l2-1-1-1-3-2c0-1-1-2-3-2-3 0-4-2-1-3v-1h-1l-1 1-1 1-1 1-1-1-2-4c0-3 0-3-2-3l-2-1h-6-1c-2 0-2 0-2-2 1-1 1-1 0 0h-1-1c0 2-1 2-1 0l-1-2-5 2-2 1c0-2-3-3-5-2l-2-1h-2l-1-1-1 1-1 4v1l-1-1c0-1-1-2-5-3 0-1 0-1 0 0v1c0 2 0 2-1 1l-1-1 3 3c1 1 0 1-1 1-2 0-3-1-3-2h-2c-1 1-1 1 0 0s-4-1-6 1v1l-1-1c0-2 0-2-2-2-3 0-5 1-5 3l-1-1-3-2c-2 0-3-3-1-4l1-1h-1l-2-1-1 1-1-1h-1l-1 2v1h1l2 1c0 1-3 3-6 3l-2-1-3-1c-2 1-2 1 0 0 1-1 1-1-1-1l-4-1h-2l-2 1c-2 0-2 0-1-1h-5c-2-1-2-1-4 1h-1l-4-1-4-1c-1-1-2 0-2 2l-1 1-1-1c1-2-2-3-3-2h-4l-4 1h-1-1c-1 1-2 2-3 1-3 0-3 0-1-1 1 0 1-1-1-2-2 0-3-1-3-2h-3l-4-1-1-1-1 2-1 1v-2h-1-4c-2-1-3 0-3 1-1 2-1 2-1-1-1-2-1-2-2-1v-1l-2-1-3-1c0-1-1-2-2-1l-3-2c-2-2-2-2-1 0l-1 1-1-2-1-2h-5l-1 1v-2-1l-2 1-1-1h-3v1h0l-3-1h-5c-2 1-4 0-4-1l-1-1v1l-2 1-1-1c0-2-2-3-3-1h-4v1c-1-1 0-3 2-3h2l-2-1-2-1-1-1c-2 0-2 0 0-1h2l1 1c1 0 2-2 0-4v-1h-2c0 2 0 2-1 1l-4-2-8-2h-2c-3 0-4 0-6-2v-2c1 0 2-1 2-3 1-3 1-4 2-3l2-1-1-1-1-1-1-2v-1-1l-1-2v-5-2l-3-1c-1 1-1-1 1-3l2-3c0-2-1-3-3-3h-1v-1l2-1 3-1-1-1v-2-5l1-2-1-1 1-2 2-2 2-1 1-2 2-2h1l1-1c0 1 3 1 4-1l2 1 2-1v-3l-2-1 2-1 1-1c0-2 2-4 3-4l3-3 2-4v-2l-2 2c0 1-1 2-2 0-1-1 1-2 3-2s3-3 2-5l1-1 1-5c0-4 0-5 4-6l1-2 1-2 1-1v-1-2c1-1 2-2 1-3 0-4-2-9-3-9l-1-1v-2c-1 0-1 0 0 0v-4l-1-3h-3l-2-3-1-2c-2-2-4-2-5-1h-2-4l-3-1-5-1-6 1c-1 1-3 0-10-3-9-5-13-6-17-4a48 48 0 0 1-26 1h-6c-4-1-9-1-15 1l-9 3-8 3-16 4-5 1-13 2a301 301 0 0 0-26 4h-4c-1 1-2 0-2-1l-1-1h-1l-1-1h3v1l1-1v-3l-2-2c-2-1-2-2-2-3 0-2-1-2-3-2h-1l-1-1h-3l1-1s1 0 0 0h-2c-1 1-4 0-3-1h-2l-2-1-1-2-1-1-2-3-1 1-1 1h-1l-2-2h-1l-3-3-2-3-2-3 2-1 4 1c2 2 2 2 2 0s-2-4-4-4h-1l-2-2v-2l1-2c0-2 3-2 4 0 2 2 2 2 3 0 1-1 1-1-1-3l-6-7-3 1c0 1 0 2 1 1 2-2 2 3-1 7-2 4-8 9-7 6v-4-3l1-2 1-5 1-3c2-1 1-2-2-3l-5-5-6 1 1 2h1l-1 2c0 1-3 2-4 1v-2l1-3-2-2v-1l1-1c0-2-5 4-7 7l-2 6c0 3 0 3 3 4 2 1 3 1 5-2l3-4v-1c2 0 2 2 0 4-1 2 0 3 4 4s4 2 2 3l-2 4v4l2 2c0 2 0 2 2 1l2-2v3 2l1 2c0 1-2 3-7 5-4 2-6 3-7 5s-7 8-7 6h-2c-2-1-2-1 0-1l2-2 3-2h-1l-3 1-3 2-3 2-3 4c-2 4-5 7-7 7l-4 1c-4 2-5 2-4-1l1-3h-1l-5 11c1 1 0 1-1 1-2 0-2 1 1 4l2 4v2c1 2-2 5-4 5l-2 1c-2 2-7 2-7 0l-4-2c-4 0-5 2-3 4v1l-2-1c-1-1-4-1-6 1h-1l-2 2c-2 2-3 2-5 2l-4 1-10 1-6 1c-2 0-3-1-3-2 0-2 1-2 2-2 2 0 2-1 2-2l1-1c2 0 1-5 0-8-1-2-2-2-3-2h-3v1c1 2 0 6-2 6l-2-2c-1-1-2-1-2 1l-2 1c-2 0-2-1-2-2 0-3-1-5-3-4-1 0-2 0-1 1 1 0 1 1-1 1s-2 0-2 2c1 1 0 2-2 3-3 1-4 3-2 3l1 1h1l1 2v1h1c1-1 2 0 3 1s1 2-2 3l-5 1-6 2-4 2-1 1-16 10-2 1h-3l-10-1a339 339 0 0 1-52-9l1-5 2-1 2-1 1-2c0-2 3-3 6-3l1 1v1l2-1c2 0 2 0 0 2l-1 1 2 1h1l1-1h1c0-2 4-3 5-2v-2l-3-1h-1l1-3-1-1c0 2-2 1-2 0 0-2-2-2-3-1-1 2-1 2-2 0h-2c-2 2-3 2-3 0l2-2 4-2 2-3-1-2c1-1 0-2-2-3-3-2-3-4 0-5 2-1 2-1 1-3v-8c1-2 1-2 5-2h3l-2-3h-1-1c0-1 3-2 4-1v-2l-1-2v-1l-13 6-3 1 2-2c2-1 3-2 2-3l-1-2c-4 0 7-12 11-14l6-3 5-4 1-1c0-2 4-9 6-9h1v1l3 3c2 4 2 4 4 2s3-2 6 1v4c-1 1-2 2-3 1l-3 1-4 1-8 3c-3 3-4 6-3 9 0 2 1 2 1 1h5c1 0 2 1 1 2v2l2 1 9 10 2 1c2 1 4-1 3-2 0-2-5-6-6-6-2 0-3-2-3-3v-1l2-1-1-2v-2-3l-1-1 1-1 1-2c0-2 4-4 5-4l2-1 1-1 1 1-1 2-1 1h9l3 1c2-2 6-1 6 1 0 3 1 4 2 4 2-1 1 1-1 2-3 2-5 1-7 0h-2l-2-1h-1l-1 2c0 3 1 3 2 1s2-1 2 1l-1 6c-2 3-1 4 2 0l3-2c1 0 2 1 1 2l-1 1v1h-1l-1 1v1l-1 1 1 1-1 2c-1 1-2 2-1 3l-3 3-9 5c-2-1-2 1-1 3h3v1l1 3c-1 10 0 12 5 12 2 0 2 1 0 2l-3-1h-1c0 3 4 4 5 2l4-2h4l2-1 1-1c1 1 4-1 5-2l2-2 1-1 1-1 2-2 2-1 1-2c-1-2 1-3 2-1l4 2c2 0 3-2 3-4l-2-5h1l7-8c0-1-1-4-4-6l-3-5c1 0 0 0 0 0l-1-2-3-2-3-3-1-2h-1c1-1-5-8-7-8l-5-5-1-1c-4 0-8-3-10-8-2-3-2-4 0-4l2 1h9c1 1 1 0 1-1-1-2-1-2-6-1-11 1-18 0-22-2s-6-2-10 3l-5 4-1 1-3 2a56 56 0 0 0-17 10l-2 1-2 1-1 2-4 2-3 3-12 8-7 5-5 3-9 6-3 2-2 2 1 1 2-1 4-2 4-2 6-3 4-4 3-1 3-3 14-7c3 0 1 3-3 3l-9 7c2 0 2 0 0 1-2 3-6 5-10 6s-11 5-11 6l2 1c1 0 2 0 1 1l-1 5c0 3 0 3-2 3l-3 1h-1l-1-2h-1l-2 1-3 2v1l1 1 1 2 1-1 1-1 1 1-2 2-2 1h-2l1-2-1-1-1 1-1 2-2 2-1 1c-1-1-1 0-1 1 0 2 0 3-1 2v-3c0-1 0-2-1-1l-1 2c0 1-2 1-7-1h-3l-1-1c1-1-5-4-6-3s-3 1-5-1l-1-1h-1-3l-2 1-1-1v-1h-1-3c-1 1-2 1-2-1h-3l-1 1h-1l1-1v-2h-7l-7 1c0 2-1 2-1 1 0-2-1-2-1-1l-2 1c-2 0-2 0-1-1 0-1 0-2-1-1l-3-1h-1c1 1 1 1-1 2-2 0-3-1-3-3 1-1 1-1 0 0h-6l-1-1v-1l-1 1-3 1-3-1v-2h-1l-1 1-2-2-1 1-2 1-2-1c-1-2-3-2-3 0l-1 2h-4-1v-2c0 1 1 1 0 0l-4-1c-2 0-4 0-3 1h-2l-18-1-6 2c-7 1-18 5-22 7s-9 3-8 1c1 0 0 0 0 0l-1 1-1 2c-2 0-4-2-4-3l-1-1 1 3c2 2 2 2-1 3a139 139 0 0 1-13 4l-5 1v-1l-1 2-2 1-2 1H42h-1v1h-2c-1-2-1-5 1-5l1-1-4 1-1 3-1 1-1 2-1 1c-1 0-3-2-2-3h-1l-1 1 1 2v0c-1-2-2-1-2 2 0 1 0 2-1 0l-2-1-1-1h-1l-1 1v2c-1 0-1 0 0 0l-1-1-2 1v1c-2 0-1-2 0-4l2-3h1c2 2 2 2 2 0-1-2 0-2 1-2l2-2 2-2 1-2 1-3-1-1-2 1v2l1 1-2-1-2-1-1-2c1-1 1-1 0 0h-3c-2 0-2 0 0 1l1 1c0 1-2 1-4-1h-2c-1 1-1 1-1-1l2-1 2-2h2l1-2v-1l1-2c0-2 0-2-1-1-2 2-3 2-3 0h-1v1l-1 2-2-1-1-1v1l-1 1-1-1c0-2-3-1-4 1l-2 1-3-1c-3 0-4-3-1-4l1-2H2l-1-1-1-12c0-11 1-11 2-9 1 1 1 2 2 1 0-1 0-1 0 0 0 2 1 2 4 2s4-1 2-2h1c2 0 2 0 0-3-1-2-1-3 2-3l2 1 3-1c1 0 2-2 1-3l-1-1c-3-3-3-4-1-5h4c-1 1 0 1 1 1v2l2-2v1c0 2 0 2 2 2l1 1 10-1h5c3 0 8-1 8-3h3l-1-2v-1l1 1 2 1h1l-1 1v1l2-1 1-1 1 1 2-1 2-1 1-13c-2 0-2-3 0-3 1-1 1 0 1 1h1l2 2 2 2v-1l1-1c1-1 3-2 8-1 9 0 10 0 9 1l4-1 2 1 1-1c1-1 0-3-1-2l-4 1c-2 0-2 0-1-1v-2h-2l1-1 1-1-1-1c-1 0-6-4-7-7-1-2 1-3 2-1l4 1 4 1c0 1 3 2 4 1l-1-4c-2-4-2-4 0-3l1-1 2-1c2-1 2-1 1-2v-3l2-1 2-1v-4h-2l1-1 1-2h1l1 2c-1 0-1 1 0 0 2-1 5-1 6 1 1 1 1 1 1-1v-2l2-2h1l3 1 1-1v1h1c1-2 2-2 2 0l-1 1c-2 0 1 2 3 3l3 2 2 2v-4c3 1 3 0 2-1s0-4 2-4l-1-1c-1-2-2-2-4-1s-3 0-1-2l-1-2c-1 0-1-1 1-3s3-2 6-2l5 1c1 1 1 0 1-1h3c1 1 1 1 0 0v-3h-1c-2 2-4 1-5-3l-1-2h-2l-2 2c-1 1-6 3-6 1l2-2 1-1-2 1h-1c-1-1 0-2 2-3 3-2 3-2 3-5-1-3-1-3 3-5 3-1 5-3 2-2-1 0-1 0 0 0l3-1c2 1 2 1 0 2l-3 2v2c2 1 2 1 2-1l2-1c2 1 4-1 3-2l-1-2 1 1 3 2 2 1 1 2c2 0 2 1 2 2-1 1 0 2 1 2l1-2c-1-1-1-2 1-2 3-1 5 1 5 5 0 3-2 4-3 1l-1-2v1l-3 1-2 1-2 1-1 1v2c-1 1-1 1 1 2 3 2 4 1 3-1v-3l2 1 1 3c1 2 1 2-1 4l-1 2 2-1 1 1c0 2 2 3 4 1v-2l-1-5c0-2 0-2 2-2l4 1 3 1c7 1 6 1 7-3 0-2 0-4 1-3 1 0 3-1 3-3l-2 1h-5l-3 1v1h1l1 1-2-1-1-2v-1l1-1v-1-1l1-1v2l1 2v-1h2l-1-1c-1-2 0-2 3 0l4 1h2v3c1 2 4 0 4-2l1-2 4 3h4l4 1h2c2-1 3-1 6 1l2 1v1c0 1 3 2 8 2l4-1 1-1 5-1c3-2 3-2 3 0h2l1 2 1-1 4 1c1 0 13-3 16-5l4-1c2 0 3-1 3-2 1-2 2-3 3-2l1-1v-1l1 1 2 1h1l-1-1h-1l3-2 4-2 3-1 2-2 2-1c-1 2 2 1 3-1h8l8 1 7-2c1-2 1-2-1 0-2 1-2 1-3-2v-1h1l5-1 3-1 4-1c4-2 7-2 6 0h2c3-2 6-2 6 0h-2c-2 0-3 0-2 1h-1l-4 2h-2v-2l1-1v-1l-4 2c1 2 0 3-2 4s-3 1-2 2h-1l-2 1v1c2 1 10 0 10-1l2-2 3-2c-1-2 0-2 2 0h3c1-2 2-2 2 0s0 2 3 2l4-2 5-3 4-2h1c1 1 5 0 8-2l1-2c-2 0-6 0-7 2h-2l1-2 3-4h-1l-1 1 2-2 2-3c0-3 3-4 6-3h3l4 1h3v-1l2-1 2-1 2-2 1-1c-1-2-1-2-8 0-8 3-10 3-11 2s2-5 4-6h2c-1 1 2 2 5 2l3-1 4-1h1c1 0 0 0 0 0-1 1 0 2 1 2l6-3c3-3 3-3-1-2h-1l2-1c2-1 2-1 0-1l-3 1h-1l-2 1-2 1h-1c0-1-3-2-4 0h-1c1-2 19-9 21-8 0 0 1 0 0 0-1-2 21-7 23-6l1-1h5c4 1 10 0 13-3l7-3 5-3 1-2 2-1 3-2c2 0 4-2 5-4l4-3 3-1 13-7 8-4 7-3 12-6 3-2 3-1 17-7 6-3c1-2 7-4 11-4l9-1 19-2h15l5 1 11 1 16 4a131 131 0 0 0 17 7c7 4 13 6 15 4l7-2a89 89 0 0 0 11-4l4-2 5-1 8 1 9 1 14 1 17 1c5 2 7 2 12 1a30 30 0 0 1 12 0h2l16-1 5-1 7-3 6-2c3 0 11 2 12 4l4 1 4 1 2 1 4 2 5 3 13 5 4 2 7 5c3 3 5 3 8 3l3 1h1l3 1 5 1h3l4 3 4 2 12 5 11 4a109 109 0 0 1 16 7c0 1 4 3 9 4 3 1 7 5 6 7 0 0 0 1 0 0l2 1 2 2 9 4 2 1 2 1 2 1 2 1 1 1 1 1 3 2 3 2 2 3 2 3c0 3 0 3 3 4 5 0 8 2 8 4l1 2 7 5 1 1 3 1 5 1c3 0 4 1 4 2v1l2 1v1l-1 1 2 2 5 2 4 3 1 1c1-1 7 7 7 9h1l4 1 2 1 6 1 7 1 7-1c4 0 6 0 11 2l9 3c3 0 6 2 9 4l9 4 7 5 8 3 4 2h1l4 2c7 3 23 7 34 8 6 1 6-1 17 5l11 3c6 1 11 4 13 6 3 3 4 3 6 0l8-1 8 2 9 6 5 3 3 1h9c11 0 11 0 15 2 3 3 9 5 10 4h1c3 3 19 4 23 3h10a136 136 0 0 0 41 1l3 1 21-2 4 2 5 2c2 0 3 2 3 3v68a544 544 0 0 1-3 68l-4 1h-1l1-2c0-2 0-2 1-1h1l-1-1-3 2-1 1-1-1h-1c-3 1-5 1-4-1h-1l-1 2-2 2c-2-1-3 0-2 2 1 1 1 1 0 0l-2-1v1l-1 1v-2l1-2h-1c-1 1-3 0-3-2l-1-2v2c0 2-3 2-5 1-3-2-3-2-4 0s-2 2-2 1h-1c0 1-2 1-2-1h-1-1l-2 1v3l-2-1c-2-1-5 0-5 1l1 2v1l-2-1c1-1-3-3-5-3h-2l-2-1-2 1h4l1 1v2l-1 2-1-2-1-1-1 1-1 2-1 1v2l-2-2 1-2 1-1h-1v-1c1-1 1-1-1-1l-3 1s-1 0 0 0v3c0 1 0 2 1 1l1 1c1 2 0 3-1 1l-3-1-1-3c1 0 0 0 0 0l-3-1h-1l2 4 1 3h2l-4 3-2 1-2 1 1-2 1-1v-1l-2 2c-2 3-5 4-4 2h-1l-1 3v1l-1-2c-2 0-2 3-1 6l1 2 2 1 1 1 1 3-1 4-1-2c0-1-1-2-2-1l-1 1h-2l1-1c2 0 2-2 0-5l-1-2-3 4c0 2-3 2-3 0l-2-2-1 2-1 3h-1 1c2 0 2 0 1 2h-1l-1-1-2 1-2 1h-2-1l1-1h-2c-2 2-2 3 0 2 3-1 2 0 0 2s-4 2-3 1v-1c-2 0-3-1-2-2h1l1 1c1 0 1-1-1-2l-2-1v1h-1c1 2 1 2-1 1h-1l-1-1-3-2c-2 0-3 1-3 2l-1 1v6c0 2 0 2 0 0 0-3-1-5-2-5l1 7c2 1 2 2 0 2l-2 1-1 1-1 2c0 2 0 2-1 1s-2-4 0-4v-1h1l2-2h-4l-1-2c-2 0-2 2-1 2l1 4-2 5c-2 2-2 2-1 0l1-3 1-1-2-1-3-1c0-1-1-1-2 1h1v3l-1 2h-1l-5-1h-1c1-1 1-2-1-2s-1 2 1 3 2 3 0 3l-1-1h-2c-1 2-1 2 1 2v1l-3-3-2 1-1 6v3h-1l-1 1c-2-1-2-3 0-3l1-2-1-2-1 2-1 1-1 1v1c-1 0-2-3-1-4h1c1 1 2 0 2-1l-1-1h-2c-2 1-2 1-2 3 0 3-1 4-3 3s-2-1 0-1l2-1h-4l-1 2v1l-2-1-1 1h-2l-3-1-2-1-1-1-2 2h1l3 2c2 3 1 4-1 1l-5-2-3-1v-1h-1l-1-1-1 2c2 2 1 3-1 3l-1-2-1-1-1 1-1 2-2-1-1-1v1l-2 1h-2l-1-2v-1l1-1c-1-1-3 0-3 2s-1 4-2 3l-5-1 1 1 1 2h-1l-1-1-1-2-1-1h-1v4l-1 5-1-1-2-1-2-1v-1c-4 1-5 0-5-2h-2-2l-1 1c-1 2-1 2-2 1h-1-3-1v-2c2-2 3-4 2-5l-1 1c-1 3-3 5-4 5v-1-1l-1-1c0-2 0-2-2-1-1 1-1 1 0 0l-1-2h-1l-2-1v1l-2 2c0 1-1 2-2 1 0-1-4-2-4 0-1 1-4 1-4-1h2c2 0 2 0 1-1-1 0-2-1-1-2l-1 1-3 2-5 1c-5 0-5 0-4 2v1c-1 0-2-1-2-3s0-2-1-1v3l-1 2-1-1c1-1 0-1-1-1h-1l-1 1v-2c0-2 0-2-1-1l-4-1-4 1 1 2 2-1h1c1 3 1 3-2 3l-3-1h-1c-1 1-4 1-4-1l-3 1c0 2-3 2-4 0h-1c-1 2 0 2 2 2l2 1-1 1c-1 1-3 0-4-1-1-2-2-2-3-1l1 1 1 2c0 3-2 3-3 1zm89-6h-2 2zm-84-3h-3l3 1c2 0 2 0 0-1zm38-3c1-1 1-1-1-1l-1 1c0 2 1 2 2 0zm12 0h-2l3 1v-1h-1zm-15-2l-1-1c1-1 0-1 0 0v2h1v-1zm70 0c0-1-2-1-2 1v1l2-2zm5 0v-1l2-1c0-2-2-1-3 0s0 3 1 3v-1zm56-20h-1v2l1-2zm-343-7l-1-2-1 2h2zm378-3c1-2 0-4-3-2-2 0-2 2-1 2h2c0 2 1 1 2 0zm-3-4l-1-1-1 1 1 1c1 0 2 0 1-1zm12-7c-1-1-1 1-1 2 1 2 1 2 1 0v-2zm13-8l-1-1c-2 0-3 1-1 2l2-1zm5-4l-2-1-2 1 2 1 2-1zm27-10l-2-1-2 1h4zm-373-79v-2c0-2 5-5 6-4h1l-1-1v-4c1-4 1-4 5-4 5 0 5 0 4-2l-1-1v-1c1-1 5 0 5 1h1c2 0 1-3 0-4l-10 2-9 1c-5-1-7 0-9 1l-4 1c-2-1-4 2-4 4 1 2 0 3-2 1-2-1-2-3 0-3 1 1 1 0 1-2-1-3-3-5-5-4-3 0-3 0-2-4l-1-4-1-2c0-2 0-2-4-1-5 2-8 5-10 8v3l1 3v1c1-1 1 0 1 2l2 2c1 0 1 0 0 0l1 4h2l3 2 5 3c3 0 3 0 2-1-1-3 1-3 3-1s5 4 5 2v-1 3 1l2-2c1-1 1-2-2-4-2-2-3-3-1-3s5 3 5 4c0 2 3 5 4 5h1l4 1h2zm-605-3v-2h-4l-1 1h2l3 1 1 1-1-1zm-275-6v-1h-1v2c1 2 1 2 1 0v-1zm1026 0l-1-1c-1 1-1 2 1 2v1l1-1-1-1zm-8-1c0-1-1-2-2 0h-1l-1-1c-1 1 1 3 3 3l1-2zM57 255l-1-1-1 2c0 2 2 1 2-1zm9-2h-2v3h1l1-3zm964 2l-4-2c-2 0-2 1-1 2l4 1c2 0 2 0 1-1zm-13-5l-1-3c0-2 0-2 2 0 4 2 11 4 12 3l-2-2c-3-3-2-4 2-3l2 1 1 1h2c0-2 1-2 2-1l3 1h1l-3-2-3-2-15-6c-13-6-20-8-12-4l9 4c4 2 9 5 5 4l-7-2-7-3c-2-2-5-4-11-6-17-6-16-6-17-8l1-1c0 3 5 4 12 4 5 0 7 0 10 2l5 2 9 3 13 5 10 3 4-1h2l1 1c1-2-1-3-2-3h-2l-6-1-7-1-1-1-7-3a160 160 0 0 0-11-7h-4l-11-4a470 470 0 0 1-15-3l3 1h1l-1 1c-1 1-2 0-3-1h-2l-1 2v1l-1-2v-2l-3 4-1 3h-2l-1-1c-1 0 1 3 4 4l5 2 4 2h2c1-1 5 0 5 1l11 5 1 1 5 2-2 3-4 1-2 1 1 1h2l2 1c-1 1 0 2 1 2l2 1h1c-1-1 0-1 1-1h2l2 1 2 1v2l1 1 1-1v-3zm-24 2c1-2 1-2 2-1v1l1-1-1-1-2-2-6-3-12-7c-7-4-9-5-9-3l-1 1v-2h-3l-4-1-2-1-4-2-6-4c-8-6-10-7-10-9l2-1c1-1 1-1-1-2l-3-1-1-1c1-1-1-1-7-2l-4 1-4-1-3-1c0 2 4 4 6 4h4v1c-3 2-2 3 2 3l4-1c-1 0-1 0 0 0v1l2 2c3 0 6 2 6 3s-5 1-6-1h-2-1l-1-1h-1l-7-3-8-1-12-4h5c0-1-4-3-5-2l-1-1h-1l-2-1-4-3 1-1 1 1 2 1 3 1 5 1h3l2-1v-3l3-3c1-2 2-2 4-2h2l1 1 4 2 7 5 4 2 2 2c0 2 1 2 4 2h4l-5-3-4-3v-3c-1-3 4-2 6 0l3 3 2 1c1 2 3 2 3 1l1-1 1 1h5v-1l-4-3-7-3-7-2-2-1h-1l-9-6-6-3-6-1-8-2-7-1-3-1-6-1c-5-2-12-3-13-2l-3-1h-6l-1-1h-1l-1-1c0-2-1-2-2 0-2 1-4 0-4-3 0-1 0-2-2-2h-10l-2 2h4c5 0 6 0 10 3s5 4 8 4l4-1h1c0 2 2 2 5 1l5 1c5 1 6 2 5 3l-1 4 3 1 3 1 4 1c1-1 3 0 6 1 5 3 5 4 3 6-2 1-3 1-3-1 0-1-10-4-12-3-9 0-10 0-12-2-1-2-1-2-1 0l-2 5v5h3c1 0 2 0 2 2l3 2 3 1 1 1c2 0 5 4 5 5l-1 3-1 1a97 97 0 0 1-23-1l5 1c3 1 3 1 3 3v3h1v-1l3-1c3-1 3-1 2 1-2 3 0 3 2 2l5-1 5-1 5 1c2 0 2 0 2-2l-2-3c-2-1-1-1 3-2s6 2 6 8v5c0 2 2 3 4 4 2 0 3 1 3 2l1 1 3 2c3 2 3 3 6 2h7l6-2c1-2 3-2 6-2s4 1 5 2l7 1c7 0 8 0 8 3-1 2 1 3 4 2h7c1 1 1 1 1-2v-2l1 3v1l2-2 1-1v2l1 2 1 2c0 2 2 3 2 1l-1-2c0-1 1-1 2 1l3 1 3-1 1 1v2l1-1zm-585-4l-2-3c-1-1-1-1-1 1l3 3v-1zm588-7l-3-1-4-2-2-1 1 1 2 3 2 1 3 1c1 1 2-1 1-2zm7 2c1-1 0-1-1-1l-1 1 1 1 1-1zm-117-2l2-2c2 0 2 0 1-1l-2-2v-1c0-1-2-2-6-2-2 0-1 1 1 3v3h1v1l2 2h1v-1zm-865-2c-2-1-2-3 0-3v-6h-1c-2 0-6 2-6 4l-1 1v1l1 1 6 2h1zm5-6c0-2 0-2-2-1-2 2-1 4 0 3l2-2zm1094-15c3 1 5 0 5-2h-1c-1 0-2 0-2-2l-2-1v-1c3 0 3 0 1-3v-2l1-1h-1v-1-3 2h-2l-1-2v-1l-1-1-1-2c-2-3 1-4 2 0h3l-2-3-3-1h-1l-4-1-3-2h-3c-1 2-1 2 3 2 4 1 7 4 7 7 0 2 0 2-3 2h-3-2l-1 1s0 1 0 0h-1l-1-1 1-2 1-1c0-1-3-2-4-1v2h1v2c2 3-2 5-5 2l-4-1c-3 1-4 0-5-1s-1-2 3-2c1-1 3 0 3 1 2 1 2 1 2-2 1-3-1-4-3-2 0 1-1 2-2 1h-2v1l-1-2c0-2-4-2-4 0h-2c-2-1-2-1-1-3 1-3 0-4-2-3-2 0-2 1-1 3v2 4c-1 1-1 2 1 3l11 4v1h1l1-1 1-1 1 2c-1 2 1 2 6 2l11 1 4 1c2 0 2 0 2 2 0 3-1 3-5-1-2-2-3-2-5-2l-4 1c-3 0 0 2 4 2l6 3 3 1h3zm-630 0l2-1 2-3c2-3 1-4-5-3h-4l-2-1v-1l-1 2-1 3c0 1 0 1 0 0l3 2c1 2 3 3 3 2h3zm399-1h-3c-1 1-1 1 1 1l2-1zm-459-6l-1-6c-2-4-7-1-7 5 0 2 4 6 5 6l3-5zm-73 2l-1-3h-3c-1 1-1 1 1 3s3 2 3 0zm447-2l-1-1 3-3v2l1 2h2c2 1 2 0 2-1l-1-3v-2c1-1 1-1-1-3l-1-1-1-2-2-3-1 1h-3c-1 0-2-1-2-3l1-2h1l-2-1c-3-1-3-2-2-3s-2-5-4-4c-2 0-5-1-5-3 1-1-1-4-2-4-1 1-1 0-1-1l-1-2-2-2c0-1 0-3-2-3-2-2-2-2-1 0l1 2v2l1 1-3 5c-1 3-1 3-3 1l-2-2c0-2-2-1-4 0-3 2-6 2-6 0h-1l-1 1-1-1c1-1-1-5-2-5-2 0 1 8 4 9v3c0 1 0 2 2 2v-1l-1-2c1-1 8-1 8 1 0 1-2 3-3 2h-1l1 1v2l-2 1-2 1c0 3-4 3-5 0l-1-2-1 1h-1l-2 1c-1 1 2 3 4 3l2 1 1 1v-1l1-1 1 2 1 3h1l1-1v1h1c2 0 2 1 1 2-1 0-1 0 0 0l3 1h3l-1-1c-3-1-2-3 0-3l2 2 3 1h3l1 1c2-1 4 0 4 1s1 2 3 2c2 1 2 2 2 3l1 1h3l2 1 1 1h2c3 2 4 1 4-1zm336-2h1v-2l-11-3c0 1 7 6 9 6l1-1zm-583 1v-3l-1-1-2-1h-1l2 2v4l2-1zm-329-1l4-1 3-1-3-2-1-1-1-1v1c0 1 0 2-2 2-1 0-2 0-3 2s0 2 3 1zm693-1l-4-2 1 2c3 2 5 2 3 0zm52-1l-3-2c-3-2-3-2-3 0 0 1 1 2 3 2h3zm185-3c0-3 0-3-3-3-2-1-2-1-1 1l-1 1c-3 0-4-2-3-3l1-1v-1h1l3 1h3c1 2 6 4 7 3h3c2 0 3-1 3-2v-8l-1 1c0 2-2 2-2 1l-1-1h-1l-2-1-4-2-1-1-1-1-1 2c0 2-1 2-3 1 0-1-1-1-3 1s-2 3 0 3l1 1c1 1 0 1-4 1l-3 1-2-2-2-3c1-1 2 0 3 1l3 2v-2c-2-1-2-2-1-2l2-1h-1l-1-1c1-2 1-2-1-2-3 1-3 0-1-1l1-1h-1c-2-2-4 0-3 2s1 3-1 3l-2-2-1-1-3-2-1-2h-1l-3-1c-3 0-3 1-3 2l-1 2c-1 1-2 1-3-1l-2 1c0 1 0 2 2 3 3 1 3 2 0 1-2 0-2 0-1 1s2 2 5 1l2 1c-1 2 1 3 4 3l5 1c2 2 5 3 9 2 2 0 2 0 2 2l1 2 8 1c2 1 2 1 1-1zm-16 1l1-2-1-1-3-1c-6-3-9-4-9-2s5 5 8 5h2c0 1 1 2 2 1zm-899-1l17-7 1-2 1-2c3-1 2-2-3-2-4 0-15 3-15 5l-1 1c-2 0-7 4-6 5l1 1v2c-2 1 1 1 5-1zm904-3c-1-1-2 2-1 3l1-1v-2zm-335 0h-3l3 1c2-1 2-1 0-1zm147 0l-1-3h-2v1 2c2 2 3 2 3 0zm8 1l-7-5c-1 0 0 2 2 3l5 2zm-92-5v-1l-2 2v2l2-3zm200-1l-2-3c0-2 0-2-1-1s-1 1-2-1l-2-1-2 1-2 2c0 2 2 2 6 2l4 1 2 1-1-1zm-520 0l2-3c0-2-3-6-5-5l1 2c2 1 3 5 0 6h2zm401-1l-1-1-1-1 2-1-1-1c-1 1-3-3-3-4h-3c-3 0-5-2-2-2v-1l-2-3-2-3-3-3-3-2-3-1h-2c-1 1-2 0-2-1 0-3-1-4-3-4-3 0-3 2 0 2h1l-1 1h-2l1 1 1 1c1 2-3 1-8-1-3-2-3-2-3 0 0 1 0 2 1 1l4 1c3 1 8 3 13 3l5 3 4 3c1 0 1 1-1 3s-3 2-3 1l-1-2h-1l1 1 1 2c0 2 1 2 8 4 2 0 3 1 3 2s1 2 3 2h3zm5 0l-2-1c-3-2-3-1 0 0l2 1zm-418-3l-2-1 3 3-1-2zm560-2c-2-1-6-1-7 1h2l3 1c2 1 3 0 2-2zm-39 0h-4l-2-1 2-1h3c1 0 2 0 1-2v-4c0-2 0-2-1-1l-1 1-1 2c0 1-1 3-3 3s-3 1-3 3c1 1 8 2 9 0zm31 0c1-2-1-3-4-2-2 0-2 1-1 1v1c-1 1-1 1 2 1l3-1zm19-2l-1-3-1 2 1 3 1-2zm-29-1l-2-2v-2l-1-1-2 1v2 2l2 2h2c2 1 2 0 1-2zm34 1l-1-1-2-2c0-2 0-2-1 1 0 2 1 3 3 3l1-1zm-841-4c1-1-1-1-3 1h-2v1h2c2 0 3-1 3-2zm116 0c0-1 0-2 2-3l2-4-1-1-1 1-3 3h-2c-1-2-7-3-13-2-4 0-5 1-3 1l2 1h2l1 1 2 1h1l1-1 2 2c1 2 2 2 5 0h2v2 1c2 1 3 0 1-2zm157 1l-4-5-4-5c-1-3-2-3-3 0 0 3 1 6 4 7l3 1 1 1 2 1c2 2 2 2 1 0zm546-1h-1v-1-2l-2 1h-3l-4 1c0 1 1 2 3 2l7-1zm-341 0c-2-2-3-2-2 1l2 1c2 0 2 0 0-2zm247 1l-1-1-3-1-4-2 2 3c0 1 2 2 5 2l1-1zm-68-1l-4-1h-3l7 1zm-831-1l-2-1h-1l1 1h2zm425 0l-1-1-1-1-1 1 2 1h1zm-245-2l14-4 2-2 1-1-1-1v-2c2 0 2-1 0-2-2-2-10-1-11 1l-5 6-2 3-2 2c-2-1-2 0-1 1s1 1 5-1zm797-2h-3l1 1 2 1h2l-2-2zm-89 2l-1-1h-5-1c-1 0-2 0-1 1h8zm-58-1a120 120 0 0 0-15-5h-1l-1-1-4-2c-3-2-6-3-4-1l3 2 4 4 1 1c0-2 1-2 3-1l4 1v1h3l3 1 4 1v-1zm-821-4h-4l1 1 2 1h1v-2zm980 0l-2-1c-1 1 0 1 1 1h1zm17 1l-2-2h-1l3 2s1 0 0 0zm-358 0l-2-2v-1-2c-2-2 0-3 3-3s5-1 4-3h-2l-2-2c-2-2-2-2 0-3 2-2 1-2-2-1h-3l-1-1c-3 1-3-1-1-2l1-1-4 1c-2 1-3 2-4 6-2 5-2 5 0 7l5 5h2c1 1 2 2 5 2 0 1 0 1 0 0h1zm228 0l2-1c3 0 2 0-1-2-6-3-8-3-9-2l1 1 2 1 3 1h1c0 1-1 2-2 1l-3-1c-2 0-1 1 2 2h4zm-872-1l-3-1c-1 0-2 0-1 1l2 1 2-1zm664-2c1-2-1-3-3-1s-2 3 1 3l2-2zm197 1v-1c-2-1-5-1-4 1l1 1 3-1zm30-1l-4-1-3 1 4 1c4 0 4 0 3-1zm-156 0l-5-4-1 1 7 3h-1zm60-1l-2-1v1l1 1h1v-1zm-8-1l1-1h-2c-1 2-1 2-3 1-1-1-1-1 0 0 2 2 1 2 4 0zm10-1c0-1 0-2 1-1l-2-2-1 1v1c3 3 3 3 2 1zm89 0l-2-1h-3l3 1h2zm-158-2c0-2-1-2-3-1-1 1-1 1 1 1h2zm-530-2l3-1 3-1c2-2 2-2-1-2h-3l-3 1-3 1c-2 2-1 2 0 2h2c-1 2 0 2 2 0zm588 0l-6-2c-4 0-6-2-8-3-2-2-4-3-4 0l2 2 2 1 2 2h5l3 1h3l2 1-1-2zm-132-1l-1-2h-1l-1 1h-1l2 1h2zm16-2c1 0 2-1 0-2l-7-3v-1c2 1 2 0 1-1l-4-2-4-2c-1-1-4-1-4 1s-1 2-3-1l-1-2c2-1 2-1 1-3l-1-1-3-6-3-5c-3-5-3-5-2-2 0 2 0 3-2 3v3c2 1 2 5 0 5l-1-1-1-2c-2-1-2-1 0 2l1 6 1 4 1-1h4l3 2v1h1l1-1 4 2 6 3 3 1h1l1 1h1l1 1 1 1h4zm44-2l-2-4-1-2-1-2-1-3-1-2c-1 0-2 0-2 2 0 1-1 1-6-1h-4 1l2 2c0 1 2 3 5 4 0 1 1 0 0 0-5-4-5-4 0-3l5 2 1 1-1 1h-2l2 3 6 4-1-2zm-55 1v-1l-4-2h-7c-1 0-1 0 0 0l3 1c2 2 4 3 6 2h2zm143-2l-1 1v1c1 1 2-1 1-2zm-37 1l1-1h1-7l4 2 1-1zm28-2v-1-1h-2l2 4c0 1 0 0 0 0v-2zm21 2l-5-1v1h5zm-55-2h-4 4zm22 0l-3-1c-2 0-2 0-1 1h4zm-716-2c1-2 3-3 6-4h2c-2-1-2-1 0-3v-2l-1 1h-1l-1-1-4 2v-2l1-2 1-1c0-1-2-2-5 0-2 1-2 1 0 1 2-1 2-1 1 2 0 3-3 7-4 6l-2 1c-2 2-1 3 4 4 2 0 3-1 3-2zm556 0v-1h-1-1l-2 1h4zm132-1c-1-2-4-3-5-2 0 1 3 4 5 4v-2zm5-3c-2-2-3-1-2 1l2 1c2 0 2 0 0-2zm-699 0c1-1 0-1-2-1s-3 0-2-1l-2-1c-3 1-2 2 1 3h5zm560 0l-2-1h-2l3 2 1-1zm-571-3h-1l-1-2v-2l-2-1-2-1h-1c1-2 0-4-2-3l-2 4h2c2 0 5 3 4 3l4 3 1-1zm646 1l-3-2h-1c-1 1 0 2 3 2h1zm-7-3l-1-1-1 1 1 1 2 1v-1l-1-1zm-636-1c1-1 1-3-1-4-2 0-2 0-2 3 1 3 1 3 3 1zm36-1c3 0 3-2 1-4l-3-4c0-2-1-3-2-3l-3-3c-1-2-2-2-3-2h-3l-2-1c0 1 0 2 2 2 2 2 2 3 1 4v1c2 0 2 0 1 2-1 1-1 1 0 0 2 0 2 1 0 2l2 3 2 2c0 1 2 3 3 2l4-1zm542 1h-4l2 1 2-1zm-33-4v-2l1-2c1-3 1-3-1-3s-5-2-5-3c0-2 3-1 5 1s4 3 4 1h-1c-1 0-4-2-4-5 0-1 0-2-2-2l-2-2-3-1h-3s-1 0 0 0c0 2-1 2-2 0l-2 1c0 1-1 2-2 1l-2 1-2 1-3 1h-2c0 1 2 2 6 2 3 0 3 0 2-1-1 0-1-1 1-1 5 0 6 0 4 2s-2 2 1 3h1l1-3h1l2 2 3 1c1 2 1 2-1 2-1 0-1 1 1 3l3 3v1l1-1zm248-1v-4-3h-2l-1-2-2-2-1 2c0 3 1 5 2 3 2-2 2 0 2 5h-4c-1-2-2-2-2 0 1 3 5 3 8 1zm-167-3l-3-3-5-4c-1-2-1-2-1 0s1 4 5 6l4 1zm157-6h-1-1c-1-1-1-1-1 1v1l2 1c1 1 2-2 1-3zm-50 1c0-2-2-3-2-2l2 3v-1zm-25 0l-2-1-1 1 2 1 1-1zm128 0l-3-3-2-1c-2 0-2 0 0 0 0 0 2 1 2 3l3 2v-1zm-271-1v-6c0-2-1-3-2-3h-2l1 3c2 3 2 3 0 5h-2v-1 1c-1 1 1 2 3 1h2zm281-1v-2l-1 1-1 1h-1 3zm-115-3l-1-1h-2l-1-1h-2l1 2c2 0 3 1 3 2h2v-2zm71 2l-3-1c-3 0-1 1 2 2h2v-1h-1zm-187-1l-2-1c-2 0-2 0-1 1h3zm83-1l-3-1 1 1c2 2 3 2 2 0zm101-3l-4-2 1 2-1 1-1-2-1-2-4-1c-2-2-3-1-2 2 2 2 5 4 10 4 3 0 3 0 2-2zm29 0l-1-1v3l1-2zm-51 1c0-2-1-2-2-2-1 1 0 2 1 2h1zm-201-2h-2l-3 1h3l2-1zm45-1h-2v1l1 1c2 0 3-1 1-2zm200 1l-1-1v-2h-1v2c0 2 2 2 2 1zm-125-2l-3-3c-1-2-2-2-2-1 1 1-2 1-3-1s-5-2-6-1 3 3 5 3l6 2 3 3v-2zm-100-1l-2-2h-1c0 1 2 3 4 3l-1-1zm9 0l-2-1c-2 0-2 0-1 1s4 2 3 0zm116-1l-1-1h-2v1h3zm-103-1l-1-1h-1l1 1v1l1-1zm-36 0h-3c-4 0-4 1 0 1l3-1zm14-2h3c-1-2-1-2-4-1l-2 1 2 1 1-1zm120 0l1-1v-1c1 0 1 0 0 0-2-2-2-1-3 1v1h2zm-20-2l-2-1c-1 1-2 0-3-3l-1-3c1 0-1-4-4-6l-3-3c-2-2-2-2-3-1v2c1-1 1 0 2 1l2 1h2l2 3v2c-1 0-1 1 1 4l3 4h4zm-562-3h-5c-1 1 0 1 2 1 3 0 4 0 3-1zm426-10l-5-4-4-1 4 3 5 2zm116-5l-3-2c-3-1-4 0-1 2h4zm-13-4h-1l-1-1h-2l2 3c2 1 3 1 2-2zm-99 0l-3-1-2-2-3 1h1l2 1c1 1 2 2 3 1l1 1c0 1 0 2 1 1v-2zm-370-1c0-1-3 0-3 2h2c1 0 2-1 1-2zm392-3c0-1-4-5-5-4l-2-1h-1l3 3 2 3c-1 1 1 2 2 1l1-2zm69 0l-1-1v1l1 2v-2zm-459 0c1-1 1-1-1-1l-2 1h3zm465-1l-1-2v-1h-1l1-1-1-1-1-2v-1h-1c-2 0-2 1-1 2v4c-1 1 2 3 3 3h2c2 1 2 1 0-1zm-105 0v-1-1l-2-2-2-2v2l2 3 2 2v-1zm-50-4l2-1-2-1-3 1-2 1-2 1c2 2 2 2 4 0l3-1zm14 1c-1-1-2-2-3-1l-1-1h-2c-2 0-2 0 0 1l2 1h1l2 1c2 1 3 1 1-1zm63-4l-1-1-2-2-2-1h-1c2 5 2 5 4 5l2-1zm-382 0l-1-2-1 1v1l1 1 1-1zm301-3l-1-2v2l-1 1v1c2 2 2 2 2-2zm28 0c-1-2-3-3-3-1l1 1 2 2c0 1 0 2 1 1l-1-3zm-22 0h1l1 1h2v-1-1-2c0-1-1-1 0 0 0 2-1 3-4 2l-2 1c0 2 1 2 1 1l1-1zm18 0c-2-1-3-2-1-3 1 0 1-1-1-3-4-3-6-4-9-3-2 0-3 4 0 4l2 1 1-1h1l3 1 1 1h-1c-2 0-2 0 0 2s3 3 5 2v-1h-1zm-289-2c2-2 1-2-2-1l-1 2h2l1-1zm318 0v-1c1-1 0-1-1-2h-3c-1 1-1 0-1-1 1-2-4-8-6-8l-4-2c-3-2-5-2-5 1h2l3 2c1 1 1 1-1 1v1l1 1c1 1 3 3 5 3 1 1 2 1 1 2l6 2 2 2c1 1 3 1 1-1zm-25-2c-2-4-4-5-6-4l2 1 3 3c3 3 3 2 1 0zm-303-3l1-1-3 1-1 1 3-1zm25-2v-1l-2 1-1 1 3-1zm251-4c0-1-1-2-3-1v1h3zm39-7v-1l-1-1-1 1c-3 1-1 4 2 3v-2zm13 1l-2-3c-3-2-6-3-7-1h1c2 0 4 1 4 3 0 1 1 2 3 2l1-1zm-26-3l-2-3c-1-2-2 2-1 4 2 2 3 2 3-1zm1-6l2-1h1l2-1h1c0-1-3-4-5-4l-2-2c-1-2-3 1-2 3l1 4c-1 2 0 2 1 2l1-1zm15 0c1-1 1-2-1-1l-2-1v2h3zm12 0l-2-1-3-2h-2l-5-2-4-2c0-1 0 0 0 0l1 1 1 1 1 1 3 1c4 3 10 5 10 3zm20-2c0-2-3-4-5-4l-1 1 1 1 2 2v1h1l2-1zm-52-4v-2l-1 2v5l1-5zm117 3h3c-1-2-2-2-3-1-2 1-4 0-5-2l-2-2-3-1-4-2-4 4h3l4 1 2 1 3 1 5 2 1-1zm-141-6v-1l-2 1h2zm66 0c1-1 2-1 1-2l-2 2c-2 1-1 2 1 0zm68-2l-2-1v2c1 2 2 1 2-1zm-87-1l-1-1-2 1h3zm17-2c1-2 1-2-1-1l-1-1c1-1 0-1-1-1-2 0-3 1-1 3h4zm-60-3l-2-1c-3 0-3 0-2 1 2 2 4 2 4 0zm5-5h-1l-2-1h3l4 1 2 2c2 0 2-1 0-3s-2-2 5-1c6 0 7 0 6-1l-3-1-2-2-2-1v2l-14 2-1 1h-1l1 1v2c-1 1-1 1 0 0l2 1c2 1 3 0 3-2zm41 2h-4l2 1 2-1zm-35-9v-1h-5l-3 1h-1 9z" fill="#607397"/><path d="M1010 243c-1-1-1-1 1-1l1 1h-2zM931 237c-3 0-4-2-2-3 3-1 3-3 2-4-3-2-6-1-8 0-2 2-4 3-6 1v-10c3 0 17 5 19 7v3c-2 1-2 1 0 2l2 2c2 0 2 1 0 2h-7zM1052 209l-2-1h3l3 1c0 2 0 2-4 0zM1038 205c-1-1 0-2 1-1l1 1h-2zM1033 203v-1l2 2-2-1zM799 208l-2-2h3l2 1-3 1zM789 190l1-1h3c0 2-3 2-4 1zM779 188l-1-3c1-1 1 0 2 1 2 3 1 4-1 2zM1091 199c-1 0-2-1-1-2v-1h-2c0 2 0 2 0 0l-1-1-1-1c2-2 8 2 8 4s-1 2-3 1zM1079 190c-1-1 1-3 2-2l1 2h-3zM192 146l-2-1h5c1 1-1 1-3 1zM1034 423l-2-2-2-1c0-2 4 0 5 2l1 1 2-1c0-2 0-2 1-1 1 2 1 2-2 3l-3-1zM1198 422c-1-1-1-1 0 0l3 2-3-2zM1207 422c-1-2-1-2 2 0v2l-2-2zM1027 419c-1-1 0-2 1-2h1c0 2-1 2-2 2zM1187 418l-1-2-1-1c1-1 4 2 4 3l-1 1-1-1zM1191 417l2-1 1 1-2 1-1-1zM1187 414v-2l1 1c0 2 0 3-1 1zM981 410v-2l2 1 1 1c0 2-2 2-3 0zM989 411h3c2 0 2 1 0 1l-3-1zM985 408c-2-1-2-2 0-2l1 2c0 2 0 2-1 0zM1231 403l1-2v2l-2 2 1-2zM1208 404l1-2 1 1-1 1h-1zM1211 401l1-2c1 0 1 0 0 0l1-1v3h-2zM1233 398l1-3c1-1 2 2 1 4-2 1-2 1-2-1zM1259 399l2-1-1 1c-2 2-3 1-1 0zM1226 396l2-1c2 0 2 1 0 1h-2zM1266 395l-1-1c-1 1-2 0-1-1l-2-2-2-1c0-2 2-1 4 0l2 1 1 3v3l-1-2zM82 395h4c1 1 1 1-1 1l-3-1zM1231 394l-1-1h-2c0-1 1-2 3-1l2 2h-2zM1244 393l-1-2 1 1 2 1v1l-2-1zM130 393l-1-5v-5c-1-2 0-2 2 0l9 5c2 1 2 3-2 4-4 2-7 2-8 1zM1237 392l1-1c1-1 1-1-1-2l-1-2c2 0 4 2 3 4 0 2-2 2-2 1zM1247 391v-1l2 1h-2zM1254 390l-1-2c-2-2-3-3-1-3l2 1v1l1-1v-2-1c-1-2-1-4 1-4l1 2 2 1 1 2-2 1c-2 0-2 0-2 2l-1 3h-1zM1228 387c0-3 1-6 2-4v2c-2 3-1 3 1 2l1-1-1 1v2c0 2-2 2-3-2zM1249 389l-3-1c-3 0-3 0 0-1l2-2c0-1 3 2 3 4l-1 1-1-1zM1267 389v-2h1l1 1c2-1 1-1 0 0l-2 1c-1 0-1 0 0 0zM873 388c0-1 2-3 3-2l-2 1-1 1zM1264 385v-2c1-2 1-2 1 0 0 3 0 3-1 2zM807 380l2-1c3 0 2 0-1 1h-1zM786 376v-2 1h2l1 1h-3zM1267 370c0-1 3-4 5-4h1l-1 1-2 1-1 1-1 1h-1zM311 368l-4-2-6-2c-5-2-8-2-11 0l-10 1-10 1c-4 1-4 1-2-1l1-2 4-4c2-1 3-2 3-4l1-2v-2c0-1 7-1 13 1h7c-1-1 6-2 9-1l5-1h6c4 0 9-1 13-3l6-2c5 0 5-1 2-2-1-1-1-1 1-1l3-1c2-1 9-2 10-1l4 2 3 2-6 3c-7 5-9 6-11 6l-6 2-5 2-5 1-7 3c-3 1-7 4-6 5s0 3-1 3l-1-1zM559 363c-5-3-7-5-4-5h5l4-1 12-2c4 0 10 1 10 3l-4 1c-4 0-9 2-12 4-1 1-2 2-3 1l-1 1c0 1-2 1-7-2zM1293 363v-3h1l-1 3s-1 0 0 0zM1289 357v-2 1l1 1 1 1c-1 2-2 1-2-1zM1300 356v-1l2-1 1 1-1 1-1 1-1-1zM1337 350v-2l5-1-2 1c-2 0-2 0-2 2s0 2-1 0zM1312 350l1-1c2 1 6-2 5-2l-1-1c1-1 4 1 4 2l-2 1h-3c-1 2-3 2-4 1zM479 344l-6-6c-4-3-4-4-2-4l6 4c4 3 5 4 9 4 5 0 5 1 1 4-4 2-5 2-8-2zM603 333v-1l1 1-1 1v-1zM329 327l-3-2c-2-1-7-4-7-6l1-2h3l3 3 1 1c2 1 2 1 1 2v1c2 0 3 1 3 4l-2-1zM199 325c-4-5-4-10 1-10h3c3-2 3 0 2 6 0 7-2 8-6 4zM645 319h-1l-3-2h-1l-1-1-1-3 3 1c3 2 4 2 6 1 5-1 6 1 3 3s-5 3-5 1zM651 307l-1-3 2-2 4-1 2-1h2l-2 2c-2 1-4 3-4 6 0 2-1 2-3-1zM255 307c-1-3-1-4 1-3 1 0 3 5 1 5l-2-2zM505 303l-3-2-2 1c-1 1-1 0-2-1v-2c2 0 3-2 1-3l2 1 3 1 1 1c1 0 2 0 1 1l2 1 1 1h-1l-2 2c0 1-1 1-1-1zM522 304c-5-1-15-9-14-11l2-1c0-2 10-3 10-2 1 2 5 0 5-1 1-2 4-2 5-1l3 1c2 0 4 0 6 2s2 2 5 2h5v2l-2 2c-1 3-2 3-6 3l-5 1-3 1-3 1-8 1zM637 303l-2-2 3 1c3 0 3 0 2 2l-3-1zM306 303l1-2 1 2h-2zM488 303c0-1 4-2 5-1v1h-5zM620 296c-1-3-4-5-5-5l-3-2v-9l1-3-1-2-1-2v-1l-1-2c-2-2-2-2 2-1h1l1-1 1-1 5 5v1l2 3c0 2-1 2-3 1h-1l1 2 8 11 1 4-2 3-2 3-4-4zM491 296l-4-5h-1l-1-1-2 1h-2l-3-1 4-1v-1l-2-1-1-1-4-1c-3 0-4-1-4-2l5-1c5 0 6-1 6-2s0-1 0 0l1 2 1-2-1-2-1-1-2-1h1l3 1 3 1h1v-1c3 1 4 0 3-2v-3c1 2 6 3 5 1h3l-3-3-1 1h-1l-1-1c-2-1-2-1 0-1l1-1-1-2c-1 0-1 0 0 0l3 1 2 2 2 1 1 1 2 1c1 2 1 2-2 2s-3 0-1 1c3 1 4 2 2 2l-2 1 1 1v1l2 2c2 0 2 1 2 5h-2l-2 2c-1 1-2 2-3 1l-2 1h1l2 2-1 2-1-1c0-1-3-1-3 1h-1l-1 1h-1zM722 296h3l-1 1-2-1zM612 294v-3l3 4c0 2-1 2-3-1zM479 295l2-1 3-1c0 1-4 3-5 2zM639 294h-2c-3 0-5-1-5-4v-2l3 2c5 2 6 4 5 4h-1zM415 292c-5-2-5-2-3-3a79 79 0 0 1 19-6l10-1c5 0 8-1 14-5 4-2 7-2 7 0 1 2-2 4-5 5l-4 1-4 1-11 6-4 1-3 1h-16zM723 287c-3-2-3-3 0-3s5 2 5 3h-5zM550 283h-2l-2-1h-1l-1-1-2-1c-2-1-2-1 0-3l4-3h2c1-1 5 1 5 2l1 1c3 0 3 5 0 6h-4zM190 282v-2l4 3-4-1zM638 281c-3-1-2-2 0-2s3 2 2 3l-2-1zM741 278c0-2 0-2 1-1l1 1-1 1-1-1zM634 276c-5-3-6-6-4-6l1-1-2-1h-1v-2c-2 0-2-2 0-2v-2c-1-1 1-5 3-4h1l1-1 2 4 1 1 1 1 2 4c3 2 2 3-2 3-2 0-3 1-1 2l1 2v2l1 1c0 1-1 1-4-1zM743 274l-1-3 1 1 2 2 1 1c0 1-2 1-3-1zM704 272c-2-1-2-1 1-2l3-1-2-1-2-1c-1-3-1-4 4-5 3 0 4-1 5-2l1-2v-2-3l-6-6-5-2c-3 0-5-1-5-4-1-3-1-3 3-1l5 3 4 2 4 2 6 1 3 1c2-2 6 0 6 1l3 3 3 3-3 3-2 1 1-2c1 0 1-1-1-1-3-2-6-2-8 0l-4 6-1 2-1 4c1 3 1 3-3 4l-5-1-2 1-2-1zM5 265v-2c1-1 1 0 1 1 0 3-1 3-1 1zM7 265c-1-1 0-3 1-3l3-1h3v1l-1 1-1 1c0-2-2-2-2 0 1 1-2 2-3 1zM14 265l2-1h3l-5 1zM485 264c-1-2 0-3 1-1 2 2 2 3 1 3l-2-2zM279 260l1-2 1 2-1 3-1-3zM410 262l1-1c1-1 2 0 1 1h-2zM256 260l-3-2-1-1h14c5 1 7 3 3 3l-8 1c-2 1-3 0-5-1zM686 261l-5-1c-5 0-7-1-8-4 0-3 0-3-1-1 0 3-1 3-5 3l-9 1h-9l-4-1-3-2c-1-1 1-5 3-5l-1-1-1-2c2-2 4 0 5 2l1 3 1-2v-1c3 0 2-1-3-5l-5-5c-1-2-1-2 1-3l4-3c3-2 4-2 8-2 7 0 8 0 8-2l3-1c3 0 4 0 5 2l1 2v-3c-2-2-1-4 1-4l8 8c0 1 1 2 3 2l2 2 1 1h2c3-2 5-1 2 1l-2 3-1 1-1 1v1c-1-1-4 0-4 1h-1l-1 1h-2l-2 2h1c2 0 8 2 10 4l2 1v6h-4zm-8-8l-2-1h-2v1l3 1h3l-2-1zm-6-15c0-3-1-3-5-3l-3 1h2c1-1 2 0 2 2l2 3c1 2 3 0 2-3zM456 259l5-2v1l-5 1zM513 259l5-7 4-2h20c3 0 6 2 6 4l-18 3-14 2h-3zM280 256c-2-2-1-4 0-4 1 1 1 0 1-1h2l1-1 2-2 4-2c1-1 1-2 2-1l-6 7-1 1-1 1-2 1c0 2-1 2-2 1zM417 255c0-1 2-2 2 0l-1 1c-1 0-2 0-1-1zM19 254l-1-1h2c1 2 0 2-1 1zM631 253c-2-1-3-4-2-4l6 4h-4zM8 251l1-1h2c-1 2-3 2-3 1zM363 249c0-1 2-2 4-1v1h-4zM4 247c0-1 2-2 4-1v1H4zM536 247c2-1 13-3 16-2 5 1 1 2-8 2h-8zM18 245c0-2 1-3 2-1l-1 2c-2 1-2 1-1-1zM498 244h5l-3 1-2-1zM487 244v-1l-1-6 2-2 2-1c2 0 2-2 1-3-2-1-1-2 1-3h3l2 1 1 2-1 2c-2 0-4 5-3 8l-1 3-2-1h-2l-2 1zM590 240c-1-1 0-2 5-3l5-1h-2l-1-1 1-1v-1c0-1 8-5 9-4h2l8-2c10-1 31-8 38-12l9-3 4 2c0 4-6 7-16 8a172 172 0 0 0-25 6l-9 2-1 1c-2 0-5 4-5 5l4 1c4-1 3 0-2 1-5 2-23 3-24 2zM517 237l-2-4v-4h12c0 2-7 10-8 10l-2-2zM566 237l2-1-2 3c-2 0-2 0 0-2zM278 236c0-2 3-2 7-3 3 0 3 0 2 1l-3 1-4 1h-2zM479 236c-1-1-1-2 1-2 1 0 2 0 1 1l-2 1zM499 234c0-3 4-7 6-5l-2 4c-3 3-3 3-4 1zM291 231c3-3 9-5 9-3 0 1-1 2-6 4-5 1-5 1-3-1zM377 230l-1-1h2c1 2 0 2-1 1zM553 231c-1-1-2-2 0-3l1-1h-1l-1-1h-1l-1 1v-5-3-2h-1l-2-1-1-3-1-3c0-2 2 0 3 3 0 1 1 2 2 1s1 0 2 4c2 4 2 5 0 3-1-1-1 0-1 1 0 2 0 2 2 1l3 1-1 1v1l-1 2c-1 2 0 2 3 2h1l-5 1zM495 224c0-2 1-2 1 0v2l-1-2zM289 224c0-1 3-2 4-1l-1 1h-3zM524 223v-4c2 1 2 4 1 5s-1 0-1-1zM544 219h2l1 1-1 1-2-2zM298 218l2-2 1 1-3 1zM523 216v-3l2 4c-1 1-1 0-2-1zM521 210v-1l1 1-1 1v-1zM310 202c-1-1 0-2 1-2 2-1 3 0 2 1s-2 2-3 1zM46 198l-1-6c1 0 1 0 0 0l1 1 1 2c1 3 0 4-1 3zM358 194c-1-3-1-3 1-3l5 4-2 1-4-2zM58 192h0zM4 188l-2-6-1-3-1-18v-18l3-2c5-4 22-5 26-3l6 2 3 1 1 1v2l3-2 8-2c5 0 5 0 5 2l-1 2c-3 0-7 2-7 3s3 1 7-1c4-1 11-2 13-1 1 1-1 5-3 6h-3-2c-3 1-3 3-1 4l1 3-6 3c-3 0-3 2 0 2 3 1 4 2 3 3h-1c0-2-2-2-2 0 0 1-1 2-3 2l-2 1-1 1c-2 0-5 1-7 3l-3 1-15 3c-1 1-1 2 1 2v3l-2 2-3 2-7 3-4 2-3-3zm6-10c-1-1-5-2-5 0h2s1 0 0 0l1 2c2 0 2 0 2-2zm37-27l-4-1h-4l-3 1h-2l6 1 7-1zm-1-3c-2-1-3 0-2 1h1l1-1zM59 187l1-2 1 2v1l-2-1zM40 186v-1-1c-2-1 0-2 1-2l2 2c-1 2-2 3-3 2zM82 183c-2-2-4-6-3-7l3 3c4 5 4 8 0 4zM34 183c-2-1-1-2 2-1l1 1h-3zM345 182l2-1c2 0 1 2 0 2l-2-1zM506 170l2-1 2 1-2 1-2-1zM116 148l3-2c2 1-1 3-3 3s-2 0 0-1zM69 145l1-2h3c2-1 2 2 0 3-2 2-4 1-4-1zM121 145v-2l2 1c2 2 0 2-2 1zM82 144l-1-2h2l1 1c2 1 0 1-2 1zM118 142c0-2 0-2 1-1v3l-1-2z" fill="#5A7894"/><path d="M58 141l1-2 3-1h3c2 0 2 0 2 2s0 2-5 2-5 0-4-1zM70 140l2-2 2-1 1-1 1 1v2l-2 2c-4 2-6 2-4-1zM121 139l5-1 3-1-2 2-5 2c-2 0-2-1-1-2zM113 138c0-1-5-3-6-2l-1-1 1-1v-1l-2-3c0-1 5-1 7 1 1 2 2 2 2 0v-2c4 0 5-1 6-2l4-1c1 1 1 0 1-1v-1a104 104 0 0 0-18-1l-6 1h-1c-2-1-2-1-2 1h-5c-3-2-5-1-5 0 0 2-2 1-2-1-1-2 1-2 6-3 4 0 5-1 2-2l-3 1h-1-2l-3-2v-2h3v-1l-5-1-7-1c-3-1-3-3 0-3 1 0 2 0 1-1l1-3 1-3 1-1c1 2 4 2 8 0 3-2 4-2 6-1l8 1 6 1c2 2 1 2-12 1l-8 1-3 1v1l5 1 6 1c1 0 0 0 0 0l-2 1c0 2 1 2 4 1l5 1 4 1h4l2 1 3 3v3 1c2 0 4-3 4-5l1-2 1 2c-1 4 1 6 3 7l3 1c0 1-2 3-5 4-4 1-4 2-4 5 0 2 0 2 2 2s2 0 1 1l-4 1-3 1h-2zm-30-30l-2-1-2 2 2 1 2-2z" fill="#5A7894"/><path d="M92 136c-1-1-1-2 1-2l1-2-4 1c0 1 0 1 0 0s2-2 8-2l1-2v-3l4 1v1l1 3-1 2-1-1-1-3-1 2c1 1 0 1-1 1-3 0-6 2-5 4 0 2 0 2-2 0zM102 135l1-1v2c-2 1-3 0-1-1zM77 135c0-1 3-2 6-1 4 0 3 2-2 2l-4-1zM42 134h-3l-1-1 4-1 4 2-1 1-3-1zM8 131h1l6-2c1-2 2 0 2 1l-3 1h-2c0 2-2 2-4 0zM36 129l-1-1c2 0 1-1-1-1h-2l-1 1v-1-4-2c0 2 2 1 11 0 3 0 6-2 10-5l4-2 4-1c5-1 16-1 11 1-1 0-1 0 0 0l3 1 3 2c2 1 3 1 2 2l-3 1v1c1 1 0 9-1 9-1 1-1-1-2-2 0-4-1-5-3-3-2 1-5 0-5-2h-1l-3 1-6 1c-4 2-4 2-3 3 2 2 2 2 0 2l-1-1-2-1c-2-1-2-1-1-2 1 0 2-1 1-2h-2l-1 2v-1l-1-1v3c2 1 2 1 0 2-1 2-6 2-6 0l-1-1v1c0 2 0 2-2 0zM106 128l6-1-1 1h-5zM24 124v-1l3-1c3-1 3 1-1 2h-2zM162 123l-3-1c-3 0-2-2 2-3s4-1 4 2c1 1 1 2-1 2h-2zM124 113l-1-3 1 1c1 4 1 4 4 3s7 0 6 1h-4l-4 1-2-3zM72 108c-3-1-4-3-2-4 3-1 6 1 6 3s-1 2-4 1zM289 108h3l-2 1-1-1zM50 107l3-4-1 2-2 2zM122 107l-3-1c-4 0-4-1-3-1h3c2 0 5 1 4 2h-1zM55 103c-1-1-1-1 1-1l1 1c-1 2 0 2-2 0zM64 103h1l4-1v1c-2 1-4 2-5 0zM113 100l-1-3c1-1 1 0 3 3v3l-2-3zM58 101l3-1c2-1 3-1 2 1h-5zM74 99l1-2 2 1-3 1zM78 97l2-2c3-2 4-1 1 1-2 2-3 2-3 1zM88 92v-1h4c0 2-2 2-4 1zM101 90h-2l1-1c2 0 3 1 2 2l-1-1zM362 88l5-1-2 1h-3z" fill="#5A7894"/></svg>