<svg width="1353" height="508" viewBox="0 0 1353 508" fill="none" xmlns="http://www.w3.org/2000/svg"><path d="M425 226h1v1h-1v1h-1c0-1 0-1 0 0v1h1v1h4v1l-1 1v2h-1-1v-1l-1 1v-1h-1-1 1l-1 1 1 1v1l-1 1h-1l-1-1h-1c0-1 0-1 0 0h-1l-1-1v1l-1-1h-1v-1-1h-1l2 3v1c1 0 1 0 0 0v1l-1-1h-1v-1h-1v-1h-1v-1h-2v-1 1l-1 1h-3v-1h-1c0 1 0 1 0 0v1h-2v1h-1l-1-1v-1-1h-1v1h-1v1h-1v1h-1l-1-2v1h-1l-1 1-1-1v-1-1h-1c0-1 0-1 0 0h-1v-1h-1-1v-1h-1 1v-1-1h2l1 1 2-1v-1h0c0-1 0 0 0 0h-2-1c0 1 0 0 0 0v-1s1 0 0 0l-1-1h2c0-1 0 0 0 0h3v-1h1v-1h1l-1-1v-1c0 1 0 1 0 0h-1-2v-1l1-1h-1-1v-1-1l1 1h1v-1l-1-1 1-1 1-1h0l1-1 1-1v-1l-1 1v1h-1v-1h-1v0l-1-1h1l2-1h2l1-1h-1v-1 1h-1c0 1 0 1 0 0h-1v-1h-1l1-1h3v-1-1h0v-1h-1v-1l-1 1-1-1v-1h3l1-1h0v-1l1-1h-1v-1h-1-1v-1h-1v-1h1v-1l1-1h-1-1v-1l1-1 1 1h1v-1l1-1v-1l-1-1h1l1-1-1-1h-1v-1h2l1-1h1v-1-1l-1-1c1 0 1 0 0 0l1-1h1l1 1h1v-1h-1l-1-2v-1-1l1 1 1 1v-1-1l-1-1v-1l1 1v-1-2-1h1v4h1v1l1-1h1c0-1 0-1 0 0v1l-1 1v1l1-1 1 1-1 1h-1v1h2v1l-1 1h2l1 1v1h-1-1l1 1h2v2h-1l-1 1h2v-1h2v1l-1 1c0 1 0 0 0 0v1h-1l1 1 1-1h1v1l-1 1h1v1h-1v1h-1v1h-1l1 1h2l1 1h-1v1h-1-1v2h1c-1 0-1 0 0 0h1v2h-1v3l1 1h3v1l-1 1h-2l1 1h2l1 1v1h-1v1h1v1l1 1h-1v1h1l1 1v2h-1-1l1 2h0-2v1h5v2h-1v1h-1c1 0 0 0 0 0zM955 112v2l-1 1v-1h-1v1h1v2h4l-1 1v3h-1l-1-1h-1v-1h-1-1l1 1-1 1 1 1v1l-1 1-1-1h-1l-1-1v1h-1v-1h-1v-1 1h-1v-1l-1-1v-1h-1v1l2 2v1h1v1h-1-1l-1-1h-1v-1-1h-1l-1-1h-1v1h-3v1l-1-1h-1v1h-1v-1 1h-1-1-1v-1-1h-1v1h-1v1h-1l-1 1v-1l-1-1v0l-2 1c0 1 0 1 0 0l-1-1v-1l-1-1-1 1v-1-1 1h-1l-1-1h1-1v-1-1h5l1-1-1-1h-1v1h-1-1v-1h1v-1h-1v-1h5v-1h1v-1-1h-1l-1-1v1h-1v-2-1 1h-1c0-1 0 0 0 0l-1-1v-1h2v-1-1-1h2v-1-1l1-1h1-1l-1 1h-1v-1 1h-1v-1c-1 0 0 0 0 0v-1h4l1-1v-1h-1l-1 1-1-1h-1v-1h2l1-1v1h1v-1-1h1v-1s-1 0 0 0v-1h-1v1l-1-1h1v-1l-1 1h-1l-1-1h1l1-1h3v-1h-1l1-1 1-1h-1v1h-1v-1-1h-1c0 1 0 1 0 0h-1-1v-1h2v-1-1l1-1-1 1h-1l-1-1 1-1h2l1-1v-1-1-1h1l1-1h-2v-1h-1 1l1-1v0h1l1-1v-1-1-1h3v1h1l-1-1v-1l-2-1v-2h1v1l1 1h1l-1-1v-1l-1-1v-1h1v-1-1l1-1v-1l1 1v4s1 0 0 0v1l1-1h1v-1h1l-1 1v2h-1v1l1-1h1v1l-1 1h-1c0 1 0 1 0 0h1l1 1v1h-1v1h2l1 1h-1l-1 1h1l1 1h1v2h-1-1 4v2h-1v1h-1 3v3h-1v1h-1v1h1v1h2v1l-1 1h-2l1 1v1h2v1h-1v1h-1v3h3l1 1h1l-1 1-1 1h-1v1h2c0-1 0 0 0 0h1v1l-1 1h1v2h1v1h-1 1l1 1v2h-2l1 2h1v1h-1-1c0-1 0-1 0 0-1 0 0 0 0 0l-1 1h5v2h-1v0zM781 193h1v1 1h-1-1v1h1v1h4v1l-1 1v3h-1v-1h-1c0-1 0-1 0 0h-1v-1h-2 1v1h-1l1 1v2h-1s0 1 0 0h-1l-1-1h-1-1l-1-1v1l-1-1-1-1v-1h-1v1l2 2v1h1l-1 1-1-1h-1v-1h-1v-1h-1v-1h-1-1l-1 1h-2v1l-1-1v-1h-1v1h-1l-1 1h-1l-1-1v-1-1h-1v2h-1c0-1 0-1 0 0h-1v1h-1l-1-2v1h-1l-1 1-1-1v-1-1h-1-1v-1h-1-1l1-1h-1v-1l2-1 2 1h1l1-1v-1h-1-2l-1 1v-1-1h0l-1-1h5v-1h1v-1h1v-1l-1-1v1l-1-1h-1v1l-1-1v-1h1v-1h-1-1v-1h2v-1-2l1-1h1v-1l1-1v-1 1l-1 1h-1v-1l-1 1-1-1v-1h1l2-1h3l-1-1h-1v1l-1-1-1-1 1-1h3v-1-1h1-1l1-1h-2l1-1h-1l-1 1v-1h-1v-1h4v-1h1-1l1-1v-1h-1v-1h-1-1v-1h-1l1-1h1v-1-1h1-2-1v-1h3l1-2v-1l-1-1h2v-1h1l-2-1h-1v-1h2l1-1h1v-1-1-1-1l1 1h2v0c1 0 0 0 0 0v-1l-2-2v-1-1l1 1 1 1v-1-1l-1-1v-1l1 1v-1-2l1-1 1 1-1 2v1h1v2l1-1v-1h2l-1 1v1h-1v1h1v-1h1v1l-1 1-1 1h2v2h-1 2l1 1v1h-1-1l1 1h1l1 1v1h-1l-1 1h2v-1h2v2l-1 1v-1 1h-1v1h1l1-1 1 1v1h-1 1v1h-1v1l-1 1v1h2l1 1v1h-1-1v0h-1v1l1 1h1v2h-1v3l1 1h3l1 1h-1l-1 1v1l-1-1h-1l1 1h2l1 1v1h-1v1h1v1l1 1h-1v1h1l1 1v2h-1-1l1 2h1l-1 1c0-1 0 0 0 0l-1-1h-1 1v1h-1v1l1-1h2l1 1h1v1h-1v1h-1z" fill="#233342"/><path d="M765 211l1 1v1h-1v1c1 0 0 0 0 0l-1-1v1l1 1v1h4v1l-1 1v2h-1-1v-1l-1 1v-1h-1v-1h-1v1h1l-1 1 1 1v1l-1 1h-1l-1-1h-1c0-1 0-1 0 0h-1l-1-1h-1l-1-1v-1h-1l2 3v1c1 0 1 0 0 0v1l-1-1h-1v-1h-1v-1h-1v-1h-1l-1-1v1l-1 1h-3v-1h-1v1h-2v1h-1l-1-1v-1-1h-1v1h-1v1h-1v1h-1l-1-2v1h-1v-1l-1 2-1-1v-1-1h-1v-1l-1 1v-1h-1-1v-1h-1l1-1v-1h2l2 1 1-1v-1h0v-1l-1 1h-1-1v-1h1-1l-1-1h1l1-1v1h3v-1h1v-1h1v-1l-1-1h-1-2v-1-1h1-1-1v-1-1h2v-2l1-1h1c-1 0-1 0 0 0v-1-1h1v-1 1l-1 1h-1v-1h-1c0 1 0 0 0 0l-1-1h1l2-1h2l1-1h-1v-1 1h-1c0 1 0 1 0 0h-1v-1h-1l1-1h3v-1-1h0v-1h-1v-1h1-1-1c0 1 0 1 0 0h-1v-1h3l1-1h0v-1l1-1v-1 1h-1v-1h-1-1v-1h-1v-1h1c1 0 0 0 0 0v-1l1-1h-1-1v-1l1-1h1l1 1v-1l1-1v-1l-1-1h1l1-1-1-1h-1v-1h2l1-1 1-1v-1l-1-1h1-1l1-1h1l1 1h1v-1h-1l-1-2v-2l1 1 1 1v-1-1l-1-1v-1l1 1v-2-1-1h1v3l1 1v1l1-1 1-1v2l-1 1v1l1-1h1v1l-1 1-1 1h2v2h-1 2l1 1v1h-1-1 1v1h2v2h-1-1v1h1l1-1h2v2h-1v1h-1l1 1 1-1h1v1l-1 1h1v1h-1v1l-1 1h-1l1 1h3v1h-1v1h-1c0 1 0 0 0 0h-1l1 1v1h1v2h-1v3l1 1h3v1l-1 1h-2l1 1h2l1 1v1h-1l1 1v1h1l-1 1v1h1l1 1v2h-1l-1-1v1l1 2h0-2 1v1h-1 5v2h-1v1h-1v-1zM1236 88v3h-1v-1h-1v1l1 1v1h4v1l-1 1v2h-1-1v-1 1h-1v-1l-1-1v4c1 0 1 0 0 0v1h-2l-1-1-1-1v1h-1v-1h-2v-1h-1 1l-1-1s0-1 0 0c-1 0-1 0 0 0l1 3 1 1h-1-1l-1-1h-1v-1-1h-1-1l-1-1v2l-2-1v1h-1-1v-1h-1v1h-1l-1 1h-1v-1h-1v-1-1h-1v1h-1v1l-1 1h-1v-2l-1 1v-1l-2 2v-1l-1-1v-1l-1-1v1h-1v-1h-1v-1h-1v-1l1-1h4l1-1-1-1v1h-1-2l1-1h-1v-1l1-1 1 1h2v-1h1l1-1v-1-1h-1-2v-1-1h-1-1v-1l1-1h1v-1-1h1v-1h1v-1l1-1h1v-1h-1l-1 2-1-1h-1v-1h1l2-1h2v-1-1h-1v1h-1-1v-1h-1 1l1-1h2v-1-1h1v-1h-1v-1h-1-1v-1h2l1-1h0v-1l1-1h1v-1l-1 1h-1v-1-1l-1 1-1-1h-1v-1h2v-1l1-1h-1-1c0-1 0-1 0 0l-1-1 1-1h1l1 1v-1l1-1v-1-1l1-1 1-1h-1-1l-1-1h2l1-1h1v-1-1-1-1h2s0 1 0 0l1 1v1l1-1-1-1v-1l-1-1h-1v-2h1v1l1 1h0v-1-1-1h-1l1-1v1h1v-2-1-1l1 1v3h1l-1 1h1v-1h1v-1l1 1v1l-1 1h-1v1l1-1h1v1l-1 1-1 1h1v-1l1 1v1s0 1 0 0l-1 1h2l1 1v1l-1-1v1h-1 1l1 1h1v2h-2 4v2h-1v1c0 1 0 1 0 0h2v3h-1v1h-1v2h3v1l-1 1h-1-1l1 1v1h1l1 1-1 1h-1v3l1 1h4v1h-1v1h-1-1v1h3v2h-1 1v2h1v1h-1v1h1l1 1v2l-1-1v2l1 1h-1-1l-1 1h5l1 1-1 1h-1v0zM261 207v3h-1v-1l-1 1v1h1v2l3-1 1 1 1-1v1l-1 2v3h-1-1v-1h-2v-1h-1-1l1 1-1 1 1 1v2l-1 1-1-1h-1-1v-1h-1c0-1 0 0 0 0h-1l-1-1h-1v0h-1v-1l-1-1v-1h-1v1l2 3 1 1v1h-2-1v-1l-1-1v0h-1v-1-1h-1-1v-1h-1-1v1s0 1 0 0h-3v1h-1l-1-1h-1v1h-1-1v1h-1-1l-1-1v-1-1l-1-1v2h-2v1l-1 1-1 1v-1l-1-2v1h-1v-1l-2 2-1-1v-1h-1l1-1h-1v-1h-1-1v-1h0-1-1v-1h-1v-1h1v-1l2-1 2 1h2l1-1v-1h-1v-1l-1 1h-1-1v1l-1-1 1-1v-1h-1s-1 0 0 0v-1h5l1-1 1-1h1v-1l-1-1h-1l-1-1v1h-2v-1-1-1h1v-1 1h-1-1-1v-1-1h3v-1-2-1h2v-1l1-1 1-2c1 0 1 0 0 0h-1l-1 2v-1h-1l-1 1v-1l-1-1 1-1h4v-1h2v-1l-1-1v1h-1v1l-1-1-1-1v-1l1-1h2l1 1v-1-1l1-1v-1-1l-1 1v-1-1l-1 1h-1-1v-1-1h3l1-1h1v-1l1-1v-1h0-1v1l-1-1v-1-1 1h-1l-1-1h-1v-1l1-1h1l1-2h-1-1-1v-1l1-1h3l1-2v-2h-1l1-1h1l1-1-1-1h-1-1v-1l2-1v0h1l1-1h1v-1-1l-1-1v-1l1-1 2 1h1v1l1 1v-1-1l-1-1-1-2h-1v-2h1l1 1 1 1v-1l-1-1v-3l1 1v-2-2-1h1l1 1v2 2l1 1-1 1h1l1-2 1-1v2l-1 1v1l-1 1h1v-1h2v1l-1 1h-1l-1 1h3v2h-1v1h3l1 1-1 1s0 1 0 0h-2v1h1l2 1h1v2l-1 1h-1 2l1-1h1l1 1-1 1v1h-1v1h-1v1h1l1-1h1v3h1v1h-1l-1 1v1h-1v1h1l1 1h2v1l-1 1-1 1h-1s0-1 0 0h-1l1 1v1h2v2h-1-1v1h1v1h-1v1l1 1v1h3l1 1h1v1l-1 1-1 1-1-1h-1v1h4v2l1 1h-1v1h1v2h1l-1 1v1h1l1 1v2h-1c0 1 0 1 0 0h-1l1 3h1v1h-2l-1-1v2h-1 7v2h-1l-1 1h0z" fill="#233342"/><path d="M262 204c-2 0-3 1-3 2h-1v-1-1-1h-2-1l-4-2-1-1v-1h3l-4-2 4-2c0-2 1-2 2-2l-3-1h-1l1-1 2-1h5v-1l-1-1h1v-1-1h-1l2-1 1-1h-1l-2-2-1-1h1v-1l2 1 3-1h-3l1-1-1-1c1-1 2-1 1-2v-2h3l-3-1h5l1 1-1-2-3-1 4-1-3-1c2 0 4 1 5-1h-1-1l1-1h-1l-1-1v-1h1l1-1h4l-1-1h1l-1-2h1l-4-4 2 1v-1l2 2v-6 6l2-3 1-1v1l-1 2 3-2-3 3-1 1h1l3-1-3 2-1 1 1 1-1 1 3-1-3 2h3l1 1 3-2-2 1v1h1c0 1 0 2-2 1 1 1 2 2 0 2v1h1l3-1h1l-1 1c-1 2-3 2-4 2l-3 1h10l-2 1h1l-2 1 4 2c-1 0-2 2-3 1l-1 1v2l2-1 3-1v1l1 1h-2l-1 1v1h2l1 1-1 1c2 0 2 1 0 2l4 1-5 1v1l1 1h4c-1-1-1-2 1-1l1-1 1 1 1 1-1 1 1 1v1l-1 1-1 1-2 2v1h1l3 1h1l-1 1h-1l1 1 1 1-3 1h-1l-2 1v1h-4l-1-1h-1c0 2-2 1-3 2l-1 1h-5-2l-5-2h-1l-4-1v-1zM897 122v-1h-1 2v0c1 0 0 0 0 0h-1 1v-1s-1 0 0 0h-2 5l-1-1h-3c1 0 1 0 0 0v-1h-1 2v-1h1l1-1h-1-1v-1h0s-1 0 0 0l-1-1c-1 0-1 0 0 0 0 0 0-1 0 0h2l-1-1h2v-1 1h1l-1-1h-1-1l1-1v-1h2v-1h-1-1-1v-1h3v-1-1c-1 0-1 0 0 0h1s0-1 0 0h-2-1l1-1 1-1h-2v-1h2v-1l1-1h-1-1 1v-1h1-2v-1h2-1l1-1h1v-1l-1 1v-1h1-1l-1-1h1v-1l1 1h2v-1h-1-1-1v-1h4-1l-1-1h-1v-1h1-1-1v-1h3l1 1h1l-1-1h-1v-1h-1 1v-1h-1 0v-1h2v-1h0v-1h-1 2v-1l-1-1h2l-1-1v-1 1h1v-1h1l1 1v-1-1h-1c1 0 0 0 0 0v-1 1h1v-1-1l1 1v1l1-1v1c-1 0 0 0 0 0h-1v1h1l1-1v2h-1v1h1v-1 1l1-1v2h-1v1l1-1h1l-1 1v1l1-1v1h1v-1h1v1h-1 1v1h-1-1v1h2v1h-1v2h3v1h-1v1h-1v1h2v1h-1l1 1h1-1v1h-1v1h2v1h-1-1 1l1 1h1v1h-1v1h0v1h2v1h-1l-1 1h-1 2v1l1 1h-1v1h2v2h-1c0 1 0 1 0 0h1v2h1-1v1h0-1l-1 1h5v1h-2-1 1v1l2 1h-1-1v2h-1l-1 1h2v1c0-1 0 0 0 0h1v1h-1v-1h-1v1h2v1l1 1h1v1h-2-1 1c0 1 0 1 0 0h1l-1 1 1 1 1-1v1h-1 2v2h-1v1l1 1h1l-1 1h1l1 1h-1-1c0-1 0-1 0 0h-1l-1-1v-1h-1l1 1 1 1h-1v1h1-1-1v1l-1-1v1h-2v1h-2v1l-1-1v1h-1-1-1l-1-1v1c-1 1-3-1-3-1v4h-1l-1-3h-1l-1-1-1 1h-1v-1l-1 1v-1h-1v1h-1v-1h-1-1 1v-1h-1v1l-1-1-2 1v-1h1v-1h-1v1h-2-1 1v-1h-1l1-1h-1l-1 1v-1h-2v-1h1l1-1h-1v-1h1l-1-1h1v-1l1 1h1v-1h-1l1-1h2-1-1-1v-1s1 0 0 0h1v-1h-1 1l1-1h-1v-1h-1-1v-1h3v-1h-1v-1l1 1h1-1zM1323 1v3l-1 2-1-1h-1l1 2 1 3v1l-1-1V9l-1-2v1h-2l-1-1 1 2v3h1l1 1h-2l1 2s0 1 0 0l-1 1-3-1-2-1 1 2h1l-1 1h-1l1 1h1v1l1 1h-1c-2 0-2 1-1 1h1l2 1h1l1-1-1 1v1l2-1v2l1-1h1v-1l1 1v1l-3 1-4-1-2-1 1 1 1 1-1-1-4-1-1-1v1l-2 1h-2c-1 1 2 2 4 1h1l-1 1-1 1 3-1h1l-1 1v1h1c0 1 0 1 0 0h2l1-1h1l-2 1-1 1h2c0-1 1-1 0 0h1l1-1h2l3-2-1 2-3 2-2 1-2-1-2-1 1 2h-1l-1-1h-2v1h-2l-1 1h1c-1 1-1 1 1 1v1h1l1 1c1-1 2 1 1 1h-2-1v2h-1l-1-1-1 1h-3l2 2c1 0 1 0 0 0v1h2l1 1h2s0-1 0 0h1v1l1 1 1 1h3-1l-3 1h-4c-1 0-2 0-1 1h-3v1l1 1v1h1l2 1c1-1 1-1 0 0l1 1h1-5l-2 1c-1-1-2 0 0 1h1l2 1v1h1l1 1 2-1 2-1v1l-1 2c1 0 1 0 0 0l-1 1h-1-1l-1 1h-2-1l-1 1h-1l-1 1h-1-1l3 1v1l1 1h4l1 1 2-1 1-1v2l1-1c0-1 0-1 0 0h1l1-1 1 1h1l-4 1-1 1h-3l2 1 1 1-6 1h-7-1l-1 1 2 1h0l-1 1h1l1 1h2l1-1v1l-1 1h4l1-1v1c0 1 1 2 2 1v-1c0 1 0 2 1 1l1 1 1-1v1h1c3 0-1 1-5 2h-3l-2-1 1 1h-6l-1-1c-1 1 1 2 2 2h2l-1 1h-2l1 1h2v1h3c1 0 1 0 0 0l1 1h1l1-1v1l-1 1h3l-4 2h-7v1h-1l-2-1v1l1 1h-5l3 1h1l-1 1v1l1 1h1l1 1h1v-1l1 1v1h-1-1l-1 1c-1 0-2 0-1 1h4-2l-1 1 1 1 1-1c-1 1 0 1 1 1h2v1h-1 2s1 0 0 0h1l-5 1h-5 1l1 1-2 1h-1l3 1h1v1h2a526 526 0 0 0 2 1c0-1 0-1 0 0 1 0 1 0 0 0v2l3-3v2h1l1-1v1l-3 1h-5-2l-1 1h-2l1 1c2 0 1 0 0 1-3 1-3 2 0 1h1v1h1 1l1 1h1c-1 0-1 0 0 0h3l1-1 1 1s1 0 0 0h-2c-2 1-3 1-2 2l2-1v1l-1 1h3c1-1 1-1 0 0v1l1 1h1c0-1 1-1 0 0l3-1 1-1-1 1c0 2 1 2 2 0l1-1v1c0 2 1 2 2 1h1l1-1h1v-1l1 1 1-2c1-1 2-2 1 0h1l1-1v-1h1v-1h1l1 3-1 4-1 1h8v-6 1l1 1h1l1 1 1 1h3v-1l1 1h3s1 0 0 0l1-1v-1c-1 0-1 0 0 0h1s0-1 0 0h2v1h2l1 1v-1h2v-1-1c-1 0 0 0 0 0l3 2v-1h3v-1h1l-1-1h1l2 1v-1c-1 0-1 0 0 0h2v-1l-7-1c-1-1-2-1 0-1 1 0 1 0 0 0l1-1c2 0 2 0 1-1h1c2 0 2 0 1-1h-1 1v-1h1l2-1h-2v-1h0l-2-1 2-1 3-1-4 1v-1c2-1 1-2-2 0h-6l-8-4c-1-1 0-1 0 0l1 1h2l1 1v-1l1-1 1 1h1v-1h3l1 1h1l-1-1v-1h1l1-1h3c3 1 3 0 0-1-1-1-2-1 0-1h4l-2-1h-1 2l-4-1h-2l-2-1-3 1-8-3v-1h3l2 1h2v-1h1l1 1h2l1-1v-1h2l2-1h2s0-1 0 0l1-1c1 0 1 0 0 0l-1-1c-1-1-1-1 1-1 2-1 3-1 1-1h-7 1v-1h-1l-6-1h1v-1h2l2 1v-1l-1-1h3-1l-1-1h1l1-1h2v-1c1-1 0-1-2-1h-2-6c-3-1-4-2-1-2h1l2 1 1-1h1v-1h1v-1-1-1c2-1 1-1 0-1-4 2-6 2-7 1v-1h1c2 0 2 0 1-1l-1-1h2v-1h1l-1-1h-9c-1 0-1 0 0 0v-1h4v-1l-1-1h4c-1-1 0-2 1-2s1 0 0 0h1l1-1v-1h-2v-1h-1c1 0 1 0 0 0h-1-2v1-1l1-1h-1l-1-1-1 2-8-2v-1h2l2 1v-1h1l2 1-1-1h4v-1l1-1v-1l2-1 1-1h-1l-1-1h-1c-1 0-1 0 0 0h-2-3l1-2-2 1h-2l-7-2v-1h2l1 1 1-1 2 1v-1l1 1h2v-1c0 1 0 0 0 0l1-1h1v-1c1 0 1 0 0 0v-1h1l2 1-1-1h1l1-1 1-1h-1-2-2-1v-1h-1c-2 2-2 2-4 1-3 0-4-1-5-2l1-1 1 1h2l1 1 1-1c-1-1 0-2 1-1l2 1-1-1v-1l1 1h2v-1h1v-1c-1 0-1 0 0 0h2c1-1 0-2-1-2h-2-3-1v-1h-2c0-1 0-1 0 0l-2 1h-2c-2 0-2-1-1-1v-1h-3l-1-4v1l1 2h1v-1h1l2 2v-1-1h1l2 2v-1h1v-1 1h2l2-1-1-1-1-1-3-1h1l-2-1-2 1 1-1s1 0 0 0v-1l2-1h-2l-1-1h1l1-1h1l1-1-1-1v-1l1-1-1-1h-1l1-1v-1l-1 1h-2l-2 2c0 1-3 4-4 3v-2-1-1l1-2 1 1h1l1-1h1l-2-1-1-1h4V9h-1-1l1-1 1-1-3 1s-1 0 0 0l-1-1-1 2v1h-1V9l1-3 2-2h-2c-1 2-1 1-1 0l-1-3zm-3 11h1l1 2v1l-1-1v-1l-1-1zm0 4l2 2h-1-1l-1-2h1zm8 3h1l-1 1-2 1h-1v0l1-1h1l1-1zm-3 4l2 1h0-2v-1zm3 1h1v1l-1-1zm5 1c0 1 0 1 0 0zm-8 5l1 1-1 2v-3zm-2 4v0zm3 1v0zm-4 0h-1 1zm-2 1zm-7 0h6l-1 1h-5v-1zm30 16c0 1 0 1 0 0-1 0-1 0 0 0zm-27 4h-1l-2 1 3-1zm28 13c1 0 1 0 0 0h-2 2zm7 2h-1 1zm0 7l1 1h-1v-1zm-56 13c-1 0 0 0 0 0zm5 3h1l1 1v-1h2l1 1h2-5-1-1v-1zm8 0h-1 1zm-3 13h-1 1z" fill="#233342"/><path d="M616 210l82-20h2l90-5 6-1 103-60 5-2 50-4c4 0 7 1 10 4l7 7c4 3 8 4 12 4l122-24 69-6 5-2 16-8 6-1h31l5 1 45 20 4 1 54 3c7 0 12 6 12 13v360c0 7-6 13-13 13L14 508c-8 0-14-6-14-13V236c0-5 4-10 9-12l81-27 5-1h108l66-16 3-1h61l4 1 60 16 2 1 51 23 6 1h52l108-11z" fill="#233342"/><path d="M212 117v4l1-1h1l-1 1-1 3 1 1v-1-1l1-1h2v1l-1 2h0l-1 1h2l-1 1v1h3l1-1v1l-1 1h1v1h-1v1h-1 1l1 1h-1-1l-1 1v-1h-1v1h1-2v1h-1l-1-1v1l2 1 3-1h1l-1 1h1l3-2h1v1h2c1 1-1 2-2 1h-1l1 1h-2-1 1v2h-1l-1-1h-1v-1l1 1v1h-1-1-1l-1-1-2-1c0-1 0-1 0 0l1 1 2 2 1 1 2-1 1-1v1c0 1 0 1 0 0h2l1 1 1-1 1 1h-1v1c1 0 1 0 0 0h-1v1h-1c1 0 0 1 0 0l-1 1c0 1 0 1 0 0h2v2h1l1-1v1h3l-2 1v1h-1-1l-1 1h-1l-1 1v1h-3 1l2 1h4l1 1h1c0-1 0-1 0 0 1 0 1 0 0 0l-1 1v1h-1-1l-1 1v1h5c1 0 1 0 0 0l-1 1-1 1c0-1 0-1 0 0h-1v1h-1-1l-2-1c-1 0-1 0 0 0l1 1v1h1v1h4l1 1h2l1 1-2 1c-1 0-1 0 0 0l-1 1h-2-1l-1 1-2-1v-1 2l-1-1c0-1 0-1 0 0h-1v-1 1h-1-1l3 1h2l1 1h-2v1h4l6 1h1l-1 1h-1l1 1h1-2v1h-1-1v0h-1-1-2v1h-1c0-1 0-1 0 0 0 0 0 1 0 0l-1 1h-1v-1 1h-1l4 2 2-1h1v1h2l2-1h1l-2 1-1 1h2-1l-1 1c1 0 1 1 0 0l-1 1-1-1v1h-1-1v1h-2l3 1 3 1 2-1v1h3l-1 1h3l-2 1h-1 1v2h-1-1l-1 1v-1l-1 1v1h3l1 1h-3 1l1 1h-1-1c1 0 0 1 0 0v1h-2 1-2v1h6v1c-1 0-1 0 0 0h1l1 1h-3v1h-1v1h-1l-1-1v2l-2-2h-1l1 1h-2l2 1h6v1h1v1c2 1 2 2 0 1h-1l1 1h-1c-1 0-1 0 0 0h-2v1c0-1-1-1 0 0h-1-1l-1-1h-2l2 1 2 1h-2l1 1h-2c-1-1-1-1 0 0l-1 1h-1-2l-1-1v1h-1l-1-1v1h-2l-1-1h-1l-1-1h-1c1 0 0 0 0 0l-1-1-1-1h-1v2l1 3v1h-6v-1l1-3h-1l-1 1c1-1 0-1 0 0l-1 1h-1-2-1-2v-1h-2c1 0 1 0 0 0h-1v1h-1c0-1 0-1 0 0l-1 1v-1h-1-1v-1c1 0 1 0 0 0l1-1h-1c-1 2-1 2-2 1h-2v-1h-1 0-2 1l-1-1h-1c-1 0-1 0 0 0l6-1v-1h-1-1v-1h-1v-1l-1-1h-2l1-1h0-1l1-1h2l-2-1-2-1 4 1-1-1h2l4 1 7-3h-1-1-1l-1 1 1-1h-1-2c0-1 0-1 0 0l-1-1h-1l-1 1h-1l1-1v-1h-3c-3 1-3 0-1-1 1 0 2-1 0 0-1 0-3 0-2-1h1c1 0 1 0 0 0v-1h7l7-2v-1h-1-1l-2 1h-2v-1h-1-1l-1 1-1-1v-1h-1-1l-2-1h-1l1-1-1-1c-1 0-2-1 0-1h5l4-1-1-1h-1l-1 1h-1l1-1h-2l1-1h1-1l-1-1h-1l-1-1h5l3-1c2 0 3-1 1-1h-3c-1 0-1 0 0 0h-1v-1h-1v-1-2l5 1 1-1h-1c-1 1-2 0-1-1 1 0 1 0 0 0h-1v-1c1 0 1 0 0 0 0-1 0-1 0 0l7-1c1 0 1 0 0 0v-1l-2 1h-1v-2h1-3l-1-1v-1h-1s-1 0 0 0h-1v-1h2c-1 0-1-1 0 0v-1h1l2 1v-1h-1c1 0 2 0 1-1l2 1c1 1 5 0 5-1v-1c1 0 1 0 0 0h-1l-1 1-1-1h-1-1-2v-1h-1v-1l-2-1v-1h2v-1h1l2 1 1-1-1-1 1 1h2l6-2h-1c0-1 0-1 0 0h-1-1v-1l-2 1c0-1 0-1 0 0h-2-1v-1c1 0 0 0 0 0h-1v-1-1 1h-2v-1l-1-1h-1 3c-1-1-1-1 0 0h2c-1 0-1 0 0 0v-1h1l3 1 3-2h-1l-1 1v-1l-1 1-1-1h-1-2l1-1h1-1-1v1l-1-1c1 0 1 0 0 0h-1l1-1h-1-1c-1-1 0-1 1-1h4v-1h1l1-1 1 1h3l-1-1h3v-3 2l-1 1v-1h-1l-1 1v-1h-1v-1 1l-2 1v-1h-1-1l-2-1h1l1-1h1s2 0 1-1h2v-1l-2-1h2v-1h-1v-1h-1-1l2-1-1-1v-1h1v-1l-1-1 1 1h2l1 2 3 2v-1-2-1l-1-1v1h-1-1l-1-1 2-1c1 0 1 0 0 0h-3l1-1h1l-1-1v-1l2 1v-1l1 2 1 1c0-1 0 0 0 0v-1l-1-2-1-2 2 1v-1l1-2zm2 8h-1l-1 2v1l1-1v-1l1-1zm0 3l-1 2c-1 0-1 1 0 0l1-1 1-1h-1zm-6 2v1l2 1h1l-1-1h-1-1v-1zm3 4h-1-1-1 3zm-3 0h-1v1h1v-1zm-4 1h0zm6 4v0zm2 3zm-2 0v0zm3 0v0zm1 1zm5 0h-3v1l-1-1v1h4v-1zm-22 12c0 1 0 1 0 0zm20 3h1l1 1-2-1zm-21 10c-1 0 0 0 0 0h0zm-5 1zm0 6h-1 1zm42 9v0zm-4 2l-1 1v1l-1-1c0-1 0-1 0 0h-1-2 1l1 1h3v-2zm-6 1h0zm3 9v0zM791 128v4l1-1 1-1-1 2-1 2v1h1v-1l1-2v1h1v-1 2 2h-1v1h1v1l-1 1h1l2-1h2l-1 1h-1 1l1 1h-1l-1 1c1 0 0 0 0 0l-1 1h1c2 0 2 0 1 1h-1-3 1v1h-1s-1 0 0 0l-1 1c0-1 0-1 0 0l-1-1-1 1h6v1l1-1 2-1h1c1 0 1 0 0 0l1 1h2l-3 1h-1 1l1 1h-2l-1-1v1l1 1h-1-2v-1h-1l1 1 1 1h-2-1v-1h-1l-2-1h-1l1 1 2 1 2 1h1l1-1v1h4l1 1c-1 0-1 0 0 0l-1 1h-1v1h-1l-1 1h2s1 0 0 0h1v1h2c-1 1 0 1 1 1h1l-1 1h-1c1 0 1 0 0 0v1h-1-1v1h-1v-1 1h-1v1h-1v1h-1-1v-1 1l2 1h5c-1 0 0 0 0 0h2l-1 1v1l-1 1h-2v1h-1 4l1 1c1-1 1 0 0 0v1h-2v1h-1v1h-1l-1-1h-2 1v2h2v1h4v1h3l-2 1v1l-1 1h-2-1c0-1 0-1 0 0h-2v-1l-1 1h-1l-1-1h-1l2 2h3l-1 1h-1l5 1 5 1h1l-1 1h-1 1v1h1-1-1-2l1 1h-2-2l-1 1h-1c1 0 0 0 0 0h-1c0 1 0 1 0 0h-1l-1 1 4 1h4c-1 1-1 1 0 0h5l-2 1h-1 1v1h-1v1h-1-1-1v1h-1-1v-1 1l1 1-2-1v1l2 1h6v1h1l1-1v1l-1 1 1-1h3l-3 1v3h-2-1v1s0 1 0 0h1l1 1h1l-2 1-1-1 1 1 1 1h-1c-1 0-1 0 0 0h-1-1v1h-2c1 0 0 0 0 0l4 1h2v1h3l-3 1h-1v1h-1v1l-2-1v2l-2-2c-1-1-1-1 0 0v1h-1v-1 1l2 1h5v1h1l1 1c2 1 1 1-1 1h-1 1l-1 1h-1c-1-1-1 0 0 0h-1c0 1 0 1 0 0h-1-2-1l2 1c1 0 2 0 1 1l-2-1 1 1v1l-2-1v2h-2-2v-1 1h-1l-1-1v1h-3v-1h-1l-1-1h-1-1l-1-1c0-1 0-1 0 0v-1c0-1 0-1 0 0h-1l-1 2 1 3 1 1h-6v-1-4l-1 1c0 1 0 1 0 0l-1 1-1 1h-1-1c0 1 0 1 0 0 0 0 0-1 0 0h-1-3v-1c1-1 0-1 0 0h-1v-1l-1 1h-1c0 1 0 1 0 0l-1 1h-1c0-1 0-1 0 0h-1v-1-1h-1c-1 2-1 2-2 1v-1 1h-2v-1h-1l1-1h-1l-1 1v-1c1 0 1 0 0 0h-2l1-1 5-1c1 0 1 0 0 0s-1 0 0 0l-1-1h-1v-1h-1 1-1v-1h-1c-2 0-2 0-1-1h1l-2-1h3l-1-1-2-1 3 1v-1h6l6-3h-1v1h-1c0-1 0-1 0 0l-1 1v-1l-1-1-1 1c0 1-1 1 0 0l-1-1h-1-1v1h-1v-1h1v-1h-1-2-1c-2 0-3 0 0-1 1-1 1-1 0 0-2 0-4 0-3-1h2l-1-1h4l1-1h3l6-2c1 0 1 0 0 0h-1-1-4c1-1 1-1 0 0h-1-1s0 1 0 0h-1v-1h-1-1l-1-1h-2-1l1-1 1-1h-1l-1-1h5l5-1-1-1h-1-1-1l1-1h-3 1l1-1h-1-1l-1-1c-1-1 0-1 1-1h6c3-1 3-1 1-1h-1-1l-1-1h-1c0 1 0 1 0 0h-1v-1-1c-1-1 0-1 1-1h4v-1l-2-1h1l-1-1h8l-1-1-1 1-1-1c0 1 0 0 0 0h-1v-1h1-1l-2-1h-1v-1h-1v-1h1v-1h4-1v-1h1c-1 0-1-1 0 0l1 1 5-2h1v-1l-1 1h-1-1v-1l-1 1h-1-2-1v-1-1c-1 0-1 0 0 0l-1-1h-1l-1-1h1l1-1h1c0 1 0 1 0 0h3s1 0 0 0v-1h1l1 1 6-2v-1h-1v1h-2v-1l-1 1-1-1v1h-1-1v-1h-1v-1c-1 0-1 0 0 0v-1h-1l-1 1v-1h-1l-1-1h2v-1h1l1 1v-1c0 1 1 0 0 0h1l3 1 4-2-1-1-1 1h-1c1-1 1-1 0 0l-1 1v-1l-1-1-2 1 1-1v-1l-1 1h-1c-1 0-1 0 0 0v-1h-1c-1 0 0 0 0 0 1 0 1 0 0 0l-2-1h1l1-1h2l1 1v-1h1c-1-1 0-1 0 0l1-1 1 1h3v-1h1l1-1 1-2v1l-1 1h-1v-1l-2 2v-1-1c0 1 0 1 0 0h-1l-1 2-1-1c0-1 0-1 0 0h-1-1l-1-1h1v-1h1l2-1h-1 3l-1-1-1-1h1l1-1h-2v-1h-1l1-1v-1h-1l1-1h1l-1-1v-1h1l1 1v-1l2 3 2 2v-2-1l1-1-1-1h-1c1 1 0 1-1 1v-1h-1l1-1h0l-2-1h1s0-1 0 0l1-1h-1l-1-1 3 1v-1l1 2 1 1v-1l-1-3-2-1h3v-2h1zm1 8l-1 2v-1l1-1zm1 3l-2 1v1l1-1 1-1zm-7 2l1 1 1 1h1l-1-1h-1v-1h-1zm3 3l-1 1h-1 1l1-1zm-3 1c-1 0-1 0 0 0h0zm-3 1s-1 0 0 0zm5 3v0zm2 4c1 0 1 0 0 0zm-2 0v0zm3 0v1l1-1h-1zm1 1h0zm5 0h-2s-1 0 0 0h-1-1l1 1h3l1-1h-1zm-21 12h-1 1zm19 3h1l1 1-2-1zm-20 10h-1 1zm-5 1h-1 1zm-1 6s1 0 0 0zm42 9c1 0 1 0 0 0zm-4 2v1h-1l-1-1v1h-1-2 3l1 1 1-1h1l-1-1zm-5 0v0zm2 10zM1199 51v4l1-1h1l-1 1-1 3v0l1-1c0-1 0-2 1-1v1l1-1v2 1l-1 1c0-1 0-1 0 0v1h1v1h-1 3l2-1-1 1-1 1h2l-1 1h-1v1h-1 1l1 1h-1l-1 1h-1v-1h-1l1 1v1l-1-1v1h-2v-1 1l-1 1h2l3-1h2l-1 1h1l2-2h1v1h3c1 1-1 2-3 2l-1-1 1 1 1 1-2-1h-1c-1 0-1 0 0 0l1 1h-1v1l-2-1-1-1 1 2h0-1-1-1l-2-2h-1l1 2 2 1 2 1 1-1h1v1h1l1-1h1v1h2v1c-1-1-1-1 0 0h-1v1h-1-1l-1 2h1l1-1s1 0 0 0h1v1l-1 1h2l1-1v1h2l-1 1-1 1c1 0 1 0 0 0h-1l-1 1h-1l-1 1-1 1-1 1-1-1 2 1h4l1 1c-1 0 0 0 0 0h2l-1 1v1h-1l-2 1c0-1 0-1 0 0 1 0 0 1 0 0l-1 1h5v1s-1 0 0 0l-2 1-1 1c0-1 0-1 0 0h-1-1l-2-1 1 1v1h1l1 1h2l2 1 1 1h2l-2 1v1h-2l-1 1h-1v-1 1l-2-1h-1v1-1h-1c0 1 0 1 0 0h-2l2 1h1l1 1h1l-1 1h-1l5 1h6l-1 1h-1l1 1 1 1-1-1-1 1h-2l1 1-2-1v1h-2v-1 1h-2v1h-1-1-1l4 2h3l1-1v1c-1 0-1 0 0 0h3l2-1-2 2h-1 1v1h-1c-1 0 0 0 0 0h-1v1h-1-1c0-1 0-1 0 0l-1 1-1-1 1 1h-2c-1 0-1 0 0 0l2 2h6 2v1h-1 4l-3 1v2l-1 1h-1l-1-1v2h2c1 0 2 0 1 1h-3 1l1 1h-1c-1 0-1 0 0 0l-1 1h-1-1 0-1v1c0-1 0-1 0 0h7l-1 1h1l2 1h-4v1h-1v1h-2s0-1 0 0v1l-2-1c-1-1-1-1 0 0v1l-1-1 2 1h4l1 1h2l-1 1 1 1h-2l1 1h-1-1v1h-1c0-1 0-1 0 0h-1-2-1 1l2 1h-2l1 1h-2s-1 0 0 0v1h-1c0 1 0 1 0 0h-1-2v-1 1h-2l-1 1h-1l-1-1-1-1v1l-1-1-1-1h-1l-1-1c0 1 0 0 0 0l-1-1-1 2 1 3 1 1h-6v-1-3l-1 1s-1 1 0 0h-1l-1 1h-1-1c0 1 0 1 0 0h-1l-2 1-1-1v-1c1 0 0 0 0 0h-1-1l-1 1h-1v1l-1-1h-1v-1h-1l-2 1v-1h-2c1 0 1 0 0 0h-1l1-1h-1l-1 1v-1c1 0 1 0 0 0l-2-1h1l5-1v-1h-1c1 0 1 0 0 0s-2 0-1-1c1 0 1 0 0 0-2 0-2 0-1-1h1-1v-1h-2 1v-1h-2 2l1-1h-1l-2-1h3c1 0 1 0 0 0-1-1-1-1 1-1l5 1 6-3h-2l-1 1v-1h-1-1c-1 1-1 1 0 0h-1-1-2l1-1h-1l-1-1h-1-1c-2 1-3 0 0-1 1 0 1 0 0 0h-3l1-1h1-1l2-1h6l6-2v-1h-1-1l-2 1h-1l-1-1c1 0 1 0 0 0l-1 1h-1l-1-1c-1 0-1 0 0 0h-1-1l-1-1-2-1h-1 1v-1h1l-1-1h-1 5l-1-1h1l5-1h-1-1c0-1 0-1 0 0v-1h-1l-1 1v-1h1-3l1-1h1-1l-1-1h-1v-1h7c3-1 3-2 1-2h-1l-1 1-1-1h-1v-1h-1c1 0 0 0 0 0v-1-1h6v-1h-1c-1 1-1 0 0 0v-1h-2 1v-1h-1 7l1-1h-1c0-1 0-1 0 0h-1-1-1v-1l1-1h-3l-1-1v-1h-1l1-1c-1 0 0 0 0 0h1v-1l1 1h2l-1-1c-1 0-1-1 0 0h1v-1l1 1c1 1 5 0 5-1l1-1h-1l-1 1h-1v-1h-1l-1 1v-1h-2-1v-1l-1-1c1 0 1 0 0 0l-1-1h-1l1-1h2c-1-1 0-1 1-1l2 1s1 0 0 0v-2l1 1h1l6-2c1 0 0 0 0 0h-1c0-1 0-1 0 0h-2s0-1 0 0h-2c0-1 0-1 0 0l-1 1-1-1-1-1c-1 1-1 0 0 0v-1h-1-1c-1 0 0 0 0 0l-1-1h-1v-1h2 2v-1h1c1 2 2 2 3 1l4-2h-1-1v1l-1-1c1 0 1 0 0 0l-1 1v-1h-3 1v-1h-1v1c0-1 0 0 0 0h-1c-1 0-1 0 0 0v-1h-1v-1c1 0 1 0 0 0h-2l1-1h4l1-1c-1 0 0 0 0 0h1c0-1 0-1 0 0h1l2 1 1-1 1-1h1l1-3v1l-1 1-1 1v-1c0-1 0-1 0 0l-2 1v-1h-1l-1 1h-1v-1l-1 1-1-1h-1l1-1 1-1h1v-1h2v-1l-1-1h1l1-1h-2l-1-1 1-1s1 0 0 0l-1-1 1-1h1l-1-1v-1l1 1h1l1 2 3 2v-1-1l1-1-1-1h-1-1-1l1-2h0-2l1-1v-1h-1l3 1v-1c-1 0 0 0 0 0l1 2h1v-1l-1-2-2-2 2 1 1-1v-1l1-1zm1 8l-1 1v1l1-1v-1zm1 4l-2 1c0 1 0 1 0 0h1l1-1zm-7 1v1h1l1 1h1v0h-1l-1-1h-1v-1zm3 4h-1-1v1h1v-1h1zm-3 0v1l-1-1 1 1v-1zm-3 1s-1 0 0 0c0 1 0 1 0 0zm5 4v0zm2 3c1 0 1 0 0 0zm-2 1c0 1 0 0 0 0zm3 0zm1 0h0zm5 0l-2 1h-1c1 0 0 0 0 0h-1 4l1-1h-1zm-21 12l-1 1h1v-1zm19 3l1 1h1l-2-1zm-20 10h-1 1zm-5 1h-1v1l1-1zm-1 6v0s1 0 0 0zm42 10c1 0 1 0 0 0zm-4 2l-1 1v-1h-2v1l-1-1h-1l1 1h3 2v-1h-1zm-5 0h-1 1zm2 9v0z" fill="#233342"/><path d="M177 154v2h2l-1 1-1 1 1 1v-1l1-1h1v1 2h-1c0-1 0-1 0 0s0 1 0 0h1l-1 1 1 1 1-1h1v1h-1 1v1h-1v1h1l-1 1h-1l-1-1v1h1-1l-1 1c0-1 0-1 0 0v-1h-1v1h4l2-1h1v1h2l-2 1h-1-1l1 1h-1-1l-1-1 1 1h1l-1 1c-1-1-1-1 0 0l-1-1h-1l-2-1 1 1 1 1 1 1 1-1h1v0h2v1h1c0-1 0 0 0 0v1h-1l-1 1c0-1-1 0 0 0 0 1 0 1 0 0h1v1h3l1 1h-2v1h-1l-1 1v-1 1h-1v1h-1-1l2 1h4v1l-1 1h-1l-1 1s-1 0 0 0h3l1 1h-1-1v1h-1-2c-1 0-1 0 0 0v1h1v1h4v1h2l-2 1v1h-4v-1l-1 1c0-1 0-1 0 0h-1v-1h-1v1h2v1h1l-1 1h4l3 1h0v1h1-2c0 1 0 1 0 0h-1l1 1h-1-1-1-1v1h-2l2 1h7l-2 1h-1 1v1h-1c1 0 1 0 0 0h-1-1v1h-1v-1 1h-1l2 1 2 1 2-1v1l2-1-1 1h2l-1 1h-1 1v1h-1v1h-1-1v1h2v1h-2 2l-1 1v-1l-1 1c1 0 0 0 0 0h-1c1 0 1 0 0 0h-1c1 0 0 0 0 0v1h4l1 1h-1v1h-1v1l-1-1v1l-2-1c-1 0-1 0 0 0v1l-1-1v1h5l-1 1h1c0-1 1-1 0 0h1l1 1c1 1 1 1-1 1-1-1-1-1 0 0h-1c1 1 0 1 0 0h-1v1c0-1 0-1 0 0h-1-1v-1l-1 1c0-1 0-1 0 0h1c1 0 2 0 1 1l-1-1v1l1 1-2-1v1h-1-2v-1 1h-1-1-1c0 1 0 1 0 0h-1v-1 1l-1-1h-1c1 0 0 0 0 0v-1h-1v-1h-1v2l1 2v1h-4v-1-3 1h-1l-1 1h-2-1-1c-1 0-1 0 0 0l-1-1c0 1-1 1 0 0h-1v1h-2-1v-1l-1 1-1-1h-2l1-1h-1l-1 1v-1c1 0 1 0 0 0h-1l4-1c1 0 1-1 0 0v-1h-1s-1 0 0 0l-1-1h1-1v-1h-2 1c1 0 0 0 0 0l-1-1h1l-1-1h2 4l5-2h-2l-1 1v-1h-1c0 1 0 1 0 0h-1-2l1-1h-1-1-1c-1 0-2 0 0-1 1 0 1 0 0 0h-2l1-1c1 0 1 0 0 0h3v-1h2l5-1v-1h-1l-1 1h-2c-1 0-1 0 0 0h-1-1-1v-1h-1-1l-1-1h-1l1-1h-1v-1h4l3-1h-1-1-1l1-1h-2 1l-1-1h-1v-1h5l1-1h-1-1c-1 0-1 0 0 0h-1v-1h-1c1 0 1 0 0 0v-1c1 0 1 0 0 0l1-1 3 1v-1h-1l1-1h-1l-1-1h6-1c1-1 0-1 0 0h-1-1v-1l1-1-1 1-1-1h-1v-1h-1l1-1c0 1 0 1 0 0h1c-1 0-1 0 0 0h2-1v-1h1c-1 0-1 0 0 0l1 1 3-1 1-1h-1v1h-1l-1-1-1 1v-1h-1-1v-1c-1 0-1 0 0 0l-1-1h-1 1v-1h3c1 0 1 0 0 0v-1h1l1 1 4-2h-1-1c0 1 0 1 0 0l-1 1v-1h-1v1c0-1 0 0 0 0l-1-1h-1v-1-1 1h-1l-1-1h-1 2v-1c-1 0 0 0 0 0h1c1 0 1 0 0 0h1l2 1 3-2h-1l-1 1v-1l-1 1v-1h-1-1l1-1h-1v1h-1v-1h-1 0l-1-1h4v-1h2l2 1v-1l1-1 1-1c0-1 0 0 0 0l-1 1c0-1 0-1 0 0h-2v-1 1l-1 1-1-1h-1l-1-1h1l1-1h2v-1h-1v-1h1c0-1 0-1 0 0l-1-1h-1l1-1-1-1h1v-2 1h1l1 1 2 2v-1-1-1s-1 0 0 0h-2l1-1v-1h-2 1v-1h-1 2c0 1 0 0 0 0l1 1h1l-1-2-1-1 1 1 1-1v-1zm1 5v1l-1 1 1-1v-1zm1 3l-1 1c-1 0-1 0 0 0v-1h1zm-5 1v1h2v0h-1v-1h-1zm2 2v1h-1-1 2v-1zm-2 1c-1 0-1 0 0 0 0 1 0 1 0 0zm-2 0v0zm4 3l-1 1 1 1v-2zm1 2v0zm-1 1c-1 0-1 0 0 0zm2 0zm1 0h-1 1zm3 0h-2v1l-1-1v1h3v-1zm-15 9h-1 1zm14 2h0zm-15 7c-1 0-1 0 0 0h0zm-4 1zm0 4zm30 6v0zm-3 2l-1 1v-1h-1l-1 1v-1 1h3v-1zm-4 0zm2 7zM1283 55v3l1-1v1l-1 2v0h1v-1l1-1v1c-1 0 0 0 0 0l1-1v2l-1 1h1-2l1 1h0v1h2l1-1v1h-1 1v1h-1v1h-1 1l1 1h-1-1-1v1l-1-1v1h-1v-1 1l1 1 2-1h1v1l2-1 1-1v1h2l-2 1h-1 1v1h-1l-1-1 1 1h-1v1l-1-1h-1l1 1h-1-1l-2-2v1l2 2h2l1-1v1c-1 0-1 0 0 0h2c-1 0 0 0 0 0h1v1h-1v1s-1 0 0 0h-1v1h1c1 0 1 0 0 0v1h1l1-1v1h1l-1 1-1 1h-1-1v1h-1v1h-1v-1 1h5v1h1c0-1 0 0 0 0l-1 1-1 1c-1-1-1-1 0 0h-1v1l2-1h1v1c1 0 1 0 0 0v1h-1-1v1h-1l-1-1c-1 0-1 1 0 0v2h3l1 1h2l-1 1v1h-1c1 0 0 0 0 0h-1-1v1l-1-1h-1v1-1h-1c0 1 0 1 0 0h-1l1 1h3l-1 1h-1l3 1h5l-1 1 1 1h-1-1-1c0 1 0 0 0 0h-1-1v1h-1c-1-1-1-1 0 0h-1-1v1l2 1h2l1-1v1c-1 0-1 0 0 0h2l1-1-1 1h-1 1v1h-1v1c0-1 0-1 0 0h-1-1c1 0 0 0 0 0h-1v1h-1c0-1 0-1 0 0l2 1h5c1 0 1 0 0 0v1h1-1v1c1 0 1 1 0 0v1h-1c0 1 0 1 0 0h-1v1h1l1 1s1 0 0 0h-2 1v1h-1c1 0 1 0 0 0 0 1 0 1 0 0h-1v1h-1 5l-1 1h1l1 1h-2c-1-1-1-1 0 0v1l-1-1v1h-1-1l1 1-2-1c-1-1-1-1 0 0h-1l1 1h4s0 1 0 0l2 1h-1v1c2 0 2 1 0 0-1 0-1 0 0 0v1h-1-2-1-1 1l1 1h-1l1 1h-2c0-1 0-1 0 0v1h-1c0-1 0-1 0 0l-2-1v1h-1v-1l-1 1h-1s0-1 0 0l-1-1h-1l-1-1h-1v-1c0 1 0 1 0 0s0-1 0 0h-1v3l1 1h-4v-1-2h-1v1h-1v1h-1c0-1 0 0 0 0h-1c0-1 0-1 0 0h-1-1c-1 0-1 0 0 0l-1-1c1 0 1 0 0 0h-1c1 0 1 0 0 0h-1l-1 1v-1h-1v-1 1h-3l-1-1h-1c1 0 1 0 0 0h-1v-1h4v-1c-1 0-1 0 0 0h-1v-1h-1c-1 0-1 0 0 0v-1c-1 0-1 0 0 0h-2l1-1h-1 1l1-1h-1c-1 0-2 0-1-1l2 1v-1h4l4-2c1 0 0 0 0 0v1h-1c0-1 0-1 0 0h-1v-1l-1 1h-1v-1h-1l-1 1v-1h0l-1-1h-2l1-1h-2 1l-1-1h4c-1 0-1-1 0 0h2l4-2c1 0 1 0 0 0h-1-3c1 0 0 0 0 0h-1-1c-1 0-1 0 0 0h-1v-1h-2-1v-1h1c-1 0 0 0 0 0l-1-1c-1 0-1-1 0 0h3v-1h3v-1h-1-2v-1h1-1l-1-1h3l2-1h1l-1-1v1h-1v-1h-2v-1-1h3v-1c1 0 1 0 0 0h-1l1-1h-1 6l-1-1h-1-1v-1h1-2l-1-1c-1 0-1 0 0 0h-1v-1h1c-1 0 0 0 0 0v-1h1l1 1v-1c-1 0-1 0 0 0 0 0 1 0 0 0 0-1 0-1 0 0h1c1 1 4 0 4-1 1 0 1 0 0 0h-3-2v-2h-1-1v-1h2v-1l2 1v-1h2l4-1c0-1 0-1 0 0l-1-1v1h-1v-1l-1 1h-1c0-1 0-1 0 0h-1v-1h-1v-1h-1-1c1 0 1 0 0 0l-1-1h2c-1-1 0-1 0 0h1v-1h1l2 1 2-1v-1 1h-1c0-1 0-1 0 0h-1l-1-1-1 1v-1c1 0 1 0 0 0h-1l-1-1c1 0 1 0 0 0h-1l1-1h1 2c0-1 0-1 0 0h1v-1l1 1h2l-1-1h2l1-2v1h-1v1l-1-1-1 1v-1l-2 1v-1l-1 1v-1h-1l1-1c1 0 2 0 1-1h2-1v-1h-1 1l1-1h-2v-1h1v-1h-1c1 0 0 0 0 0v-1h1l-1-1h1l1 1v-1l1 2 2 1v-1-1-1h-1c1 1 0 1 0 0h-1l1-1h-2l1-1-1-1 2 1v-1l1 2v-1-1l-1-1h1v-1l1-1zm1 6l-1 1v1l1-1v-1zm1 2l-2 1h1l1-1zm-5 1v1c-1 0 0 0 0 0l1 1h1l-1-1h-1v-1zm2 3h-2 1c0 1 0 0 0 0h1zm-2 0c0 1 0 1 0 0h-1l1 1v-1zm-3 1h0zm4 3l1 1-1-1zm2 2zm-2 0v0zm2 0h0zm1 0v0zm4 0l-1 1h-2 3v-1zm-16 9c0 1 0 1 0 0zm14 2l1 1h1l-2-1zm-14 7h-1 1zm-4 1zm0 4l-1 1 1-1zm30 7h-1 1zm-3 1l-1 1h-1-2 3c0 1 0 1 0 0h1c1 0 1 0 0 0v-1zm-4 1zm2 6h-1l1 1v-1z" fill="#233342"/></svg>